<svg width="68" height="68" viewBox="0 0 68 68" fill="none" xmlns="http://www.w3.org/2000/svg">
<g filter="url(#filter0_bd_1205_2252)">
<rect x="4" width="60" height="60" rx="30" fill="#1C1B1F" shape-rendering="crispEdges"/>
<mask id="mask0_1205_2252" style="mask-type:alpha" maskUnits="userSpaceOnUse" x="19" y="15" width="30" height="30">
<rect x="19" y="15" width="30" height="30" fill="#D9D9D9"/>
</mask>
<g mask="url(#mask0_1205_2252)">
<path d="M38.375 36.25C38.8958 36.25 39.3385 36.0677 39.7031 35.7031C40.0677 35.3385 40.25 34.8958 40.25 34.375C40.25 33.8542 40.0677 33.4115 39.7031 33.0469C39.3385 32.6823 38.8958 32.5 38.375 32.5C37.8542 32.5 37.4115 32.6823 37.0469 33.0469C36.6823 33.4115 36.5 33.8542 36.5 34.375C36.5 34.8958 36.6823 35.3385 37.0469 35.7031C37.4115 36.0677 37.8542 36.25 38.375 36.25ZM27.125 36.25C27.6458 36.25 28.0885 36.0677 28.4531 35.7031C28.8177 35.3385 29 34.8958 29 34.375C29 33.8542 28.8177 33.4115 28.4531 33.0469C28.0885 32.6823 27.6458 32.5 27.125 32.5C26.6042 32.5 26.1615 32.6823 25.7969 33.0469C25.4323 33.4115 25.25 33.8542 25.25 34.375C25.25 34.8958 25.4323 35.3385 25.7969 35.7031C26.1615 36.0677 26.6042 36.25 27.125 36.25ZM40.25 30C38.5208 30 37.0469 29.3906 35.8281 28.1719C34.6094 26.9531 34 25.4792 34 23.75C34 22.0417 34.6042 20.5729 35.8125 19.3438C37.0208 18.1146 38.5 17.5 40.25 17.5C41.9792 17.5 43.4531 18.1094 44.6719 19.3281C45.8906 20.5469 46.5 22.0208 46.5 23.75C46.5 25.4792 45.8906 26.9531 44.6719 28.1719C43.4531 29.3906 41.9792 30 40.25 30ZM39.625 25H40.875V20H39.625V25ZM40.25 27.5C40.4167 27.5 40.5625 27.4375 40.6875 27.3125C40.8125 27.1875 40.875 27.0417 40.875 26.875C40.875 26.7083 40.8125 26.5625 40.6875 26.4375C40.5625 26.3125 40.4167 26.25 40.25 26.25C40.0833 26.25 39.9375 26.3125 39.8125 26.4375C39.6875 26.5625 39.625 26.7083 39.625 26.875C39.625 27.0417 39.6875 27.1875 39.8125 27.3125C39.9375 27.4375 40.0833 27.5 40.25 27.5ZM31.5937 25H26.3125L25 28.75H33.0938C33.9271 29.9375 34.9688 30.8594 36.2188 31.5156C37.4688 32.1719 38.8125 32.5 40.25 32.5C40.8958 32.5 41.5365 32.4323 42.1719 32.2969C42.8073 32.1615 43.4167 31.9479 44 31.6562V41.25C44 41.6042 43.8802 41.901 43.6406 42.1406C43.401 42.3802 43.1042 42.5 42.75 42.5H41.5C41.1458 42.5 40.849 42.3802 40.6094 42.1406C40.3698 41.901 40.25 41.6042 40.25 41.25V40H25.25V41.25C25.25 41.6042 25.1302 41.901 24.8906 42.1406C24.651 42.3802 24.3542 42.5 24 42.5H22.75C22.3958 42.5 22.099 42.3802 21.8594 42.1406C21.6198 41.901 21.5 41.6042 21.5 41.25V31.25L24.125 23.75C24.25 23.375 24.474 23.0729 24.7969 22.8438C25.1198 22.6146 25.4792 22.5 25.875 22.5H29V20H32.3438C32.0729 20.5833 31.8646 21.1875 31.7188 21.8125C31.5729 22.4375 31.5 23.0833 31.5 23.75C31.5 23.9792 31.5052 24.1927 31.5156 24.3906C31.526 24.5885 31.5521 24.7917 31.5937 25Z" fill="white"/>
</g>
</g>
<defs>
<filter id="filter0_bd_1205_2252" x="-6" y="-10" width="80" height="80" filterUnits="userSpaceOnUse" color-interpolation-filters="sRGB">
<feFlood flood-opacity="0" result="BackgroundImageFix"/>
<feGaussianBlur in="BackgroundImageFix" stdDeviation="5"/>
<feComposite in2="SourceAlpha" operator="in" result="effect1_backgroundBlur_1205_2252"/>
<feColorMatrix in="SourceAlpha" type="matrix" values="0 0 0 0 0 0 0 0 0 0 0 0 0 0 0 0 0 0 127 0" result="hardAlpha"/>
<feOffset dy="4"/>
<feGaussianBlur stdDeviation="2"/>
<feComposite in2="hardAlpha" operator="out"/>
<feColorMatrix type="matrix" values="0 0 0 0 0 0 0 0 0 0 0 0 0 0 0 0 0 0 0.25 0"/>
<feBlend mode="normal" in2="effect1_backgroundBlur_1205_2252" result="effect2_dropShadow_1205_2252"/>
<feBlend mode="normal" in="SourceGraphic" in2="effect2_dropShadow_1205_2252" result="shape"/>
</filter>
</defs>
</svg>
