<svg width="20" height="20" viewBox="0 0 20 20" fill="none" xmlns="http://www.w3.org/2000/svg">
<path d="M18.168 7.66472C18.116 7.51147 18.0202 7.3768 17.8925 7.27736C17.7648 7.17791 17.6108 7.11803 17.4495 7.10512L12.7301 6.73012L10.6879 2.20943C10.6228 2.06382 10.5171 1.94016 10.3833 1.85335C10.2495 1.76654 10.0935 1.7203 9.93402 1.72021C9.77455 1.72013 9.61846 1.76619 9.4846 1.85286C9.35073 1.93952 9.24481 2.06307 9.17961 2.2086L7.13739 6.73012L2.41802 7.10512C2.25945 7.11768 2.10787 7.17566 1.98139 7.27212C1.85491 7.36858 1.75891 7.49943 1.70485 7.64902C1.65079 7.79861 1.64098 7.96061 1.67658 8.11564C1.71218 8.27066 1.79169 8.41215 1.9056 8.52317L5.39318 11.923L4.15974 17.2641C4.12229 17.4257 4.13429 17.5949 4.19419 17.7497C4.2541 17.9045 4.35913 18.0376 4.49567 18.132C4.63221 18.2263 4.79394 18.2774 4.95989 18.2787C5.12584 18.2799 5.28834 18.2313 5.4263 18.1391L9.93375 15.1341L14.4412 18.1391C14.5822 18.2327 14.7485 18.2809 14.9177 18.2772C15.0869 18.2735 15.2509 18.218 15.3877 18.1183C15.5245 18.0186 15.6274 17.8794 15.6827 17.7194C15.738 17.5595 15.743 17.3864 15.697 17.2235L14.1829 11.9255L17.9379 8.54635C18.1837 8.32449 18.274 7.97847 18.168 7.66472Z" fill="#FFB800"/>
</svg>
