<svg width="30" height="30" viewBox="0 0 30 30" fill="none" xmlns="http://www.w3.org/2000/svg">
<path d="M27.75 9H27V18.0015C27 19.6515 25.6605 20.991 24.015 21H9V21.75C9 22.9905 10.0095 24 11.25 24H22.0005L30 30V11.25C30 10.0095 28.9905 9 27.75 9Z" fill="white"/>
<path fill-rule="evenodd" clip-rule="evenodd" d="M24 15.75C24 16.9905 22.9905 18 21.75 18H7.9995L0 24V2.25C0 1.0095 1.0095 0 2.25 0H21.75C22.9905 0 24 1.0095 24 2.25V15.75ZM3.231 17.826L3 17.85V18L3.231 17.826ZM11.4037 13.847V15.4927H12.9346V13.8853C13.7256 13.7704 14.389 13.477 14.9248 13.005C15.4607 12.5329 15.7286 11.844 15.7286 10.9382C15.7286 10.211 15.5021 9.56992 15.0492 9.01495C14.5963 8.45999 13.9297 8.05493 13.0494 7.79977C12.1053 7.53186 11.4419 7.2767 11.0592 7.0343C10.6765 6.7919 10.4851 6.4602 10.4851 6.03919C10.4851 5.66921 10.6318 5.35984 10.9252 5.11106C11.2187 4.86228 11.6461 4.73789 12.2074 4.73789C12.6922 4.73789 13.0749 4.83995 13.3556 5.04408C13.6363 5.2482 13.8532 5.55439 14.0063 5.96264L15.4224 5.35027C15.231 4.8272 14.928 4.38386 14.5134 4.02026C14.0988 3.65667 13.5725 3.42383 12.9346 3.32177V1.71429H11.4037V3.32177C10.8423 3.38556 10.2937 3.6471 9.75791 4.10638C9.22208 4.56566 8.95416 5.20993 8.95416 6.03919C8.95416 6.72811 9.15829 7.31178 9.56654 7.7902C9.97479 8.26862 10.7275 8.68006 11.8247 9.02452C12.8453 9.35623 13.496 9.65285 13.7766 9.91438C14.0573 10.1759 14.1976 10.5299 14.1976 10.9765C14.1976 11.474 14.0158 11.8408 13.6522 12.0768C13.2886 12.3129 12.8453 12.4309 12.3222 12.4309C11.7099 12.4309 11.2155 12.2714 10.8391 11.9524C10.4628 11.6335 10.1789 11.1678 9.98755 10.5555L8.57143 11.1296C8.80107 11.9205 9.16148 12.5329 9.65266 12.9667C10.1438 13.4005 10.7275 13.6939 11.4037 13.847Z" fill="white"/>
</svg>
