<svg width="73" height="68" viewBox="0 0 73 68" fill="none" xmlns="http://www.w3.org/2000/svg">
<g filter="url(#filter0_d_14_615)">
<rect x="4" width="65" height="60" rx="10" fill="#1C1B1F"/>
<mask id="mask0_14_615" style="mask-type:alpha" maskUnits="userSpaceOnUse" x="39" y="16" width="30" height="30">
<rect x="39" y="16" width="30" height="30" fill="#FFB800"/>
</mask>
<g mask="url(#mask0_14_615)">
<path d="M45.6667 39.6666V41.2083C45.6667 41.5034 45.5668 41.7508 45.3672 41.9505C45.1675 42.1501 44.9201 42.25 44.625 42.25H43.7917C43.4965 42.25 43.2491 42.1501 43.0495 41.9505C42.8498 41.7508 42.75 41.5034 42.75 41.2083V31.125L45.3958 23.2916C45.4792 22.9722 45.6608 22.7187 45.9406 22.5312C46.2205 22.3437 46.5319 22.25 46.875 22.25H50.5625V19.8541H57.4792V22.25H61.125C61.4681 22.25 61.7795 22.3437 62.0594 22.5312C62.3392 22.7187 62.5208 22.9722 62.6042 23.2916L65.25 31.125V41.2083C65.25 41.5034 65.1502 41.7508 64.9505 41.9505C64.7509 42.1501 64.5035 42.25 64.2083 42.25H63.3542C63.059 42.25 62.8116 42.1501 62.612 41.9505C62.4124 41.7508 62.3125 41.5034 62.3125 41.2083V39.6666H45.6667ZM45.6458 29.0417H62.3542L60.7708 24.3333H47.2292L45.6458 29.0417ZM48.0784 36.125C48.5748 36.125 48.9913 35.9548 49.3281 35.6146C49.6649 35.2743 49.8333 34.8611 49.8333 34.375C49.8333 33.8773 49.6632 33.4543 49.3229 33.1059C48.9826 32.7575 48.5694 32.5833 48.0833 32.5833C47.5856 32.5833 47.1626 32.757 46.8142 33.1044C46.4658 33.4519 46.2917 33.8738 46.2917 34.3701C46.2917 34.8664 46.4654 35.283 46.8128 35.6198C47.1602 35.9566 47.5821 36.125 48.0784 36.125ZM59.9375 36.125C60.4352 36.125 60.8582 35.9548 61.2066 35.6146C61.555 35.2743 61.7292 34.8611 61.7292 34.375C61.7292 33.8773 61.5555 33.4543 61.208 33.1059C60.8606 32.7575 60.4387 32.5833 59.9424 32.5833C59.4461 32.5833 59.0295 32.757 58.6927 33.1044C58.3559 33.4519 58.1875 33.8738 58.1875 34.3701C58.1875 34.8664 58.3576 35.283 58.6979 35.6198C59.0382 35.9566 59.4514 36.125 59.9375 36.125Z" fill="white"/>
</g>
<mask id="mask1_14_615" style="mask-type:alpha" maskUnits="userSpaceOnUse" x="6" y="16" width="20" height="20">
<rect x="6" y="16" width="20" height="20" fill="#FFB800"/>
</mask>
<g mask="url(#mask1_14_615)">
<path d="M10.4444 31.7778V32.8056C10.4444 33.0023 10.3779 33.1672 10.2448 33.3003C10.1117 33.4334 9.94674 33.5 9.74998 33.5H9.19444C8.99769 33.5 8.83276 33.4334 8.69965 33.3003C8.56655 33.1672 8.5 33.0023 8.5 32.8056V26.0833L10.2639 20.8611C10.3195 20.6481 10.4405 20.4792 10.6271 20.3542C10.8137 20.2292 11.0213 20.1667 11.25 20.1667H13.7083V18.5694H18.3194V20.1667H20.75C20.9787 20.1667 21.1863 20.2292 21.3729 20.3542C21.5595 20.4792 21.6805 20.6481 21.7361 20.8611L23.5 26.0833V32.8056C23.5 33.0023 23.4335 33.1672 23.3004 33.3003C23.1672 33.4334 23.0023 33.5 22.8056 33.5H22.2361C22.0394 33.5 21.8744 33.4334 21.7413 33.3003C21.6082 33.1672 21.5417 33.0023 21.5417 32.8056V31.7778H10.4444ZM10.4305 24.6944H21.5695L20.5139 21.5555H11.4861L10.4305 24.6944ZM12.0523 29.4167C12.3832 29.4167 12.6609 29.3032 12.8854 29.0764C13.1099 28.8495 13.2222 28.5741 13.2222 28.25C13.2222 27.9182 13.1088 27.6362 12.8819 27.4039C12.6551 27.1717 12.3796 27.0556 12.0555 27.0556C11.7238 27.0556 11.4417 27.1714 11.2095 27.403C10.9772 27.6346 10.8611 27.9158 10.8611 28.2467C10.8611 28.5776 10.9769 28.8553 11.2085 29.0798C11.4402 29.3044 11.7214 29.4167 12.0523 29.4167ZM19.9583 29.4167C20.2901 29.4167 20.5721 29.3032 20.8044 29.0764C21.0367 28.8495 21.1528 28.5741 21.1528 28.25C21.1528 27.9182 21.037 27.6362 20.8054 27.4039C20.5737 27.1717 20.2925 27.0556 19.9616 27.0556C19.6307 27.0556 19.353 27.1714 19.1285 27.403C18.9039 27.6346 18.7917 27.9158 18.7917 28.2467C18.7917 28.5776 18.9051 28.8553 19.132 29.0798C19.3588 29.3044 19.6343 29.4167 19.9583 29.4167Z" fill="white"/>
</g>
<mask id="mask2_14_615" style="mask-type:alpha" maskUnits="userSpaceOnUse" x="10" y="16" width="44" height="44">
<rect x="11" y="17" width="42" height="42" fill="#1C1B1F" stroke="white" stroke-width="2"/>
</mask>
<g mask="url(#mask2_14_615)">
<path d="M23.1131 43.4417L23.1131 43.4417C23.3845 43.7048 23.6952 43.8333 24.1046 43.8333C24.5103 43.8333 24.8064 43.7056 25.0601 43.4493L23.1131 43.4417ZM23.1131 43.4417C22.8497 43.1864 22.7222 42.8925 22.7222 42.4935C22.7222 42.0948 22.8506 41.7879 23.1251 41.5141L23.1131 43.4417ZM16.6921 53.3078L16.6922 53.3079C17.1552 53.7708 17.7435 54 18.3889 54H19.5C20.1453 54 20.7336 53.7708 21.1966 53.3078C21.6596 52.8448 21.8889 52.2565 21.8889 51.6111V50.5556H42.0834V51.6111C42.0834 52.2565 42.3126 52.8448 42.7755 53.3078L42.7756 53.3078C43.2386 53.7708 43.8269 54 44.4722 54H45.6111C46.2565 54 46.8448 53.7708 47.3078 53.3079L47.3079 53.3078C47.7708 52.8448 48 52.2565 48 51.6111V38.1667V38.0024L47.9474 37.8467L44.4297 27.4322C44.2508 26.7817 43.8633 26.2534 43.3024 25.8776C42.7614 25.5151 42.1517 25.3333 41.5 25.3333H37.6389V23.1389V22.1389H36.6389H27.4167H26.4167V23.1389V25.3333H22.5C21.8483 25.3333 21.2386 25.5151 20.6976 25.8776C20.1367 26.2534 19.7492 26.7817 19.5703 27.4322L16.0526 37.8467L16 38.0024V38.1667V51.6111C16 52.2565 16.2292 52.8448 16.6921 53.3078ZM40.9101 43.4374L40.9101 43.4374C40.6369 43.7042 40.3255 43.8333 39.9167 43.8333C39.5275 43.8333 39.2307 43.7096 38.9674 43.449L38.9674 43.449C38.7111 43.1953 38.5833 42.8992 38.5833 42.4935C38.5833 42.0841 38.7118 41.7734 38.975 41.502C39.2303 41.2386 39.5242 41.1111 39.9232 41.1111C40.3219 41.1111 40.6289 41.2395 40.9026 41.514L40.9026 41.514C41.1765 41.7887 41.3056 42.0977 41.3056 42.5C41.3056 42.8783 41.1823 43.1715 40.9101 43.4374ZM40.309 30.1111L41.7476 34.3889H22.2524L23.691 30.1111H40.309ZM25.4444 42.5C25.4444 42.8893 25.3207 43.1861 25.0601 43.4493L23.1251 41.514C23.3998 41.2402 23.7089 41.1111 24.1111 41.1111C24.4894 41.1111 24.7826 41.2344 25.0485 41.5066C25.3153 41.7798 25.4444 42.0912 25.4444 42.5Z" fill="white" stroke="#1C1B1F" stroke-width="2"/>
</g>
</g>
<defs>
<filter id="filter0_d_14_615" x="0" y="0" width="73" height="68" filterUnits="userSpaceOnUse" color-interpolation-filters="sRGB">
<feFlood flood-opacity="0" result="BackgroundImageFix"/>
<feColorMatrix in="SourceAlpha" type="matrix" values="0 0 0 0 0 0 0 0 0 0 0 0 0 0 0 0 0 0 127 0" result="hardAlpha"/>
<feOffset dy="4"/>
<feGaussianBlur stdDeviation="2"/>
<feComposite in2="hardAlpha" operator="out"/>
<feColorMatrix type="matrix" values="0 0 0 0 0 0 0 0 0 0 0 0 0 0 0 0 0 0 0.25 0"/>
<feBlend mode="normal" in2="BackgroundImageFix" result="effect1_dropShadow_14_615"/>
<feBlend mode="normal" in="SourceGraphic" in2="effect1_dropShadow_14_615" result="shape"/>
</filter>
</defs>
</svg>
