<svg width="24" height="24" viewBox="0 0 24 24" fill="none" xmlns="http://www.w3.org/2000/svg">
<mask id="mask0_1142_2394" style="mask-type:alpha" maskUnits="userSpaceOnUse" x="0" y="0" width="24" height="24">
<rect width="24" height="24" fill="#D9D9D9"/>
</mask>
<g mask="url(#mask0_1142_2394)">
<path d="M2.3999 19.2V16.9C2.3999 16.4667 2.50407 16.0709 2.7124 15.7125C2.92074 15.3542 3.20824 15.0667 3.5749 14.85C4.4749 14.3167 5.42907 13.9084 6.4374 13.625C7.44574 13.3417 8.4999 13.2 9.5999 13.2C10.6999 13.2 11.7541 13.3417 12.7624 13.625C13.7707 13.9084 14.7249 14.3167 15.6249 14.85C15.9916 15.0667 16.2791 15.3542 16.4874 15.7125C16.6957 16.0709 16.7999 16.4667 16.7999 16.9V19.2H2.3999ZM18.5999 19.2V16.9C18.5999 16.2 18.4374 15.55 18.1124 14.95C17.7874 14.35 17.3499 13.8584 16.7999 13.475C17.4499 13.6084 18.0791 13.7875 18.6874 14.0125C19.2957 14.2375 19.8749 14.5167 20.4249 14.85C20.7916 15.0667 21.0791 15.3542 21.2874 15.7125C21.4957 16.0709 21.5999 16.4667 21.5999 16.9V19.2H18.5999ZM9.5999 12C8.5999 12 7.7499 11.65 7.0499 10.95C6.3499 10.25 5.9999 9.40005 5.9999 8.40005C5.9999 7.40005 6.3499 6.55005 7.0499 5.85005C7.7499 5.15005 8.5999 4.80005 9.5999 4.80005C10.5999 4.80005 11.4499 5.15005 12.1499 5.85005C12.8499 6.55005 13.1999 7.40005 13.1999 8.40005C13.1999 9.40005 12.8499 10.25 12.1499 10.95C11.4499 11.65 10.5999 12 9.5999 12ZM17.9999 8.40005C17.9999 9.40005 17.6499 10.25 16.9499 10.95C16.2499 11.65 15.3999 12 14.3999 12C14.2666 12 14.1416 11.9959 14.0249 11.9875C13.9082 11.9792 13.7832 11.9584 13.6499 11.925C14.0666 11.4417 14.3957 10.9042 14.6374 10.3125C14.8791 9.72088 14.9999 9.08338 14.9999 8.40005C14.9999 7.71672 14.8791 7.07922 14.6374 6.48755C14.3957 5.89588 14.0666 5.35838 13.6499 4.87505C13.7832 4.84172 13.9082 4.82088 14.0249 4.81255C14.1416 4.80422 14.2666 4.80005 14.3999 4.80005C15.3999 4.80005 16.2499 5.15005 16.9499 5.85005C17.6499 6.55005 17.9999 7.40005 17.9999 8.40005Z" fill="#1C1B1F"/>
</g>
</svg>
