<svg width="15" height="16" viewBox="0 0 15 16" fill="none" xmlns="http://www.w3.org/2000/svg">
<mask id="mask0_1142_2691" style="mask-type:alpha" maskUnits="userSpaceOnUse" x="0" y="0" width="15" height="16">
<rect y="0.867676" width="15" height="15" fill="#D9D9D9"/>
</mask>
<g mask="url(#mask0_1142_2691)">
<path d="M1.5 12.8677V11.4302C1.5 11.1593 1.5651 10.9119 1.69531 10.688C1.82552 10.464 2.00521 10.2843 2.23438 10.1489C2.79688 9.81559 3.39323 9.56038 4.02344 9.3833C4.65365 9.20622 5.3125 9.11768 6 9.11768C6.6875 9.11768 7.34635 9.20622 7.97656 9.3833C8.60677 9.56038 9.20313 9.81559 9.76563 10.1489C9.99479 10.2843 10.1745 10.464 10.3047 10.688C10.4349 10.9119 10.5 11.1593 10.5 11.4302V12.8677H1.5ZM11.625 12.8677V11.4302C11.625 10.9927 11.5234 10.5864 11.3203 10.2114C11.1172 9.83643 10.8438 9.52913 10.5 9.28955C10.9063 9.37288 11.2995 9.48486 11.6797 9.62549C12.0599 9.76611 12.4219 9.94059 12.7656 10.1489C12.9948 10.2843 13.1745 10.464 13.3047 10.688C13.4349 10.9119 13.5 11.1593 13.5 11.4302V12.8677H11.625ZM6 8.36768C5.375 8.36768 4.84375 8.14893 4.40625 7.71143C3.96875 7.27393 3.75 6.74268 3.75 6.11768C3.75 5.49268 3.96875 4.96143 4.40625 4.52393C4.84375 4.08643 5.375 3.86768 6 3.86768C6.625 3.86768 7.15625 4.08643 7.59375 4.52393C8.03125 4.96143 8.25 5.49268 8.25 6.11768C8.25 6.74268 8.03125 7.27393 7.59375 7.71143C7.15625 8.14893 6.625 8.36768 6 8.36768ZM11.25 6.11768C11.25 6.74268 11.0313 7.27393 10.5938 7.71143C10.1562 8.14893 9.625 8.36768 9 8.36768C8.91667 8.36768 8.83854 8.36507 8.76562 8.35986C8.69271 8.35466 8.61458 8.34163 8.53125 8.3208C8.79167 8.01872 8.9974 7.68278 9.14844 7.31299C9.29948 6.9432 9.375 6.54476 9.375 6.11768C9.375 5.69059 9.29948 5.29215 9.14844 4.92236C8.9974 4.55257 8.79167 4.21663 8.53125 3.91455C8.61458 3.89372 8.69271 3.8807 8.76562 3.87549C8.83854 3.87028 8.91667 3.86768 9 3.86768C9.625 3.86768 10.1562 4.08643 10.5938 4.52393C11.0313 4.96143 11.25 5.49268 11.25 6.11768Z" fill="#1C1B1F"/>
</g>
</svg>
