<svg width="21" height="20" viewBox="0 0 21 20" fill="none" xmlns="http://www.w3.org/2000/svg">
<mask id="mask0_225_3269" style="mask-type:alpha" maskUnits="userSpaceOnUse" x="0" y="0" width="21" height="20">
<rect x="0.867554" width="20" height="20" fill="#D9D9D9"/>
</mask>
<g mask="url(#mask0_225_3269)">
<path d="M10.8675 9.99999C11.3259 9.99999 11.7182 9.8368 12.0446 9.51041C12.371 9.18402 12.5342 8.79166 12.5342 8.33332C12.5342 7.87499 12.371 7.48263 12.0446 7.15624C11.7182 6.82985 11.3259 6.66666 10.8675 6.66666C10.4092 6.66666 10.0168 6.82985 9.69045 7.15624C9.36406 7.48263 9.20087 7.87499 9.20087 8.33332C9.20087 8.79166 9.36406 9.18402 9.69045 9.51041C10.0168 9.8368 10.4092 9.99999 10.8675 9.99999ZM10.8675 18.3333C8.63142 16.4305 6.96128 14.6632 5.85712 13.0312C4.75295 11.3993 4.20087 9.88888 4.20087 8.49999C4.20087 6.41666 4.87101 4.75693 6.21128 3.52082C7.55156 2.28471 9.10364 1.66666 10.8675 1.66666C12.6314 1.66666 14.1835 2.28471 15.5238 3.52082C16.8641 4.75693 17.5342 6.41666 17.5342 8.49999C17.5342 9.88888 16.9821 11.3993 15.8779 13.0312C14.7738 14.6632 13.1036 16.4305 10.8675 18.3333Z" fill="#FFB800"/>
</g>
</svg>
