<svg width="31" height="30" viewBox="0 0 31 30" fill="none" xmlns="http://www.w3.org/2000/svg">
<path d="M28.25 9H27.5V18.0015C27.5 19.6515 26.1605 20.991 24.515 21H9.5V21.75C9.5 22.9905 10.5095 24 11.75 24H22.5005L30.5 30V11.25C30.5 10.0095 29.4905 9 28.25 9Z" fill="white"/>
<path fill-rule="evenodd" clip-rule="evenodd" d="M24.5 15.75C24.5 16.9905 23.4905 18 22.25 18H8.4995L0.5 24V2.25C0.5 1.0095 1.5095 0 2.75 0H22.25C23.4905 0 24.5 1.0095 24.5 2.25V15.75ZM3.731 17.826L3.5 17.85V18L3.731 17.826ZM11.9037 13.847V15.4927H13.4346V13.8853C14.2256 13.7704 14.889 13.477 15.4248 13.005C15.9607 12.5329 16.2286 11.844 16.2286 10.9382C16.2286 10.211 16.0021 9.56992 15.5492 9.01495C15.0963 8.45999 14.4297 8.05493 13.5494 7.79977C12.6053 7.53186 11.9419 7.2767 11.5592 7.0343C11.1765 6.7919 10.9851 6.4602 10.9851 6.03919C10.9851 5.66921 11.1318 5.35984 11.4252 5.11106C11.7187 4.86228 12.1461 4.73789 12.7074 4.73789C13.1922 4.73789 13.5749 4.83995 13.8556 5.04408C14.1363 5.2482 14.3532 5.55439 14.5063 5.96264L15.9224 5.35027C15.731 4.8272 15.428 4.38386 15.0134 4.02026C14.5988 3.65667 14.0725 3.42384 13.4346 3.32177V1.71429H11.9037V3.32177C11.3423 3.38556 10.7937 3.6471 10.2579 4.10638C9.72208 4.56566 9.45416 5.20993 9.45416 6.03919C9.45416 6.72811 9.65829 7.31178 10.0665 7.7902C10.4748 8.26862 11.2275 8.68006 12.3247 9.02452C13.3453 9.35623 13.996 9.65285 14.2766 9.91438C14.5573 10.1759 14.6976 10.5299 14.6976 10.9765C14.6976 11.474 14.5158 11.8408 14.1522 12.0768C13.7886 12.3129 13.3453 12.4309 12.8222 12.4309C12.2099 12.4309 11.7155 12.2714 11.3391 11.9524C10.9628 11.6335 10.6789 11.1678 10.4875 10.5555L9.07143 11.1296C9.30107 11.9205 9.66148 12.5329 10.1527 12.9667C10.6438 13.4005 11.2275 13.6939 11.9037 13.847Z" fill="white"/>
</svg>
