<svg width="15" height="16" viewBox="0 0 15 16" fill="none" xmlns="http://www.w3.org/2000/svg">
<mask id="mask0_1142_2696" style="mask-type:alpha" maskUnits="userSpaceOnUse" x="0" y="0" width="15" height="16">
<rect y="0.867676" width="15" height="15" fill="#D9D9D9"/>
</mask>
<g mask="url(#mask0_1142_2696)">
<path d="M6.96875 12.4927H8.01562V11.7583C8.52604 11.675 8.94792 11.4562 9.28125 11.1021C9.61458 10.7479 9.78125 10.3364 9.78125 9.86768C9.78125 9.39893 9.63802 8.99788 9.35156 8.66455C9.0651 8.33122 8.625 8.05518 8.03125 7.83643C7.39583 7.60726 6.97656 7.41195 6.77344 7.25049C6.57031 7.08903 6.46875 6.87809 6.46875 6.61768C6.46875 6.40934 6.5599 6.23747 6.74219 6.10205C6.92448 5.96663 7.16146 5.89893 7.45312 5.89893C7.74479 5.89893 8 5.96924 8.21875 6.10986C8.4375 6.25049 8.58333 6.44059 8.65625 6.68018L9.57813 6.28955C9.45313 5.9458 9.2526 5.65674 8.97656 5.42236C8.70052 5.18799 8.38021 5.03955 8.01562 4.97705V4.24268H6.98438V4.99268C6.51562 5.09684 6.14062 5.29736 5.85938 5.59424C5.57812 5.89111 5.4375 6.23747 5.4375 6.6333C5.4375 7.10205 5.59635 7.50049 5.91406 7.82861C6.23177 8.15674 6.73438 8.44059 7.42188 8.68018C7.89063 8.84684 8.23177 9.02393 8.44531 9.21143C8.65885 9.39893 8.76562 9.61768 8.76562 9.86768C8.76562 10.1385 8.65625 10.3651 8.4375 10.5474C8.21875 10.7297 7.94792 10.8208 7.625 10.8208C7.28125 10.8208 6.97656 10.7062 6.71094 10.4771C6.44531 10.2479 6.26563 9.95101 6.17188 9.58643L5.20312 9.99268C5.32813 10.4302 5.54687 10.8026 5.85938 11.1099C6.17188 11.4172 6.54167 11.6281 6.96875 11.7427V12.4927ZM7.5 14.3677C6.67708 14.3677 5.90104 14.2114 5.17188 13.8989C4.44271 13.5864 3.80469 13.1567 3.25781 12.6099C2.71094 12.063 2.28125 11.425 1.96875 10.6958C1.65625 9.96663 1.5 9.19059 1.5 8.36768C1.5 7.53434 1.65625 6.7557 1.96875 6.03174C2.28125 5.30778 2.71094 4.67236 3.25781 4.12549C3.80469 3.57861 4.44271 3.14893 5.17188 2.83643C5.90104 2.52393 6.67708 2.36768 7.5 2.36768C8.33333 2.36768 9.11198 2.52393 9.83594 2.83643C10.5599 3.14893 11.1953 3.57861 11.7422 4.12549C12.2891 4.67236 12.7187 5.30778 13.0312 6.03174C13.3438 6.7557 13.5 7.53434 13.5 8.36768C13.5 9.19059 13.3438 9.96663 13.0312 10.6958C12.7187 11.425 12.2891 12.063 11.7422 12.6099C11.1953 13.1567 10.5599 13.5864 9.83594 13.8989C9.11198 14.2114 8.33333 14.3677 7.5 14.3677Z" fill="#1C1B1F"/>
</g>
</svg>
