<svg width="50" height="50" viewBox="0 0 50 50" fill="none" xmlns="http://www.w3.org/2000/svg">
<path d="M23.0417 42.7917H26.7917V39.5833C29.1806 39.2639 31.0972 38.4722 32.5417 37.2083C33.9861 35.9444 34.7083 34.1945 34.7083 31.9584C34.7083 29.9583 34.1389 28.2708 33 26.8958C31.8611 25.5209 29.8333 24.25 26.9167 23.0833C24.4722 22.1389 22.7292 21.2986 21.6875 20.5625C20.6458 19.8264 20.125 18.8333 20.125 17.5833C20.125 16.3611 20.566 15.3958 21.4479 14.6875C22.3299 13.9792 23.5555 13.625 25.125 13.625C26.4028 13.625 27.4722 13.9271 28.3333 14.5312C29.1944 15.1354 29.8889 15.9861 30.4167 17.0833L33.75 15.5833C33.125 14.125 32.2188 12.9375 31.0312 12.0208C29.8438 11.1041 28.4722 10.5694 26.9167 10.4167V7.25H23.1667V10.4167C21.0556 10.7639 19.3958 11.5903 18.1875 12.8958C16.9792 14.2014 16.375 15.7639 16.375 17.5833C16.375 19.5972 16.9826 21.2084 18.1979 22.4167C19.4132 23.625 21.2639 24.7222 23.75 25.7083C26.4861 26.8056 28.3715 27.7917 29.4063 28.6667C30.441 29.5417 30.9584 30.6389 30.9584 31.9584C30.9584 33.3056 30.4271 34.3577 29.3646 35.1146C28.3021 35.8715 26.9861 36.25 25.4167 36.25C23.875 36.25 22.5035 35.8021 21.3021 34.9062C20.1007 34.0104 19.25 32.75 18.75 31.125L15.25 32.375C16.0278 34.3195 17.0451 35.8646 18.3021 37.0104C19.559 38.1563 21.1389 38.9722 23.0417 39.4583V42.7917ZM25 50C21.5695 50 18.3334 49.3438 15.2917 48.0312C12.25 46.7187 9.59723 44.9306 7.33331 42.6667C5.06944 40.4028 3.28125 37.75 1.96875 34.7083C0.65625 31.6666 0 28.4305 0 25C0 21.5417 0.65625 18.2917 1.96875 15.25C3.28125 12.2083 5.06944 9.5625 7.33331 7.3125C9.59723 5.0625 12.25 3.28125 15.2917 1.96875C18.3334 0.65625 21.5695 0 25 0C28.4583 0 31.7083 0.65625 34.75 1.96875C37.7917 3.28125 40.4375 5.0625 42.6875 7.3125C44.9375 9.5625 46.7187 12.2083 48.0312 15.25C49.3438 18.2917 50 21.5417 50 25C50 28.4305 49.3438 31.6666 48.0312 34.7083C46.7187 37.75 44.9375 40.4028 42.6875 42.6667C40.4375 44.9306 37.7917 46.7187 34.75 48.0312C31.7083 49.3438 28.4583 50 25 50Z" fill="#FFB800"/>
<path d="M23.0417 42.7917H26.7917V39.5833C29.1806 39.2639 31.0972 38.4722 32.5417 37.2083C33.9861 35.9444 34.7083 34.1945 34.7083 31.9584C34.7083 29.9583 34.1389 28.2708 33 26.8958C31.8611 25.5209 29.8333 24.25 26.9167 23.0833C24.4722 22.1389 22.7292 21.2986 21.6875 20.5625C20.6458 19.8264 20.125 18.8333 20.125 17.5833C20.125 16.3611 20.566 15.3958 21.4479 14.6875C22.3299 13.9792 23.5555 13.625 25.125 13.625C26.4028 13.625 27.4722 13.9271 28.3333 14.5312C29.1944 15.1354 29.8889 15.9861 30.4167 17.0833L33.75 15.5833C33.125 14.125 32.2188 12.9375 31.0312 12.0208C29.8438 11.1041 28.4722 10.5694 26.9167 10.4167V7.25H23.1667V10.4167C21.0556 10.7639 19.3958 11.5903 18.1875 12.8958C16.9792 14.2014 16.375 15.7639 16.375 17.5833C16.375 19.5972 16.9826 21.2084 18.1979 22.4167C19.4132 23.625 21.2639 24.7222 23.75 25.7083C26.4861 26.8056 28.3715 27.7917 29.4063 28.6667C30.441 29.5417 30.9584 30.6389 30.9584 31.9584C30.9584 33.3056 30.4271 34.3577 29.3646 35.1146C28.3021 35.8715 26.9861 36.25 25.4167 36.25C23.875 36.25 22.5035 35.8021 21.3021 34.9062C20.1007 34.0104 19.25 32.75 18.75 31.125L15.25 32.375C16.0278 34.3195 17.0451 35.8646 18.3021 37.0104C19.559 38.1563 21.1389 38.9722 23.0417 39.4583V42.7917Z" fill="#1C1B1F"/>
</svg>
