<svg width="24" height="24" viewBox="0 0 24 24" fill="none" xmlns="http://www.w3.org/2000/svg">
<mask id="mask0_1089_4907" style="mask-type:alpha" maskUnits="userSpaceOnUse" x="0" y="0" width="24" height="24">
<rect width="24" height="24" fill="#D9D9D9"/>
</mask>
<g mask="url(#mask0_1089_4907)">
<path d="M11.2167 19.1167H12.7167V17.8333C13.6722 17.7056 14.4389 17.3889 15.0167 16.8833C15.5944 16.3778 15.8833 15.6778 15.8833 14.7834C15.8833 13.9833 15.6556 13.3083 15.2 12.7583C14.7444 12.2083 13.9333 11.7 12.7667 11.2333C11.7889 10.8556 11.0917 10.5195 10.675 10.225C10.2583 9.93055 10.05 9.53333 10.05 9.03333C10.05 8.54444 10.2264 8.15833 10.5792 7.875C10.9319 7.59167 11.4222 7.45 12.05 7.45C12.5611 7.45 12.9889 7.57083 13.3333 7.8125C13.6778 8.05417 13.9556 8.39444 14.1667 8.83333L15.5 8.23333C15.25 7.64999 14.8875 7.17499 14.4125 6.80833C13.9375 6.44166 13.3889 6.22778 12.7667 6.16668V4.9H11.2667V6.16668C10.4222 6.30556 9.75833 6.63611 9.275 7.15833C8.79167 7.68054 8.55 8.30554 8.55 9.03333C8.55 9.83889 8.79306 10.4833 9.27918 10.9667C9.76528 11.45 10.5056 11.8889 11.5 12.2833C12.5945 12.7222 13.3486 13.1167 13.7625 13.4667C14.1764 13.8167 14.3834 14.2556 14.3834 14.7834C14.3834 15.3222 14.1709 15.7431 13.7459 16.0459C13.3208 16.3486 12.7944 16.5 12.1667 16.5C11.55 16.5 11.0014 16.3208 10.5208 15.9625C10.0403 15.6042 9.7 15.1 9.5 14.45L8.1 14.95C8.41112 15.7278 8.81806 16.3458 9.32083 16.8042C9.82361 17.2625 10.4556 17.5889 11.2167 17.7833V19.1167ZM12 22C10.6278 22 9.33334 21.7375 8.11668 21.2125C6.90001 20.6875 5.83889 19.9722 4.93333 19.0667C4.02778 18.1611 3.3125 17.1 2.7875 15.8833C2.2625 14.6667 2 13.3722 2 12C2 10.6167 2.2625 9.31667 2.7875 8.1C3.3125 6.88333 4.02778 5.825 4.93333 4.925C5.83889 4.025 6.90001 3.3125 8.11668 2.7875C9.33334 2.2625 10.6278 2 12 2C13.3833 2 14.6833 2.2625 15.9 2.7875C17.1167 3.3125 18.175 4.025 19.075 4.925C19.975 5.825 20.6875 6.88333 21.2125 8.1C21.7375 9.31667 22 10.6167 22 12C22 13.3722 21.7375 14.6667 21.2125 15.8833C20.6875 17.1 19.975 18.1611 19.075 19.0667C18.175 19.9722 17.1167 20.6875 15.9 21.2125C14.6833 21.7375 13.3833 22 12 22Z" fill="#1C1B1F"/>
</g>
</svg>
