<svg width="20" height="20" viewBox="0 0 20 20" fill="none" xmlns="http://www.w3.org/2000/svg">
<mask id="mask0_1089_4901" style="mask-type:alpha" maskUnits="userSpaceOnUse" x="0" y="0" width="20" height="20">
<rect width="20" height="20" fill="#D9D9D9"/>
</mask>
<g mask="url(#mask0_1089_4901)">
<path d="M12.9584 13.9862L13.9723 12.9723L10.7362 9.72231V5.65285H9.34731V10.2779L12.9584 13.9862ZM10.0001 18.3334C8.85657 18.3334 7.77787 18.1147 6.76398 17.6772C5.75009 17.2397 4.86582 16.6436 4.11119 15.889C3.35656 15.1343 2.7605 14.2501 2.323 13.2362C1.8855 12.2223 1.66675 11.1436 1.66675 10.0001C1.66675 8.85657 1.8855 7.77787 2.323 6.76398C2.7605 5.75009 3.35656 4.86583 4.11119 4.11119C4.86582 3.35656 5.75009 2.7605 6.76398 2.323C7.77787 1.8855 8.85657 1.66675 10.0001 1.66675C11.1436 1.66675 12.2223 1.8855 13.2362 2.323C14.2501 2.7605 15.1343 3.35656 15.889 4.11119C16.6436 4.86583 17.2397 5.75009 17.6772 6.76398C18.1147 7.77787 18.3334 8.85657 18.3334 10.0001C18.3334 11.1436 18.1147 12.2223 17.6772 13.2362C17.2397 14.2501 16.6436 15.1343 15.889 15.889C15.1343 16.6436 14.2501 17.2397 13.2362 17.6772C12.2223 18.1147 11.1436 18.3334 10.0001 18.3334ZM10.0001 16.9445C11.9121 16.9445 13.5475 16.2651 14.9063 14.9063C16.2651 13.5475 16.9445 11.9121 16.9445 10.0001C16.9445 8.08804 16.2651 6.45262 14.9063 5.09383C13.5475 3.73503 11.9121 3.05562 10.0001 3.05562C8.08804 3.05562 6.45262 3.73503 5.09383 5.09383C3.73503 6.45262 3.05562 8.08804 3.05562 10.0001C3.05562 11.9121 3.73503 13.5475 5.09383 14.9063C6.45262 16.2651 8.08804 16.9445 10.0001 16.9445Z" fill="#666666"/>
</g>
</svg>
