<svg width="68" height="68" viewBox="0 0 68 68" fill="none" xmlns="http://www.w3.org/2000/svg">
<g filter="url(#filter0_bd_1170_1232)">
<rect x="4" width="60" height="60" rx="30" fill="#1C1B1F" shape-rendering="crispEdges"/>
<path d="M46.75 24H46V33.0015C46 34.6515 44.6605 35.991 43.015 36H28V36.75C28 37.9905 29.0095 39 30.25 39H41.0005L49 45V26.25C49 25.0095 47.9905 24 46.75 24Z" fill="white"/>
<path fill-rule="evenodd" clip-rule="evenodd" d="M43 30.75C43 31.9905 41.9905 33 40.75 33H26.9995L19 39V17.25C19 16.0095 20.0095 15 21.25 15H40.75C41.9905 15 43 16.0095 43 17.25V30.75ZM22.231 32.826L22 32.85V33L22.231 32.826ZM30.4037 28.847V30.4927H31.9346V28.8853C32.7256 28.7704 33.389 28.477 33.9248 28.005C34.4607 27.5329 34.7286 26.844 34.7286 25.9382C34.7286 25.211 34.5021 24.5699 34.0492 24.015C33.5963 23.46 32.9297 23.0549 32.0494 22.7998C31.1053 22.5319 30.4419 22.2767 30.0592 22.0343C29.6765 21.7919 29.4851 21.4602 29.4851 21.0392C29.4851 20.6692 29.6318 20.3598 29.9252 20.1111C30.2187 19.8623 30.6461 19.7379 31.2074 19.7379C31.6922 19.7379 32.0749 19.84 32.3556 20.0441C32.6363 20.2482 32.8532 20.5544 33.0063 20.9626L34.4224 20.3503C34.231 19.8272 33.928 19.3839 33.5134 19.0203C33.0988 18.6567 32.5725 18.4238 31.9346 18.3218V16.7143H30.4037V18.3218C29.8423 18.3856 29.2937 18.6471 28.7579 19.1064C28.2221 19.5657 27.9542 20.2099 27.9542 21.0392C27.9542 21.7281 28.1583 22.3118 28.5665 22.7902C28.9748 23.2686 29.7275 23.6801 30.8247 24.0245C31.8453 24.3562 32.496 24.6528 32.7766 24.9144C33.0573 25.1759 33.1976 25.5299 33.1976 25.9765C33.1976 26.474 33.0158 26.8408 32.6522 27.0768C32.2886 27.3129 31.8453 27.4309 31.3222 27.4309C30.7099 27.4309 30.2155 27.2714 29.8391 26.9524C29.4628 26.6335 29.1789 26.1678 28.9875 25.5555L27.5714 26.1296C27.8011 26.9205 28.1615 27.5329 28.6527 27.9667C29.1438 28.4005 29.7275 28.6939 30.4037 28.847Z" fill="white"/>
</g>
<defs>
<filter id="filter0_bd_1170_1232" x="-6" y="-10" width="80" height="80" filterUnits="userSpaceOnUse" color-interpolation-filters="sRGB">
<feFlood flood-opacity="0" result="BackgroundImageFix"/>
<feGaussianBlur in="BackgroundImageFix" stdDeviation="5"/>
<feComposite in2="SourceAlpha" operator="in" result="effect1_backgroundBlur_1170_1232"/>
<feColorMatrix in="SourceAlpha" type="matrix" values="0 0 0 0 0 0 0 0 0 0 0 0 0 0 0 0 0 0 127 0" result="hardAlpha"/>
<feOffset dy="4"/>
<feGaussianBlur stdDeviation="2"/>
<feComposite in2="hardAlpha" operator="out"/>
<feColorMatrix type="matrix" values="0 0 0 0 0 0 0 0 0 0 0 0 0 0 0 0 0 0 0.25 0"/>
<feBlend mode="normal" in2="effect1_backgroundBlur_1170_1232" result="effect2_dropShadow_1170_1232"/>
<feBlend mode="normal" in="SourceGraphic" in2="effect2_dropShadow_1170_1232" result="shape"/>
</filter>
</defs>
</svg>
