<svg width="68" height="68" viewBox="0 0 68 68" fill="none" xmlns="http://www.w3.org/2000/svg">
<g filter="url(#filter0_bd_1205_2234)">
<rect x="4" width="60" height="60" rx="30" fill="#1C1B1F" shape-rendering="crispEdges"/>
<mask id="mask0_1205_2234" style="mask-type:alpha" maskUnits="userSpaceOnUse" x="19" y="15" width="30" height="30">
<rect x="19" y="15" width="30" height="30" fill="#D9D9D9"/>
</mask>
<g mask="url(#mask0_1205_2234)">
<path d="M24 42.5V35H27.75V42.5H24ZM30.25 42.5V27.625C29.2083 27.9792 28.5312 28.6302 28.2188 29.5781C27.9062 30.526 27.75 31.5 27.75 32.5H25.25C25.25 29.8333 26.0312 27.7083 27.5938 26.125C29.1562 24.5417 31.2917 23.75 34 23.75C36.0833 23.75 37.6458 23.2344 38.6875 22.2031C39.7292 21.1719 40.25 19.6042 40.25 17.5H42.75C42.75 19.3333 42.3594 20.974 41.5781 22.4219C40.7969 23.8698 39.5208 24.8958 37.75 25.5V42.5H35.25V35H32.75V42.5H30.25ZM34 22.5C33.3125 22.5 32.724 22.2552 32.2344 21.7656C31.7448 21.276 31.5 20.6875 31.5 20C31.5 19.3125 31.7448 18.724 32.2344 18.2344C32.724 17.7448 33.3125 17.5 34 17.5C34.6875 17.5 35.276 17.7448 35.7656 18.2344C36.2552 18.724 36.5 19.3125 36.5 20C36.5 20.6875 36.2552 21.276 35.7656 21.7656C35.276 22.2552 34.6875 22.5 34 22.5Z" fill="white"/>
</g>
</g>
<defs>
<filter id="filter0_bd_1205_2234" x="-6" y="-10" width="80" height="80" filterUnits="userSpaceOnUse" color-interpolation-filters="sRGB">
<feFlood flood-opacity="0" result="BackgroundImageFix"/>
<feGaussianBlur in="BackgroundImageFix" stdDeviation="5"/>
<feComposite in2="SourceAlpha" operator="in" result="effect1_backgroundBlur_1205_2234"/>
<feColorMatrix in="SourceAlpha" type="matrix" values="0 0 0 0 0 0 0 0 0 0 0 0 0 0 0 0 0 0 127 0" result="hardAlpha"/>
<feOffset dy="4"/>
<feGaussianBlur stdDeviation="2"/>
<feComposite in2="hardAlpha" operator="out"/>
<feColorMatrix type="matrix" values="0 0 0 0 0 0 0 0 0 0 0 0 0 0 0 0 0 0 0.25 0"/>
<feBlend mode="normal" in2="effect1_backgroundBlur_1205_2234" result="effect2_dropShadow_1205_2234"/>
<feBlend mode="normal" in="SourceGraphic" in2="effect2_dropShadow_1205_2234" result="shape"/>
</filter>
</defs>
</svg>
