<svg width="24" height="24" viewBox="0 0 24 24" fill="none" xmlns="http://www.w3.org/2000/svg">
<mask id="mask0_1089_4957" style="mask-type:alpha" maskUnits="userSpaceOnUse" x="0" y="0" width="24" height="24">
<rect width="24" height="24" fill="#D9D9D9"/>
</mask>
<g mask="url(#mask0_1089_4957)">
<path d="M3.95 19C2.86112 19 1.93056 18.6167 1.15833 17.85C0.386108 17.0833 0 16.15 0 15.05C0 14 0.354167 13.1 1.0625 12.35C1.77083 11.6 2.64445 11.1944 3.68335 11.1333L2.66668 10.3333H0V9H4.51668L7 10.5L10.9833 9H14.3667L12.55 6.66665H10.2V5H13.3667L15.5 7.75L18.7667 6.11667V8.85H16.3667L18.3667 11.45C18.6389 11.3389 18.9125 11.2555 19.1875 11.2C19.4625 11.1445 19.7444 11.1167 20.0333 11.1167C21.1333 11.1167 22.0694 11.5 22.8417 12.2667C23.6139 13.0333 24 13.9667 24 15.0667C24 16.1667 23.6139 17.0972 22.8417 17.8583C22.0694 18.6194 21.1333 19 20.0333 19C18.9444 19 18.0167 18.6167 17.25 17.85C16.4833 17.0833 16.1 16.1556 16.1 15.0667C16.1 14.5833 16.1819 14.1208 16.3458 13.6792C16.5097 13.2375 16.75 12.8333 17.0667 12.4667L16.3167 11.5166L12.75 16.9333H9.91668L7.9 15.1333C7.87222 16.2167 7.47778 17.1319 6.71668 17.8792C5.95556 18.6264 5.03333 19 3.95 19ZM3.95 17.3333C4.58888 17.3333 5.12917 17.1097 5.57085 16.6625C6.01252 16.2153 6.23335 15.6778 6.23335 15.05C6.23335 14.4222 6.01252 13.8847 5.57085 13.4375C5.12917 12.9903 4.58888 12.7666 3.95 12.7666C3.32222 12.7666 2.78472 12.9875 2.3375 13.4291C1.89027 13.8708 1.66665 14.4111 1.66665 15.05C1.66665 15.6889 1.89027 16.2292 2.3375 16.6708C2.78472 17.1125 3.32222 17.3333 3.95 17.3333ZM20.0333 17.3333C20.6722 17.3333 21.2153 17.1125 21.6625 16.6708C22.1097 16.2292 22.3334 15.6945 22.3334 15.0667C22.3334 14.4278 22.1097 13.8847 21.6625 13.4375C21.2153 12.9903 20.6722 12.7666 20.0333 12.7666C19.4056 12.7666 18.8708 12.9903 18.4292 13.4375C17.9875 13.8847 17.7667 14.4278 17.7667 15.0667C17.7667 15.6945 17.9875 16.2292 18.4292 16.6708C18.8708 17.1125 19.4056 17.3333 20.0333 17.3333Z" fill="#1C1B1F"/>
</g>
</svg>
