<svg width="30" height="30" viewBox="0 0 30 30" fill="none" xmlns="http://www.w3.org/2000/svg">
<mask id="mask0_225_3226" style="mask-type:alpha" maskUnits="userSpaceOnUse" x="0" y="0" width="30" height="30">
<rect width="30" height="30" fill="#D9D9D9"/>
</mask>
<g mask="url(#mask0_225_3226)">
<path d="M15.0001 20.0001C16.5626 20.0001 17.8907 19.4532 18.9844 18.3595C20.0782 17.2657 20.6251 15.9376 20.6251 14.3751C20.6251 12.8126 20.0782 11.4845 18.9844 10.3907C17.8907 9.29695 16.5626 8.75008 15.0001 8.75008C13.4376 8.75008 12.1094 9.29695 11.0157 10.3907C9.92194 11.4845 9.37506 12.8126 9.37506 14.3751C9.37506 15.9376 9.92194 17.2657 11.0157 18.3595C12.1094 19.4532 13.4376 20.0001 15.0001 20.0001ZM15.0001 17.7501C14.0626 17.7501 13.2657 17.422 12.6094 16.7657C11.9532 16.1095 11.6251 15.3126 11.6251 14.3751C11.6251 13.4376 11.9532 12.6407 12.6094 11.9845C13.2657 11.3282 14.0626 11.0001 15.0001 11.0001C15.9376 11.0001 16.7344 11.3282 17.3907 11.9845C18.0469 12.6407 18.3751 13.4376 18.3751 14.3751C18.3751 15.3126 18.0469 16.1095 17.3907 16.7657C16.7344 17.422 15.9376 17.7501 15.0001 17.7501ZM15.0001 23.7501C11.9584 23.7501 9.18756 22.9011 6.68756 21.2032C4.18756 19.5053 2.37506 17.2292 1.25006 14.3751C2.37506 11.5209 4.18756 9.24487 6.68756 7.54695C9.18756 5.84903 11.9584 5.00008 15.0001 5.00008C18.0417 5.00008 20.8126 5.84903 23.3126 7.54695C25.8126 9.24487 27.6251 11.5209 28.7501 14.3751C27.6251 17.2292 25.8126 19.5053 23.3126 21.2032C20.8126 22.9011 18.0417 23.7501 15.0001 23.7501Z" fill="white"/>
</g>
</svg>
