<svg width="38" height="38" viewBox="0 0 38 38" fill="none" xmlns="http://www.w3.org/2000/svg">
<g filter="url(#filter0_d_2375_11237)">
<rect x="4" y="2" width="30" height="30" rx="15" fill="#FFB800" shape-rendering="crispEdges"/>
<mask id="mask0_2375_11237" style="mask-type:alpha" maskUnits="userSpaceOnUse" x="9" y="7" width="20" height="20">
<rect x="9" y="7" width="20" height="20" fill="#D9D9D9"/>
</mask>
<g mask="url(#mask0_2375_11237)">
<path d="M12.2917 22.8333C11.3843 22.8333 10.6088 22.5139 9.96527 21.875C9.32176 21.2361 9 20.4583 9 19.5416C9 18.6666 9.29514 17.9166 9.88542 17.2916C10.4757 16.6666 11.2037 16.3287 12.0695 16.2777L11.2222 15.6111H9V14.5H12.7639L14.8333 15.75L18.1528 14.5H20.9722L19.4583 12.5555H17.5V11.1666H20.1389L21.9167 13.4583L24.6389 12.0972V14.375H22.6389L24.3056 16.5416C24.5324 16.449 24.7604 16.3796 24.9896 16.3333C25.2188 16.287 25.4537 16.2639 25.6944 16.2639C26.6111 16.2639 27.3912 16.5833 28.0347 17.2222C28.6782 17.8611 29 18.6389 29 19.5555C29 20.4722 28.6782 21.2476 28.0347 21.8819C27.3912 22.5162 26.6111 22.8333 25.6944 22.8333C24.787 22.8333 24.0139 22.5139 23.375 21.875C22.7361 21.2361 22.4167 20.4629 22.4167 19.5555C22.4167 19.1527 22.485 18.7673 22.6215 18.3993C22.7581 18.0312 22.9583 17.6944 23.2222 17.3889L22.5972 16.5972L19.625 21.1111H17.2639L15.5833 19.6111C15.5602 20.5138 15.2315 21.2766 14.5972 21.8993C13.963 22.522 13.1944 22.8333 12.2917 22.8333ZM12.2917 21.4444C12.8241 21.4444 13.2743 21.2581 13.6424 20.8854C14.0104 20.5127 14.1945 20.0648 14.1945 19.5416C14.1945 19.0185 14.0104 18.5706 13.6424 18.1979C13.2743 17.8252 12.8241 17.6388 12.2917 17.6388C11.7685 17.6388 11.3206 17.8229 10.9479 18.1909C10.5752 18.559 10.3889 19.0092 10.3889 19.5416C10.3889 20.074 10.5752 20.5243 10.9479 20.8923C11.3206 21.2604 11.7685 21.4444 12.2917 21.4444ZM25.6944 21.4444C26.2269 21.4444 26.6794 21.2604 27.0521 20.8923C27.4248 20.5243 27.6111 20.0787 27.6111 19.5555C27.6111 19.0231 27.4248 18.5706 27.0521 18.1979C26.6794 17.8252 26.2269 17.6388 25.6944 17.6388C25.1713 17.6388 24.7257 17.8252 24.3576 18.1979C23.9896 18.5706 23.8055 19.0231 23.8055 19.5555C23.8055 20.0787 23.9896 20.5243 24.3576 20.8923C24.7257 21.2604 25.1713 21.4444 25.6944 21.4444Z" fill="#1C1B1F"/>
</g>
</g>
<defs>
<filter id="filter0_d_2375_11237" x="0" y="0" width="38" height="38" filterUnits="userSpaceOnUse" color-interpolation-filters="sRGB">
<feFlood flood-opacity="0" result="BackgroundImageFix"/>
<feColorMatrix in="SourceAlpha" type="matrix" values="0 0 0 0 0 0 0 0 0 0 0 0 0 0 0 0 0 0 127 0" result="hardAlpha"/>
<feOffset dy="2"/>
<feGaussianBlur stdDeviation="2"/>
<feComposite in2="hardAlpha" operator="out"/>
<feColorMatrix type="matrix" values="0 0 0 0 0 0 0 0 0 0 0 0 0 0 0 0 0 0 0.5 0"/>
<feBlend mode="normal" in2="BackgroundImageFix" result="effect1_dropShadow_2375_11237"/>
<feBlend mode="normal" in="SourceGraphic" in2="effect1_dropShadow_2375_11237" result="shape"/>
</filter>
</defs>
</svg>
