<svg width="38" height="38" viewBox="0 0 38 38" fill="none" xmlns="http://www.w3.org/2000/svg">
<g filter="url(#filter0_d_2375_11213)">
<rect x="4" y="2" width="30" height="30" rx="15" fill="#FFB800" shape-rendering="crispEdges"/>
<mask id="mask0_2375_11213" style="mask-type:alpha" maskUnits="userSpaceOnUse" x="7" y="5" width="24" height="24">
<rect x="8" y="6" width="22" height="22" fill="#1C1B1F" stroke="white" stroke-width="2"/>
</mask>
<g mask="url(#mask0_2375_11213)">
<path d="M13.4444 22.7778V23.8056C13.4444 24.0023 13.3779 24.1673 13.2448 24.3004C13.1117 24.4335 12.9467 24.5 12.75 24.5H12.1944C11.9977 24.5 11.8328 24.4335 11.6996 24.3004C11.5665 24.1673 11.5 24.0023 11.5 23.8056V17.0834L13.2639 11.8611C13.3195 11.6482 13.4405 11.4792 13.6271 11.3542C13.8137 11.2292 14.0213 11.1667 14.25 11.1667H16.7083V9.56946H21.3194V11.1667H23.75C23.9787 11.1667 24.1863 11.2292 24.3729 11.3542C24.5595 11.4792 24.6805 11.6482 24.7361 11.8611L26.5 17.0834V23.8056C26.5 24.0023 26.4335 24.1673 26.3004 24.3004C26.1672 24.4335 26.0023 24.5 25.8056 24.5H25.2361C25.0394 24.5 24.8744 24.4335 24.7413 24.3004C24.6082 24.1673 24.5417 24.0023 24.5417 23.8056V22.7778H13.4444ZM13.4305 15.6945H24.5695L23.5139 12.5556H14.4861L13.4305 15.6945ZM15.0523 20.4167C15.3832 20.4167 15.6609 20.3033 15.8854 20.0764C16.1099 19.8496 16.2222 19.5741 16.2222 19.25C16.2222 18.9182 16.1088 18.6362 15.8819 18.404C15.6551 18.1717 15.3796 18.0556 15.0555 18.0556C14.7238 18.0556 14.4417 18.1714 14.2095 18.403C13.9772 18.6346 13.8611 18.9159 13.8611 19.2467C13.8611 19.5776 13.9769 19.8553 14.2085 20.0799C14.4402 20.3044 14.7214 20.4167 15.0523 20.4167ZM22.9583 20.4167C23.2901 20.4167 23.5721 20.3033 23.8044 20.0764C24.0367 19.8496 24.1528 19.5741 24.1528 19.25C24.1528 18.9182 24.037 18.6362 23.8054 18.404C23.5737 18.1717 23.2925 18.0556 22.9616 18.0556C22.6307 18.0556 22.353 18.1714 22.1285 18.403C21.9039 18.6346 21.7917 18.9159 21.7917 19.2467C21.7917 19.5776 21.9051 19.8553 22.132 20.0799C22.3588 20.3044 22.6343 20.4167 22.9583 20.4167Z" fill="#1C1B1F"/>
</g>
</g>
<defs>
<filter id="filter0_d_2375_11213" x="0" y="0" width="38" height="38" filterUnits="userSpaceOnUse" color-interpolation-filters="sRGB">
<feFlood flood-opacity="0" result="BackgroundImageFix"/>
<feColorMatrix in="SourceAlpha" type="matrix" values="0 0 0 0 0 0 0 0 0 0 0 0 0 0 0 0 0 0 127 0" result="hardAlpha"/>
<feOffset dy="2"/>
<feGaussianBlur stdDeviation="2"/>
<feComposite in2="hardAlpha" operator="out"/>
<feColorMatrix type="matrix" values="0 0 0 0 0 0 0 0 0 0 0 0 0 0 0 0 0 0 0.5 0"/>
<feBlend mode="normal" in2="BackgroundImageFix" result="effect1_dropShadow_2375_11213"/>
<feBlend mode="normal" in="SourceGraphic" in2="effect1_dropShadow_2375_11213" result="shape"/>
</filter>
</defs>
</svg>
