<svg width="28" height="28" viewBox="0 0 28 28" fill="none" xmlns="http://www.w3.org/2000/svg">
<g filter="url(#filter0_f_2281_2243)">
<circle cx="14" cy="14" r="10" fill="#1C1B1F"/>
</g>
<circle cx="14" cy="12" r="10" fill="#1C1B1F"/>
<path d="M13.4424 7H14.4038V8.3046H13.4424V7ZM13.4424 15.6954H14.4038V17H13.4424V15.6954ZM13.9958 8.09195C14.4541 8.09195 14.8546 8.14368 15.1974 8.24713C15.5402 8.35057 15.8159 8.45977 16.0246 8.57471C16.2333 8.68966 16.3599 8.76628 16.4046 8.8046L15.5998 10.1897C15.5402 10.1437 15.4377 10.0766 15.2924 9.98851C15.1508 9.90038 14.9813 9.82184 14.7838 9.75287C14.5901 9.68391 14.387 9.64943 14.1746 9.64943C13.8877 9.64943 13.6548 9.70307 13.476 9.81034C13.3008 9.91379 13.2133 10.069 13.2133 10.2759C13.2133 10.4176 13.2599 10.546 13.353 10.6609C13.4499 10.772 13.5952 10.8793 13.789 10.9828C13.9864 11.0824 14.2361 11.1916 14.5379 11.3103C14.8136 11.4138 15.0726 11.5364 15.3148 11.6782C15.557 11.8199 15.7694 11.9885 15.9519 12.1839C16.1382 12.3755 16.2854 12.5977 16.3935 12.8506C16.5015 13.1034 16.5556 13.3908 16.5556 13.7126C16.5556 14.0958 16.4792 14.4291 16.3264 14.7126C16.1736 14.9923 15.965 15.2241 15.7004 15.408C15.4396 15.592 15.1415 15.728 14.8062 15.8161C14.4746 15.908 14.1299 15.954 13.7722 15.954C13.2654 15.954 12.8109 15.8946 12.4085 15.7759C12.0098 15.6571 11.6875 15.5287 11.4415 15.3908C11.1956 15.2529 11.0484 15.1609 11 15.1149L11.8328 13.6724C11.8775 13.7069 11.9632 13.7625 12.0899 13.8391C12.2203 13.9157 12.3786 13.9962 12.5649 14.0805C12.7512 14.1609 12.9487 14.2299 13.1574 14.2874C13.3698 14.3448 13.5784 14.3736 13.7834 14.3736C14.1262 14.3736 14.3833 14.3065 14.5547 14.1724C14.7261 14.0345 14.8118 13.8544 14.8118 13.6322C14.8118 13.4674 14.7577 13.3199 14.6497 13.1897C14.5416 13.0594 14.3795 12.9368 14.1634 12.8218C13.9473 12.7031 13.6772 12.5785 13.353 12.4483C13.0288 12.3142 12.7252 12.1513 12.442 11.9598C12.1625 11.7682 11.9352 11.5287 11.7601 11.2414C11.585 10.954 11.4974 10.5977 11.4974 10.1724C11.4974 9.74713 11.6129 9.37931 11.844 9.06897C12.0787 8.75479 12.3861 8.51341 12.7662 8.34483C13.1499 8.17624 13.5598 8.09195 13.9958 8.09195Z" fill="#21D504"/>
<defs>
<filter id="filter0_f_2281_2243" x="0" y="0" width="28" height="28" filterUnits="userSpaceOnUse" color-interpolation-filters="sRGB">
<feFlood flood-opacity="0" result="BackgroundImageFix"/>
<feBlend mode="normal" in="SourceGraphic" in2="BackgroundImageFix" result="shape"/>
<feGaussianBlur stdDeviation="2" result="effect1_foregroundBlur_2281_2243"/>
</filter>
</defs>
</svg>
