<svg width="28" height="28" viewBox="0 0 28 28" fill="none" xmlns="http://www.w3.org/2000/svg">
<g filter="url(#filter0_f_2281_2243)">
<circle cx="14" cy="14" r="10" fill="#1C1B1F"/>
</g>
<circle cx="14" cy="12" r="10" fill="#FFB800"/>
<path d="M10 17V14.1669H11.3406V17H10ZM12.6054 17V10.6193C12.1993 10.8048 11.8855 11.0757 11.6642 11.4319C11.4429 11.7881 11.3322 12.2586 11.3322 12.8432H10.5312C10.5312 11.7976 10.8364 10.9924 11.4467 10.4275C12.057 9.86256 12.8868 9.5801 13.9361 9.5801C14.828 9.5801 15.5066 9.40268 15.9718 9.04785C16.4369 8.69302 16.6695 8.0891 16.6695 7.23609H17.4705C17.4705 8.00478 17.2969 8.64735 16.9498 9.16379C16.6027 9.68023 16.0568 10.0328 15.312 10.2216V17H14.511L14.2466 13.8803H13.7352L13.4064 17H12.6054ZM13.9383 8.87184C13.6807 8.87184 13.4602 8.78037 13.2768 8.59742C13.0934 8.41448 13.0017 8.1942 13.0017 7.93659C13.0017 7.67897 13.0932 7.45847 13.2761 7.27508C13.459 7.09169 13.6793 7 13.9369 7C14.1945 7 14.415 7.09147 14.5984 7.27441C14.7818 7.45736 14.8735 7.67763 14.8735 7.93525C14.8735 8.19286 14.782 8.41336 14.5991 8.59675C14.4162 8.78014 14.1959 8.87184 13.9383 8.87184Z" fill="#1C1B1F"/>
<defs>
<filter id="filter0_f_2281_2243" x="0" y="0" width="28" height="28" filterUnits="userSpaceOnUse" color-interpolation-filters="sRGB">
<feFlood flood-opacity="0" result="BackgroundImageFix"/>
<feBlend mode="normal" in="SourceGraphic" in2="BackgroundImageFix" result="shape"/>
<feGaussianBlur stdDeviation="2" result="effect1_foregroundBlur_2281_2243"/>
</filter>
</defs>
</svg>
