<svg width="40" height="40" viewBox="0 0 40 40" fill="none" xmlns="http://www.w3.org/2000/svg">
<mask id="mask0_606_664" style="mask-type:alpha" maskUnits="userSpaceOnUse" x="0" y="0" width="40" height="40">
<rect width="40" height="40" fill="#D9D9D9"/>
</mask>
<g mask="url(#mask0_606_664)">
<path d="M18.2639 39.375V35.7917C14.5046 35.375 11.3171 33.8657 8.70137 31.2639C6.08565 28.662 4.56946 25.4815 4.15279 21.7222H0.569458V18.2222H4.15279C4.56946 14.463 6.08565 11.2732 8.70137 8.65279C11.3171 6.03243 14.5046 4.50465 18.2639 4.06946V0.486124H21.7639V4.06946C25.5046 4.50465 28.6829 6.03243 31.2986 8.65279C33.9143 11.2732 35.4398 14.463 35.875 18.2222H39.4583V21.7222H35.875C35.4398 25.4815 33.9143 28.662 31.2986 31.2639C28.6829 33.8657 25.5046 35.375 21.7639 35.7917V39.375H18.2639ZM20.0417 32.3472C23.4769 32.3472 26.4028 31.1435 28.8195 28.7361C31.2361 26.3287 32.4445 23.3982 32.4445 19.9445C32.4445 16.4907 31.2361 13.5555 28.8195 11.1389C26.4028 8.72221 23.4769 7.51388 20.0417 7.51388C16.588 7.51388 13.6528 8.72221 11.2361 11.1389C8.81942 13.5555 7.61108 16.4907 7.61108 19.9445C7.61108 23.3982 8.81942 26.3287 11.2361 28.7361C13.6528 31.1435 16.588 32.3472 20.0417 32.3472ZM20.0417 27.1111C18.0509 27.1111 16.3588 26.4143 14.9653 25.0208C13.5718 23.6273 12.875 21.9352 12.875 19.9445C12.875 17.9537 13.5718 16.2616 14.9653 14.8681C16.3588 13.4746 18.0509 12.7778 20.0417 12.7778C22.0139 12.7778 23.7014 13.4746 25.1042 14.8681C26.5069 16.2616 27.2083 17.9537 27.2083 19.9445C27.2083 21.9352 26.5069 23.6273 25.1042 25.0208C23.7014 26.4143 22.0139 27.1111 20.0417 27.1111Z" fill="white"/>
</g>
</svg>
