<svg width="60" height="60" viewBox="0 0 60 60" fill="none" xmlns="http://www.w3.org/2000/svg">
<mask id="mask0_606_669" style="mask-type:alpha" maskUnits="userSpaceOnUse" x="10" y="10" width="40" height="40">
<rect x="10" y="10" width="40" height="40" fill="#D9D9D9"/>
</mask>
<g mask="url(#mask0_606_669)">
<path fill-rule="evenodd" clip-rule="evenodd" d="M28.2639 45.7917V49.375H31.7639V45.7917C35.5046 45.375 38.6829 43.8657 41.2986 41.2639C43.9143 38.662 45.4398 35.4815 45.875 31.7222H49.4583V28.2222H45.875C45.4398 24.463 43.9143 21.2732 41.2986 18.6528C38.6829 16.0324 35.5046 14.5047 31.7639 14.0695V10.4861H28.2639V14.0695C24.5046 14.5047 21.3171 16.0324 18.7014 18.6528C16.0857 21.2732 14.5695 24.463 14.1528 28.2222H10.5695V31.7222H14.1528C14.5695 35.4815 16.0857 38.662 18.7014 41.2639C21.3171 43.8657 24.5046 45.375 28.2639 45.7917ZM38.8195 38.7361C36.4028 41.1435 33.4769 42.3472 30.0417 42.3472C26.588 42.3472 23.6528 41.1435 21.2361 38.7361C18.8194 36.3287 17.6111 33.3982 17.6111 29.9445C17.6111 26.4907 18.8194 23.5555 21.2361 21.1389C23.6528 18.7222 26.588 17.5139 30.0417 17.5139C33.4769 17.5139 36.4028 18.7222 38.8195 21.1389C41.2361 23.5555 42.4445 26.4907 42.4445 29.9445C42.4445 33.3982 41.2361 36.3287 38.8195 38.7361Z" fill="#FF0000"/>
</g>
<path d="M28.652 34.8864V34.7798C28.6638 33.6494 28.7822 32.7498 29.0071 32.081C29.232 31.4122 29.5516 30.8706 29.9659 30.4563C30.3802 30.042 30.8774 29.6603 31.4574 29.3111C31.8066 29.098 32.1203 28.8465 32.3984 28.5565C32.6766 28.2605 32.8956 27.9202 33.0554 27.5355C33.2211 27.1508 33.304 26.7247 33.304 26.2571C33.304 25.6771 33.1679 25.174 32.8956 24.7479C32.6233 24.3217 32.2594 23.9933 31.8036 23.7624C31.3479 23.5316 30.8419 23.4162 30.2855 23.4162C29.8002 23.4162 29.3326 23.5168 28.8828 23.718C28.433 23.9193 28.0572 24.2359 27.7553 24.668C27.4535 25.1 27.2789 25.6652 27.2315 26.3636H24.9943C25.0417 25.3575 25.3021 24.4963 25.7756 23.7802C26.255 23.064 26.8853 22.5166 27.6665 22.1378C28.4537 21.759 29.3267 21.5696 30.2855 21.5696C31.3272 21.5696 32.2327 21.7768 33.0021 22.1911C33.7775 22.6054 34.3752 23.1735 34.7955 23.8956C35.2216 24.6177 35.4347 25.4403 35.4347 26.3636C35.4347 27.0147 35.334 27.6036 35.1328 28.1303C34.9375 28.6571 34.6534 29.1276 34.2805 29.5419C33.9136 29.9562 33.4697 30.3232 32.9489 30.6428C32.428 30.9683 32.0108 31.3116 31.6971 31.6726C31.3834 32.0277 31.1555 32.4509 31.0135 32.9421C30.8714 33.4334 30.7945 34.0459 30.7827 34.7798V34.8864H28.652ZM29.7884 40.142C29.3504 40.142 28.9746 39.9852 28.6609 39.6715C28.3472 39.3578 28.1903 38.982 28.1903 38.544C28.1903 38.1061 28.3472 37.7302 28.6609 37.4165C28.9746 37.1029 29.3504 36.946 29.7884 36.946C30.2263 36.946 30.6022 37.1029 30.9158 37.4165C31.2295 37.7302 31.3864 38.1061 31.3864 38.544C31.3864 38.834 31.3124 39.1004 31.1644 39.343C31.0224 39.5857 30.83 39.781 30.5874 39.929C30.3506 40.071 30.0843 40.142 29.7884 40.142Z" fill="#FF0000"/>
</svg>
