<svg width="38" height="38" viewBox="0 0 38 38" fill="none" xmlns="http://www.w3.org/2000/svg">
<g filter="url(#filter0_d_2375_11213)">
<rect x="4" y="2" width="30" height="30" rx="15" fill="#FFB800" shape-rendering="crispEdges"/>
<path d="M13.9999 21.1667C13.4583 21.1667 12.9756 21.0104 12.552 20.6979C12.1284 20.3854 11.8333 19.9861 11.6666 19.5H11.4999C11.0416 19.5 10.6492 19.3368 10.3228 19.0104C9.99645 18.684 9.83325 18.2917 9.83325 17.8333V11.1667C9.83325 10.7083 9.99645 10.316 10.3228 9.98958C10.6492 9.66319 11.0416 9.5 11.4999 9.5H21.5416C21.7916 9.5 22.0277 9.54861 22.2499 9.64583C22.4721 9.74306 22.6666 9.88889 22.8333 10.0833L26.1249 14.0417C26.2499 14.1944 26.3437 14.3576 26.4062 14.5312C26.4687 14.7049 26.4999 14.8889 26.4999 15.0833V16.2917C26.986 16.4583 27.3853 16.7604 27.6978 17.1979C28.0103 17.6354 28.1666 18.125 28.1666 18.6667C28.1666 19.3611 27.9235 19.9514 27.4374 20.4375C26.9513 20.9236 26.361 21.1667 25.6666 21.1667C25.1249 21.1667 24.6353 21.0104 24.1978 20.6979C23.7603 20.3854 23.4583 19.9861 23.2916 19.5H16.3749C16.1805 19.9861 15.8714 20.3854 15.4478 20.6979C15.0242 21.0104 14.5416 21.1667 13.9999 21.1667ZM11.4999 13.6667H14.8333V11.1667H11.4999V13.6667ZM16.4999 17.8333H20.6666V11.1667H16.4999V13.6667H18.9999V15.3333H16.4999V17.8333ZM22.3333 14.5H24.3333L22.3333 12.0833V14.5ZM13.9999 19.5C14.236 19.5 14.4339 19.4201 14.5937 19.2604C14.7534 19.1007 14.8333 18.9028 14.8333 18.6667C14.8333 18.4306 14.7534 18.2326 14.5937 18.0729C14.4339 17.9132 14.236 17.8333 13.9999 17.8333C13.7638 17.8333 13.5659 17.9132 13.4062 18.0729C13.2464 18.2326 13.1666 18.4306 13.1666 18.6667C13.1666 18.9028 13.2464 19.1007 13.4062 19.2604C13.5659 19.4201 13.7638 19.5 13.9999 19.5ZM25.6666 19.5C25.9027 19.5 26.1006 19.4201 26.2603 19.2604C26.4201 19.1007 26.4999 18.9028 26.4999 18.6667C26.4999 18.4306 26.4201 18.2326 26.2603 18.0729C26.1006 17.9132 25.9027 17.8333 25.6666 17.8333C25.4305 17.8333 25.2326 17.9132 25.0728 18.0729C24.9131 18.2326 24.8333 18.4306 24.8333 18.6667C24.8333 18.9028 24.9131 19.1007 25.0728 19.2604C25.2326 19.4201 25.4305 19.5 25.6666 19.5Z" fill="#1C1B1F"/>
</g>
<defs>
<filter id="filter0_d_2375_11213" x="0" y="0" width="38" height="38" filterUnits="userSpaceOnUse" color-interpolation-filters="sRGB">
<feFlood flood-opacity="0" result="BackgroundImageFix"/>
<feColorMatrix in="SourceAlpha" type="matrix" values="0 0 0 0 0 0 0 0 0 0 0 0 0 0 0 0 0 0 127 0" result="hardAlpha"/>
<feOffset dy="2"/>
<feGaussianBlur stdDeviation="2"/>
<feComposite in2="hardAlpha" operator="out"/>
<feColorMatrix type="matrix" values="0 0 0 0 0 0 0 0 0 0 0 0 0 0 0 0 0 0 0.5 0"/>
<feBlend mode="normal" in2="BackgroundImageFix" result="effect1_dropShadow_2375_11213"/>
<feBlend mode="normal" in="SourceGraphic" in2="effect1_dropShadow_2375_11213" result="shape"/>
</filter>
</defs>
</svg>
