<svg width="38" height="38" viewBox="0 0 38 38" fill="none" xmlns="http://www.w3.org/2000/svg">
<g filter="url(#filter0_d_2375_11213)">
<rect x="4" y="2" width="30" height="30" rx="15" fill="#FFB800" shape-rendering="crispEdges"/>
<path d="M14.0002 22.8333C13.3057 22.8333 12.7154 22.5902 12.2293 22.1041C11.7432 21.618 11.5002 21.0277 11.5002 20.3333H9.8335V12.8333C9.8335 12.375 9.99669 11.9826 10.3231 11.6562C10.6495 11.3298 11.0418 11.1666 11.5002 11.1666H23.1668L28.1668 16.1666V20.3333H26.5002C26.5002 21.0277 26.2571 21.618 25.771 22.1041C25.2849 22.5902 24.6946 22.8333 24.0002 22.8333C23.3057 22.8333 22.7154 22.5902 22.2293 22.1041C21.7432 21.618 21.5002 21.0277 21.5002 20.3333H16.5002C16.5002 21.0277 16.2571 21.618 15.771 22.1041C15.2849 22.5902 14.6946 22.8333 14.0002 22.8333ZM21.5002 15.3333H24.8335L22.3335 12.8333H21.5002V15.3333ZM16.5002 15.3333H19.8335V12.8333H16.5002V15.3333ZM11.5002 15.3333H14.8335V12.8333H11.5002V15.3333ZM14.0002 21.375C14.2918 21.375 14.5384 21.2743 14.7397 21.0729C14.9411 20.8715 15.0418 20.625 15.0418 20.3333C15.0418 20.0416 14.9411 19.7951 14.7397 19.5937C14.5384 19.3923 14.2918 19.2916 14.0002 19.2916C13.7085 19.2916 13.462 19.3923 13.2606 19.5937C13.0592 19.7951 12.9585 20.0416 12.9585 20.3333C12.9585 20.625 13.0592 20.8715 13.2606 21.0729C13.462 21.2743 13.7085 21.375 14.0002 21.375ZM24.0002 21.375C24.2918 21.375 24.5384 21.2743 24.7397 21.0729C24.9411 20.8715 25.0418 20.625 25.0418 20.3333C25.0418 20.0416 24.9411 19.7951 24.7397 19.5937C24.5384 19.3923 24.2918 19.2916 24.0002 19.2916C23.7085 19.2916 23.462 19.3923 23.2606 19.5937C23.0592 19.7951 22.9585 20.0416 22.9585 20.3333C22.9585 20.625 23.0592 20.8715 23.2606 21.0729C23.462 21.2743 23.7085 21.375 24.0002 21.375Z" fill="#1C1B1F"/>
</g>
<defs>
<filter id="filter0_d_2375_11213" x="0" y="0" width="38" height="38" filterUnits="userSpaceOnUse" color-interpolation-filters="sRGB">
<feFlood flood-opacity="0" result="BackgroundImageFix"/>
<feColorMatrix in="SourceAlpha" type="matrix" values="0 0 0 0 0 0 0 0 0 0 0 0 0 0 0 0 0 0 127 0" result="hardAlpha"/>
<feOffset dy="2"/>
<feGaussianBlur stdDeviation="2"/>
<feComposite in2="hardAlpha" operator="out"/>
<feColorMatrix type="matrix" values="0 0 0 0 0 0 0 0 0 0 0 0 0 0 0 0 0 0 0.5 0"/>
<feBlend mode="normal" in2="BackgroundImageFix" result="effect1_dropShadow_2375_11213"/>
<feBlend mode="normal" in="SourceGraphic" in2="effect1_dropShadow_2375_11213" result="shape"/>
</filter>
</defs>
</svg>
