<svg width="38" height="38" viewBox="0 0 38 38" fill="none" xmlns="http://www.w3.org/2000/svg">
<g filter="url(#filter0_d_2375_11213)">
<rect x="4" y="2" width="30" height="30" rx="15" fill="#FFB800" shape-rendering="crispEdges"/>
<path d="M14.0002 23.6667C13.3057 23.6667 12.7154 23.4237 12.2293 22.9375C11.7432 22.4514 11.5002 21.8612 11.5002 21.1667H9.8335V12C9.8335 11.5417 9.99669 11.1493 10.3231 10.823C10.6495 10.4966 11.0418 10.3334 11.5002 10.3334H23.1668V13.6667H25.6668L28.1668 17V21.1667H26.5002C26.5002 21.8612 26.2571 22.4514 25.771 22.9375C25.2849 23.4237 24.6946 23.6667 24.0002 23.6667C23.3057 23.6667 22.7154 23.4237 22.2293 22.9375C21.7432 22.4514 21.5002 21.8612 21.5002 21.1667H16.5002C16.5002 21.8612 16.2571 22.4514 15.771 22.9375C15.2849 23.4237 14.6946 23.6667 14.0002 23.6667ZM14.0002 22C14.2363 22 14.4342 21.9202 14.5939 21.7605C14.7536 21.6007 14.8335 21.4028 14.8335 21.1667C14.8335 20.9306 14.7536 20.7327 14.5939 20.573C14.4342 20.4132 14.2363 20.3334 14.0002 20.3334C13.7641 20.3334 13.5661 20.4132 13.4064 20.573C13.2467 20.7327 13.1668 20.9306 13.1668 21.1667C13.1668 21.4028 13.2467 21.6007 13.4064 21.7605C13.5661 21.9202 13.7641 22 14.0002 22ZM24.0002 22C24.2363 22 24.4342 21.9202 24.5939 21.7605C24.7536 21.6007 24.8335 21.4028 24.8335 21.1667C24.8335 20.9306 24.7536 20.7327 24.5939 20.573C24.4342 20.4132 24.2363 20.3334 24.0002 20.3334C23.764 20.3334 23.5661 20.4132 23.4064 20.573C23.2467 20.7327 23.1668 20.9306 23.1668 21.1667C23.1668 21.4028 23.2467 21.6007 23.4064 21.7605C23.5661 21.9202 23.764 22 24.0002 22ZM23.1668 17.8334H26.7085L24.8335 15.3334H23.1668V17.8334Z" fill="#1C1B1F"/>
</g>
<defs>
<filter id="filter0_d_2375_11213" x="0" y="0" width="38" height="38" filterUnits="userSpaceOnUse" color-interpolation-filters="sRGB">
<feFlood flood-opacity="0" result="BackgroundImageFix"/>
<feColorMatrix in="SourceAlpha" type="matrix" values="0 0 0 0 0 0 0 0 0 0 0 0 0 0 0 0 0 0 127 0" result="hardAlpha"/>
<feOffset dy="2"/>
<feGaussianBlur stdDeviation="2"/>
<feComposite in2="hardAlpha" operator="out"/>
<feColorMatrix type="matrix" values="0 0 0 0 0 0 0 0 0 0 0 0 0 0 0 0 0 0 0.5 0"/>
<feBlend mode="normal" in2="BackgroundImageFix" result="effect1_dropShadow_2375_11213"/>
<feBlend mode="normal" in="SourceGraphic" in2="effect1_dropShadow_2375_11213" result="shape"/>
</filter>
</defs>
</svg>
