<svg width="38" height="38" viewBox="0 0 38 38" fill="none" xmlns="http://www.w3.org/2000/svg">
<g filter="url(#filter0_d_2375_11237)">
<rect x="4" y="2" width="30" height="30" rx="15" fill="#FFB800" shape-rendering="crispEdges"/>
<path d="M14.8334 21.1667C14.139 21.1667 13.5487 20.9236 13.0626 20.4375C12.5765 19.9514 12.3334 19.3611 12.3334 18.6667H10.6667V16.1667C10.6667 15.25 10.9931 14.4653 11.6459 13.8125C12.2987 13.1597 13.0834 12.8333 14.0001 12.8333H17.3334V17H20.2501L23.1667 13.375V11.1667H20.6667V9.5H23.1667C23.6251 9.5 24.0174 9.66319 24.3438 9.98958C24.6702 10.316 24.8334 10.7083 24.8334 11.1667V13.9583L21.0834 18.6667H17.3334C17.3334 19.3611 17.0904 19.9514 16.6042 20.4375C16.1181 20.9236 15.5279 21.1667 14.8334 21.1667ZM14.8334 19.5C15.0695 19.5 15.2674 19.4201 15.4272 19.2604C15.5869 19.1007 15.6667 18.9028 15.6667 18.6667H14.0001C14.0001 18.9028 14.0799 19.1007 14.2397 19.2604C14.3994 19.4201 14.5973 19.5 14.8334 19.5ZM13.1667 12V10.3333H17.3334V12H13.1667ZM24.8334 21.1667C24.139 21.1667 23.5487 20.9236 23.0626 20.4375C22.5765 19.9514 22.3334 19.3611 22.3334 18.6667C22.3334 17.9722 22.5765 17.3819 23.0626 16.8958C23.5487 16.4097 24.139 16.1667 24.8334 16.1667C25.5279 16.1667 26.1181 16.4097 26.6042 16.8958C27.0904 17.3819 27.3334 17.9722 27.3334 18.6667C27.3334 19.3611 27.0904 19.9514 26.6042 20.4375C26.1181 20.9236 25.5279 21.1667 24.8334 21.1667ZM24.8334 19.5C25.0695 19.5 25.2674 19.4201 25.4272 19.2604C25.5869 19.1007 25.6667 18.9028 25.6667 18.6667C25.6667 18.4306 25.5869 18.2326 25.4272 18.0729C25.2674 17.9132 25.0695 17.8333 24.8334 17.8333C24.5973 17.8333 24.3994 17.9132 24.2397 18.0729C24.0799 18.2326 24.0001 18.4306 24.0001 18.6667C24.0001 18.9028 24.0799 19.1007 24.2397 19.2604C24.3994 19.4201 24.5973 19.5 24.8334 19.5ZM19.8334 26.1667L14.8334 23.6667H18.1667V22L23.1667 24.5H19.8334V26.1667Z" fill="#1C1B1F"/>
</g>
<defs>
<filter id="filter0_d_2375_11237" x="0" y="0" width="38" height="38" filterUnits="userSpaceOnUse" color-interpolation-filters="sRGB">
<feFlood flood-opacity="0" result="BackgroundImageFix"/>
<feColorMatrix in="SourceAlpha" type="matrix" values="0 0 0 0 0 0 0 0 0 0 0 0 0 0 0 0 0 0 127 0" result="hardAlpha"/>
<feOffset dy="2"/>
<feGaussianBlur stdDeviation="2"/>
<feComposite in2="hardAlpha" operator="out"/>
<feColorMatrix type="matrix" values="0 0 0 0 0 0 0 0 0 0 0 0 0 0 0 0 0 0 0.5 0"/>
<feBlend mode="normal" in2="BackgroundImageFix" result="effect1_dropShadow_2375_11237"/>
<feBlend mode="normal" in="SourceGraphic" in2="effect1_dropShadow_2375_11237" result="shape"/>
</filter>
</defs>
</svg>
