<svg width="38" height="38" viewBox="0 0 38 38" fill="none" xmlns="http://www.w3.org/2000/svg">
<g filter="url(#filter0_d_2375_11228)">
<rect x="4" y="2" width="30" height="30" rx="15" fill="#FFB800" shape-rendering="crispEdges"/>
<path d="M21.0291 18.7351H21.5417V21.1282H21.0291V18.7351Z" fill="#1C1B1F"/>
<path d="M20.5165 18.0171L22.567 18.2564V18.7351H20.5165V18.0171Z" fill="#1C1B1F"/>
<path fill-rule="evenodd" clip-rule="evenodd" d="M30 21.6068C30 22.9285 28.8525 24 27.4369 24C26.0213 24 24.8738 22.9285 24.8738 21.6068C24.8738 20.2851 26.0213 19.2137 27.4369 19.2137C28.8525 19.2137 30 20.2851 30 21.6068ZM28.462 21.6504C28.462 22.155 28.0239 22.5641 27.4834 22.5641C26.9429 22.5641 26.5047 22.155 26.5047 21.6504C26.5047 21.1457 26.9429 20.7366 27.4834 20.7366C28.0239 20.7366 28.462 21.1457 28.462 21.6504Z" fill="#1C1B1F"/>
<path fill-rule="evenodd" clip-rule="evenodd" d="M8.62743 10.5858C8.20914 10.9764 8 11.4459 8 11.9943V19.9715C8 20.52 8.20914 20.9894 8.62743 21.38C9.04571 21.7705 9.54855 21.9658 10.1359 21.9658H10.3495C10.5631 22.5475 10.9413 23.0253 11.4842 23.3992C12.0271 23.7732 12.6456 23.9601 13.3398 23.9601C14.034 23.9601 14.6525 23.7732 15.1954 23.3992C15.7383 23.0253 16.1343 22.5475 16.3835 21.9658H21.6699L23.704 21.9658L26.0272 17.9103L26.0463 16C26.0463 15.765 25.9555 15.5638 25.7739 15.3964C25.5924 15.229 25.3741 15.1453 25.1192 15.1453H22.9596V16H25.1192V17.6111L23.2405 21.1282H21.5417H21.0291L19.9612 21.1282H17.569V17.3789H11.6738V11.9943L17.1136 11.0813L10.1359 10C9.54855 10 9.04571 10.1953 8.62743 10.5858ZM13.3398 21.9658C13.6424 21.9658 13.896 21.8703 14.1007 21.6791C14.3054 21.488 14.4078 21.2512 14.4078 20.9687C14.4078 20.6861 14.3054 20.4493 14.1007 20.2582C13.896 20.0671 13.6424 19.9715 13.3398 19.9715C13.0372 19.9715 12.7836 20.0671 12.5789 20.2582C12.3742 20.4493 12.2719 20.6861 12.2719 20.9687C12.2719 21.2512 12.3742 21.488 12.5789 21.6791C12.7836 21.8703 13.0372 21.9658 13.3398 21.9658Z" fill="#1C1B1F"/>
<path d="M25.8148 10H23.5567L17.1136 11.0813L23.0049 11.9943C23.3253 11.9943 23.6279 11.9361 23.9127 11.8198C24.1974 11.7035 24.4466 11.529 24.6602 11.2963L25.8148 10Z" fill="#1C1B1F"/>
<path d="M11.6738 11.9943H23.0049L17.1136 11.0813L11.6738 11.9943Z" fill="#1C1B1F"/>
<path d="M23.5567 10H10.1359L17.1136 11.0813L23.5567 10Z" fill="#1C1B1F"/>
</g>
<defs>
<filter id="filter0_d_2375_11228" x="0" y="0" width="38" height="38" filterUnits="userSpaceOnUse" color-interpolation-filters="sRGB">
<feFlood flood-opacity="0" result="BackgroundImageFix"/>
<feColorMatrix in="SourceAlpha" type="matrix" values="0 0 0 0 0 0 0 0 0 0 0 0 0 0 0 0 0 0 127 0" result="hardAlpha"/>
<feOffset dy="2"/>
<feGaussianBlur stdDeviation="2"/>
<feComposite in2="hardAlpha" operator="out"/>
<feColorMatrix type="matrix" values="0 0 0 0 0 0 0 0 0 0 0 0 0 0 0 0 0 0 0.5 0"/>
<feBlend mode="normal" in2="BackgroundImageFix" result="effect1_dropShadow_2375_11228"/>
<feBlend mode="normal" in="SourceGraphic" in2="effect1_dropShadow_2375_11228" result="shape"/>
</filter>
</defs>
</svg>
