<svg width="38" height="38" viewBox="0 0 38 38" fill="none" xmlns="http://www.w3.org/2000/svg">
<g filter="url(#filter0_d_2375_11237)">
<rect x="4" y="2" width="30" height="30" rx="15" fill="#FFB800" shape-rendering="crispEdges"/>
<path d="M22.4001 19.1C22.4001 19.4866 22.0867 19.8 21.7001 19.8C21.3135 19.8 21.0001 19.4866 21.0001 19.1C21.0001 18.7134 21.3135 18.4 21.7001 18.4C22.0867 18.4 22.4001 18.7134 22.4001 19.1Z" fill="#1C1B1F"/>
<path d="M19.2001 16H19.8001L20.0001 18.8H19.2001V16Z" fill="#1C1B1F"/>
<path d="M18.8001 15.6222C18.8001 15.397 18.9959 15.2218 19.2197 15.2467L20.3185 15.3688C20.4788 15.3866 20.6001 15.5221 20.6001 15.6834C20.6001 15.8583 20.4584 16 20.2835 16H19.8001H19.178C18.9693 16 18.8001 15.8309 18.8001 15.6222Z" fill="#1C1B1F"/>
<path fill-rule="evenodd" clip-rule="evenodd" d="M27.2001 19.2C27.2001 20.3046 26.3047 21.2 25.2001 21.2C24.0956 21.2 23.2001 20.3046 23.2001 19.2C23.2001 18.0955 24.0956 17.2 25.2001 17.2C26.3047 17.2 27.2001 18.0955 27.2001 19.2ZM26 19.2364C26 19.6582 25.6581 20 25.2364 20C24.8147 20 24.4728 19.6582 24.4728 19.2364C24.4728 18.8147 24.8147 18.4728 25.2364 18.4728C25.6581 18.4728 26 18.8147 26 19.2364Z" fill="#1C1B1F"/>
<path fill-rule="evenodd" clip-rule="evenodd" d="M24.7066 15.4122C24.7024 15.8645 24.545 16.302 24.2601 16.6533L22.7565 18.5072C22.6761 18.6063 22.5247 18.6058 22.445 18.5062L22.2979 18.3223C22.2405 18.2505 22.2394 18.1488 22.2953 18.0758L23.5795 16.3989C23.8468 16.0499 23.9916 15.6225 23.9916 15.1829V14.6675C23.9916 14.5829 23.923 14.5143 23.8384 14.5143H22.6136C22.444 14.5143 22.3065 14.3768 22.3065 14.2072C22.3065 14.0376 22.444 13.9 22.6136 13.9H23.9916C24.1905 13.9 24.4584 13.8602 24.6001 14C24.7418 14.1399 24.715 14.3179 24.715 14.5143L24.7066 15.4122Z" fill="#1C1B1F"/>
<path d="M20.0001 18.8H19.2001L17.3002 18.8V19.5H20.4454C20.5558 19.5 20.6454 19.4105 20.6454 19.3V19C20.6454 18.8896 20.5558 18.8 20.4454 18.8H20.0001Z" fill="#1C1B1F"/>
<path d="M16.1086 19.7C15.8537 20.5115 15.0957 21.1 14.2001 21.1C13.0956 21.1 12.2001 20.2046 12.2001 19.1C12.2001 17.9955 13.0956 17.1 14.2001 17.1C15.132 17.1 15.9151 17.7374 16.1371 18.6H14.8247C14.678 18.4172 14.4528 18.3 14.2001 18.3C13.7583 18.3 13.4001 18.6582 13.4001 19.1C13.4001 19.5419 13.7583 19.9 14.2001 19.9C14.403 19.9 14.5883 19.8245 14.7293 19.7H16.1086Z" fill="#1C1B1F"/>
<path fill-rule="evenodd" clip-rule="evenodd" d="M16.2117 18.8H14.3501C14.1568 18.8 14.0001 18.9567 14.0001 19.15C14.0001 19.3433 14.1568 19.5 14.3501 19.5H16.4001H17.7001V18.8H17.1001H16.2117Z" fill="#1C1B1F"/>
<path d="M13.2001 16.7C12.8688 16.7 12.6001 16.4314 12.6001 16.1V11.95C12.6001 11.6463 12.8464 11.4 13.1501 11.4C13.4539 11.4 13.7001 11.6463 13.7001 11.95V14.9C13.7001 15.121 13.8792 15.3 14.1001 15.3H15.6001C15.9315 15.3 16.2001 15.5687 16.2001 15.9V16.1C16.2001 16.4314 15.9315 16.7 15.6001 16.7H13.2001Z" fill="#1C1B1F"/>
<path d="M12.2587 9.00889C12.2931 8.78507 12.5056 8.6339 12.7283 8.67484L26.6171 11.2284C26.8301 11.2676 26.9734 11.469 26.9405 11.6831C26.9064 11.9058 26.6953 12.0565 26.4736 12.0165L18.3001 10.542L17.6001 10.4346L12.5795 9.46411C12.3676 9.42317 12.226 9.22215 12.2587 9.00889Z" fill="#1C1B1F"/>
<path d="M18.3001 18.8V10.542L17.6001 10.4346V18.8L18.3001 18.8Z" fill="#1C1B1F"/>
</g>
<defs>
<filter id="filter0_d_2375_11237" x="0" y="0" width="38" height="38" filterUnits="userSpaceOnUse" color-interpolation-filters="sRGB">
<feFlood flood-opacity="0" result="BackgroundImageFix"/>
<feColorMatrix in="SourceAlpha" type="matrix" values="0 0 0 0 0 0 0 0 0 0 0 0 0 0 0 0 0 0 127 0" result="hardAlpha"/>
<feOffset dy="2"/>
<feGaussianBlur stdDeviation="2"/>
<feComposite in2="hardAlpha" operator="out"/>
<feColorMatrix type="matrix" values="0 0 0 0 0 0 0 0 0 0 0 0 0 0 0 0 0 0 0.5 0"/>
<feBlend mode="normal" in2="BackgroundImageFix" result="effect1_dropShadow_2375_11237"/>
<feBlend mode="normal" in="SourceGraphic" in2="effect1_dropShadow_2375_11237" result="shape"/>
</filter>
</defs>
</svg>
