<svg width="250" height="250" viewBox="0 0 250 250" fill="none" xmlns="http://www.w3.org/2000/svg">
<path fill-rule="evenodd" clip-rule="evenodd" d="M122.819 27.0447C126.254 27.0174 130.453 27.1265 132.088 27.2628C133.724 27.4264 136.696 27.8081 138.631 28.108C140.567 28.4351 143.893 29.1167 145.992 29.6347C148.092 30.1527 151.418 31.1887 153.353 31.8975C155.289 32.6063 158.124 33.7241 159.624 34.4057C161.123 35.06 164.068 36.5322 166.167 37.6499C168.266 38.7677 171.51 40.7306 173.392 41.9847C175.273 43.2116 178.272 45.4198 180.071 46.8648C181.87 48.2824 185.06 51.1996 187.186 53.2988C189.286 55.398 192.176 58.5333 193.621 60.2508C195.038 61.9684 197.137 64.6674 198.255 66.2486C199.373 67.8299 200.6 69.6292 200.954 70.2563C201.309 70.9106 201.799 71.4286 202.017 71.4286C202.236 71.4558 201.69 71.7285 200.791 72.0556C199.891 72.3828 198.528 73.0371 197.792 73.4733C197.028 73.9095 195.774 74.7819 194.984 75.4362C194.22 76.0905 193.075 77.1265 192.503 77.7536C191.903 78.4079 191.031 79.4711 190.54 80.1527C190.049 80.8342 189.231 82.2247 188.74 83.2879C188.25 84.3512 187.595 86.3686 187.296 87.7863C186.996 89.2039 186.75 91.1123 186.75 92.012C186.75 92.9117 186.996 94.7655 187.268 96.1014C187.541 97.4373 188.059 99.2912 188.413 100.191C188.795 101.091 189.531 102.508 190.076 103.326C190.622 104.144 191.712 105.507 192.53 106.325C193.321 107.143 195.011 108.533 196.292 109.378C197.574 110.224 199.346 111.205 201.881 112.186L200.109 112.405C199.128 112.514 197.301 112.868 196.02 113.168C194.738 113.495 193.075 114.04 192.339 114.395C191.576 114.749 190.458 115.567 189.858 116.221C189.231 116.848 187.05 119.602 185.005 122.328C182.961 125.082 181.052 127.454 180.752 127.59C180.371 127.781 177.726 127.508 171.265 126.636C166.358 125.954 161.123 125.218 159.624 125C158.124 124.782 156.461 124.373 155.943 124.1C155.425 123.8 153.708 122.819 152.127 121.865C150.545 120.911 149.209 120.093 149.128 120.065C149.046 120.011 149.836 119.057 150.9 117.966C151.963 116.848 153.381 114.967 154.089 113.795C154.798 112.623 155.698 110.796 156.08 109.733C156.489 108.67 157.061 106.707 157.361 105.371C157.824 103.217 157.933 101.418 158.261 78.2715L159.487 78.108C160.169 77.9989 161.75 77.6172 163.032 77.2355C164.313 76.8539 166.14 76.1723 167.094 75.7088C168.048 75.2181 169.193 74.4275 169.602 73.964C170.038 73.4733 170.474 72.7372 170.556 72.3282C170.638 71.892 170.638 71.2923 170.556 70.9651C170.474 70.6107 170.065 69.9564 169.629 69.4929C169.22 69.0022 168.348 68.3479 167.666 68.0207C166.985 67.6936 165.649 67.1483 164.667 66.8212C163.686 66.5213 161.859 66.0033 160.578 65.7306C159.297 65.4308 158.451 65.1854 158.67 65.1854C158.997 65.1581 159.051 64.7764 158.997 63.0316C158.942 61.8866 158.969 57.9607 159.215 47.7099L160.496 48.3915C161.232 48.7732 162.077 49.0731 162.432 49.0731C162.786 49.0731 163.359 48.7732 163.713 48.3915C164.122 47.9826 164.395 47.41 164.395 46.9738C164.368 46.4286 164.068 45.9378 163.277 45.2563C162.677 44.7383 160.687 42.8299 158.86 41.0033C157.034 39.1767 154.607 37.1047 153.49 36.3686C152.372 35.6598 150.6 34.7056 149.537 34.2694C148.473 33.8332 146.701 33.2334 145.583 32.9335C144.466 32.6609 142.176 32.3337 140.54 32.2519C138.686 32.1429 136.559 32.2246 134.951 32.4427C133.533 32.6336 131.08 33.1516 129.498 33.5878C127.917 34.024 125.273 35.0327 123.637 35.8233C121.974 36.614 118.43 38.6314 115.731 40.349C113.032 42.0393 110.087 43.7841 109.188 44.2203C108.124 44.711 106.761 45.0654 105.234 45.2563C103.953 45.3926 102.672 45.6107 102.372 45.6925C102.072 45.8015 101.609 46.0742 101.336 46.3195C101.036 46.5921 100.845 47.1374 100.872 47.7917C100.872 48.5551 101.036 48.9368 101.609 49.373C102.29 49.891 102.617 49.9455 104.689 49.8092C105.971 49.7546 107.77 49.4275 108.697 49.1003C109.651 48.8004 111.559 47.9826 112.923 47.301C114.313 46.6194 115.458 46.0742 115.458 46.0742C115.458 46.0742 115.485 46.5922 115.513 47.2465C115.54 47.8735 115.594 49.8637 115.622 51.663C115.649 53.5714 115.54 55.6161 115.322 56.5703C115.131 57.47 114.94 59.3784 114.94 60.7961C114.913 62.2137 114.967 63.9586 115.185 65.9215L113.141 66.0851C112.023 66.1941 110.605 66.3304 110.005 66.4122C108.942 66.5758 108.806 66.494 102.372 61.3141L102.236 78.7895L100.791 79.4438C100.027 79.8255 98.7732 80.6434 98.0371 81.2977C97.2192 82.0338 96.4013 83.1243 95.8561 84.2421C95.0927 85.8506 95.0109 86.2323 95.0109 88.6041C95.0109 90.976 95.0927 91.3577 95.8833 92.9662C96.4286 94.1385 97.2737 95.229 98.337 96.2105C99.2094 97.0284 100.518 97.9553 101.281 98.2824C102.017 98.6096 103.026 98.964 103.462 99.0731C103.899 99.1821 104.362 99.4275 104.471 99.5911C104.58 99.7819 104.689 100.409 104.689 101.009C104.689 101.609 104.88 103.162 105.098 104.498C105.316 105.807 105.889 107.879 106.38 109.133C106.843 110.36 107.715 112.159 108.288 113.141C108.86 114.122 109.297 115.049 109.242 115.185C109.16 115.349 107.415 116.194 105.344 117.067C103.244 117.966 99.1549 119.766 90.9215 123.473L88.0862 126.418C86.5322 128.026 85.0327 129.744 84.7601 130.18C84.4602 130.616 84.2421 131.325 84.2421 131.761C84.2421 132.415 84.0513 132.552 82.6609 133.07C81.8157 133.37 78.4079 134.542 75.1091 135.66C71.8103 136.75 69.0022 137.677 68.8386 137.677C68.675 137.677 69.0567 137.35 69.6565 136.941C70.2563 136.559 71.5922 135.523 72.6554 134.651C73.7187 133.806 75.2454 132.443 76.0905 131.652C76.9357 130.834 78.1898 129.498 78.8441 128.68C79.4984 127.863 80.5889 126.336 81.2705 125.273C81.952 124.209 83.0153 122.437 83.6151 121.32C84.2421 120.202 85.2236 117.803 85.8233 116.003C86.4231 114.204 87.1865 111.205 87.4864 109.324C87.7863 107.443 88.0589 104.689 88.0589 103.19C88.0589 101.69 87.9499 99.1821 87.7863 97.6009C87.65 96.0196 87.2138 93.5387 86.8321 92.0938C86.4504 90.6216 85.7416 88.4133 85.2508 87.1865C84.7601 85.9324 83.6423 83.6968 82.7427 82.1974C81.8702 80.6979 80.6162 78.735 79.9346 77.8353C79.253 76.9357 78.217 75.7088 76.5813 74.0185L77.9444 72.8735C79.144 71.8648 79.2803 71.6467 78.9804 71.265C78.6805 70.8561 78.735 70.8561 79.4711 71.1832C79.9073 71.3741 80.5889 71.7557 80.9706 72.0284C81.3522 72.301 81.8702 72.5464 82.1156 72.5191C82.3882 72.5191 82.7699 72.6827 82.9335 72.9008C83.1243 73.0916 83.6696 73.2552 84.1331 73.2279C84.5965 73.2279 85.169 73.0371 85.4144 72.8735C85.7143 72.6554 85.9324 72.6281 86.0142 72.7917C86.096 72.9553 85.9597 73.0643 85.7416 73.0643C85.5235 73.0643 85.3326 73.2007 85.3326 73.337C85.3326 73.5005 85.5235 73.6096 85.7416 73.6096C86.0142 73.6096 86.0869 73.7732 85.9597 74.1003C85.8506 74.4002 86.0142 74.3184 86.3959 73.8822C86.723 73.5005 86.9957 73.0098 86.9684 72.7917C86.9684 72.4373 86.9957 72.4373 87.2138 72.7917C87.3773 73.0916 87.6227 72.8462 88.2497 71.7012C88.686 70.8833 89.313 69.3566 89.6401 68.2934C89.94 67.2301 90.2672 65.5943 90.3217 64.6129C90.4035 63.6314 90.3217 61.9139 90.1854 60.7961C90.0491 59.6783 89.7492 58.1516 89.5038 57.3882C89.2585 56.6521 88.7677 55.4253 88.3861 54.6619C88.0044 53.9258 87.241 52.699 86.6958 51.9357C86.1505 51.1996 85.2236 50.1636 83.5605 48.7459L84.024 47.819C84.2966 47.301 84.5147 46.4013 84.5147 45.8015C84.5147 45.1745 84.2966 44.3839 83.9695 43.8931C83.6696 43.4569 83.0425 42.8844 82.6063 42.6663C82.1701 42.4482 81.3522 42.2574 80.8343 42.2574C80.3163 42.2574 79.4984 42.4482 79.0622 42.6663C78.626 42.8844 77.9444 43.566 77.5627 44.1658C76.9629 45.12 76.7994 45.229 76.1178 45.0654C75.7088 44.9564 74.0186 44.8746 69.2748 44.8473L70.0109 44.2475C70.4199 43.8931 72.0829 42.7208 73.7459 41.6031C75.409 40.4853 78.3533 38.7132 80.289 37.6499C82.2247 36.5867 85.2508 35.1145 86.9684 34.3784C88.6859 33.6423 91.5213 32.5245 93.2388 31.9248C94.9564 31.2977 97.7099 30.4526 99.373 30.0164C101.036 29.5802 103.599 28.9804 105.098 28.6805C106.598 28.3806 109.433 27.9444 111.369 27.699C113.304 27.4537 115.294 27.2355 115.731 27.181C116.167 27.1265 119.384 27.0447 122.819 27.0447ZM42.6663 41.8212C44.0022 41.8212 44.6292 41.8484 44.0295 41.9029C43.4297 41.9575 42.3119 41.9575 41.5758 41.9029C40.8124 41.8484 41.3304 41.8212 42.6663 41.8212ZM58.9422 59.9782C59.1058 59.9782 59.3239 60.3871 59.4602 60.8779C59.5693 61.3413 60.0327 62.0502 60.4689 62.4318C60.9051 62.8135 61.3413 63.4133 61.4777 63.795C61.5867 64.1767 61.8866 64.6401 62.132 64.8582C62.3773 65.0491 62.1865 64.9945 61.7503 64.7219C61.3141 64.4766 59.8692 63.9858 56.1614 63.1134L57.3882 61.5594C58.0698 60.687 58.7514 59.9782 58.9422 59.9782ZM47.7099 62.2683C49.5911 62.2683 50.3272 62.2955 49.3457 62.3501C48.3642 62.4046 46.8375 62.4046 45.9379 62.3501C45.0382 62.2955 45.8288 62.2683 47.7099 62.2683ZM141.767 63.904C143.348 63.904 143.948 63.9313 143.13 63.9858C142.312 64.0404 141.003 64.0404 140.267 63.9858C139.504 63.9313 140.185 63.904 141.767 63.904ZM210.878 70.1745C212.377 70.1745 213.059 70.2018 212.377 70.2563C211.696 70.3108 210.469 70.3108 209.651 70.2563C208.833 70.2018 209.378 70.1745 210.878 70.1745ZM7.1974 72.1101C7.52455 72.7099 7.96076 73.1734 8.12433 73.1461C8.31517 73.0916 8.39696 73.2007 8.31517 73.337C8.23339 73.5005 8.34244 73.6096 8.53328 73.6369C8.69685 73.6369 9.56926 73.6914 10.4417 73.7732C11.7776 73.855 11.9957 73.8277 12.0229 73.4188C12.0229 73.1461 12.0774 73.0916 12.1592 73.2824C12.2138 73.446 12.4319 73.6096 12.6227 73.6096C12.7863 73.6096 13.6314 73.1461 14.4493 72.6009C15.2672 72.0284 15.867 71.7012 15.7852 71.8375C15.6761 72.0011 14.2857 73.0098 12.7045 74.1003C11.1232 75.1636 9.70558 76.0633 9.542 76.0633C9.40569 76.0633 8.64233 75.0545 7.90623 73.8277C7.14287 72.5736 6.54309 71.4558 6.54309 71.2923C6.54309 71.1559 6.84298 71.5104 7.1974 72.1101ZM21.4558 72.2465C21.5104 72.2465 21.5376 72.2737 21.5376 72.3282C21.5376 72.3555 20.5289 73.3642 17.0393 76.7448L19.2203 74.5093C20.4199 73.2552 21.4286 72.2465 21.4558 72.2465ZM114.64 73.0643C114.858 73.0643 115.622 73.3642 116.358 73.7187C117.067 74.0731 119.302 74.9455 121.32 75.627C123.337 76.3086 126.854 77.2356 129.089 77.6718C131.352 78.108 134.597 78.626 136.314 78.7895C138.032 78.9804 142.775 79.144 154.171 79.1985L154.308 98.1461L153.571 98.7187C153.135 99.0185 152.345 99.373 151.799 99.5365C151.227 99.6729 150.436 99.7001 150.027 99.6183C149.591 99.5093 148.91 99.2639 148.446 99.0458C148.01 98.8004 147.11 98.1189 146.456 97.4918C145.393 96.4831 145.12 96.3468 143.457 96.1832C142.448 96.0742 139.722 95.9924 137.405 95.9924C135.087 95.9651 131.216 96.0469 124.509 96.3741L123.119 97.6827C122.356 98.3915 121.292 99.1276 120.774 99.2912C120.256 99.4548 119.193 99.5365 118.402 99.482C117.557 99.4002 116.712 99.1549 116.221 98.8004C115.812 98.5005 115.185 97.819 114.204 96.3741L114.231 84.7328C114.231 74.5365 114.286 73.0643 114.64 73.0643ZM105.234 81.843C105.916 81.8975 106.788 82.1429 107.961 82.879V89.0131C107.961 93.6478 107.879 95.2018 107.634 95.3381C107.443 95.4199 106.598 95.5562 105.78 95.638C104.662 95.7197 103.98 95.638 103.053 95.229C102.372 94.9291 101.472 94.3839 101.009 94.0022C100.573 93.6478 99.8637 92.6663 99.4275 91.8484C98.8822 90.7852 98.6914 89.9673 98.6914 88.8768C98.6914 88.0589 98.8822 86.8321 99.1003 86.1505C99.3457 85.4689 99.9182 84.5147 100.409 83.9967C100.9 83.506 101.908 82.7972 102.645 82.4155C103.626 81.952 104.362 81.7884 105.234 81.843ZM237.296 89.422C237.35 89.5038 237.459 90.4853 237.541 91.6031C237.623 92.7208 237.568 94.4929 237.432 95.5562C237.241 96.783 236.996 97.6009 236.696 97.819C236.341 98.0643 236.314 98.2279 236.559 98.3642C236.805 98.5005 236.805 98.7459 236.478 99.373C236.232 99.8092 236.014 100.436 235.96 100.736C235.932 101.036 235.878 101.363 235.851 101.499C235.851 101.609 235.714 101.636 235.551 101.554C235.414 101.472 235.115 101.636 234.951 101.881C234.651 102.263 234.678 102.317 235.087 102.154C235.387 102.017 235.551 102.099 235.551 102.372C235.551 102.59 235.36 102.835 235.142 102.917C234.924 102.999 234.787 103.19 234.869 103.326C234.951 103.49 234.896 103.653 234.733 103.735C234.597 103.817 234.46 103.762 234.46 103.599C234.46 103.462 234.269 103.381 234.051 103.462C233.833 103.544 233.588 103.49 233.506 103.326C233.424 103.162 233.206 103.19 232.961 103.408C232.715 103.571 232.525 103.817 232.552 103.953C232.552 104.062 232.824 104.089 233.179 104.008C233.506 103.953 233.969 104.008 234.188 104.144C234.515 104.362 234.487 104.417 234.051 104.417C233.615 104.417 233.561 104.471 233.833 104.744C234.069 104.98 234.097 105.216 233.915 105.453C233.751 105.616 233.424 105.698 233.179 105.616C232.77 105.453 232.743 105.507 233.015 105.807C233.179 106.025 233.261 106.407 233.206 106.679C233.152 106.925 232.988 107.143 232.824 107.143C232.688 107.143 232.361 107.088 232.143 107.007C231.925 106.925 231.788 106.679 231.87 106.461C231.952 106.243 231.898 106.052 231.734 106.052C231.598 106.052 231.461 106.216 231.434 106.407C231.434 106.679 231.407 106.679 231.298 106.407C231.216 106.134 231.052 106.134 230.534 106.407C230.18 106.57 229.744 107.061 229.58 107.497C229.308 108.179 229.335 108.233 229.853 108.179C230.18 108.124 230.48 108.233 230.562 108.37C230.616 108.533 230.453 108.888 230.234 109.188C229.935 109.569 229.744 109.624 229.662 109.406C229.607 109.215 229.444 109.106 229.28 109.188C229.144 109.269 229.089 109.542 229.226 109.787C229.362 110.115 229.308 110.196 229.008 110.087C228.79 110.005 228.381 110.06 228.135 110.169C227.808 110.333 227.699 110.305 227.781 110.142C227.863 110.005 227.835 109.869 227.726 109.869C227.59 109.869 227.208 110.115 226.827 110.414C226.445 110.742 226.118 110.878 226.091 110.714C226.036 110.523 225.791 110.551 225.409 110.796C225.055 111.014 224.237 111.26 223.555 111.341C222.874 111.423 221.728 111.559 219.602 111.805L221.51 110.823C222.574 110.305 223.855 109.542 224.373 109.16C224.891 108.806 225.872 107.961 226.554 107.334C227.236 106.679 228.217 105.616 228.762 104.962C229.335 104.28 230.207 102.944 230.752 101.963C231.27 100.981 231.952 99.3457 232.252 98.2824C232.552 97.2192 232.988 95.3381 233.206 94.0567C233.451 92.7754 233.642 91.7121 233.642 91.6848C233.642 91.6303 233.806 91.6303 233.997 91.6848C234.16 91.7121 234.297 91.5758 234.269 91.4122C234.215 91.1941 234.378 91.1123 234.733 91.1941C235.033 91.2759 235.442 91.2486 235.633 91.1396C235.796 91.0305 236.096 90.9215 236.232 90.8942C236.396 90.8942 236.668 90.8397 236.859 90.8397C237.023 90.8124 237.159 90.6216 237.159 90.458C237.132 90.2672 237.132 89.9128 237.159 89.6947C237.159 89.4766 237.214 89.3402 237.296 89.422ZM230.862 107.143C231.27 107.143 231.788 107.279 232.007 107.415C232.334 107.634 232.306 107.688 231.816 107.688C231.325 107.688 231.243 107.797 231.407 108.124C231.543 108.451 231.489 108.533 231.134 108.397C230.862 108.315 230.698 108.124 230.78 107.961C230.862 107.797 230.671 107.688 230.371 107.688C230.071 107.688 229.88 107.579 229.962 107.415C230.071 107.252 230.453 107.143 230.862 107.143ZM230.834 114.313C234.297 114.368 234.787 114.422 235.469 114.94C235.878 115.267 236.478 115.921 236.75 116.439C237.105 117.039 237.268 117.83 237.241 118.73C237.214 119.684 237.023 120.365 236.587 120.992C236.232 121.483 235.414 122.137 234.733 122.492C233.533 123.092 233.342 123.092 220.965 123.146C214.068 123.173 207.961 123.201 207.415 123.201C206.598 123.228 206.161 123.446 205.371 124.264C204.798 124.836 202.999 127.072 201.363 129.226C199.7 131.407 197.274 134.597 195.911 136.314C194.575 138.032 192.912 140.049 192.23 140.785C191.549 141.494 190.431 142.366 189.749 142.666C188.74 143.157 188.004 143.239 185.523 143.239C182.552 143.212 182.497 143.212 172.165 139.586H149.4L148.991 140.213C148.637 140.731 148.582 142.366 148.582 161.123H95.9651V154.389C95.9651 149.537 95.8561 146.919 95.5562 145.174C95.3108 143.811 94.8201 141.739 94.4384 140.54C94.0295 139.34 93.2661 137.432 92.6936 136.314C92.1211 135.196 91.0851 133.506 90.4035 132.579C89.7219 131.625 89.1494 130.78 89.1494 130.671C89.1222 130.534 89.9673 129.58 90.976 128.517C92.7481 126.69 93.0207 126.527 97.0556 124.755C99.373 123.746 102.208 122.492 103.326 122.001C104.444 121.51 106.243 120.72 109.188 119.411L109.869 120.202C110.251 120.611 112.077 122.737 113.959 124.891C115.812 127.045 119.248 131.025 121.565 133.724C123.882 136.423 126.581 139.531 127.563 140.649C128.544 141.739 129.662 142.775 130.044 142.884C130.534 143.075 130.943 143.021 131.57 142.666C132.034 142.394 133.397 141.085 134.569 139.722C135.769 138.386 137.868 135.987 139.286 134.406C140.703 132.824 143.348 129.907 145.147 127.917C146.974 125.927 148.582 124.291 148.719 124.318C148.882 124.318 150.463 125.191 152.263 126.254C155.425 128.135 155.643 128.217 158.261 128.571C159.76 128.762 164.667 129.444 169.166 130.071C173.664 130.698 178.381 131.27 179.662 131.325C181.761 131.434 182.061 131.407 182.933 130.807C183.451 130.453 184.351 129.553 184.924 128.817C185.496 128.053 187.241 125.682 188.795 123.501C190.349 121.32 192.148 119.029 192.803 118.402C193.457 117.775 194.52 117.039 195.202 116.794C196.129 116.467 198.064 116.303 203.381 116.112C207.197 116.003 212.241 115.758 214.558 115.567C216.876 115.403 220.638 115.049 222.874 114.776C225.382 114.449 228.435 114.286 230.834 114.313ZM117.012 121.701C117.666 122.11 119.139 122.928 120.311 123.501C121.456 124.1 123.473 124.918 124.809 125.3C126.527 125.791 128.108 126.036 130.589 126.145C132.743 126.254 134.815 126.2 136.178 125.981C137.377 125.791 139.149 125.382 140.131 125.082C141.112 124.782 142.23 124.346 142.666 124.155C143.075 123.937 143.402 123.855 143.402 123.991C143.375 124.1 142.503 125.218 141.439 126.499C140.349 127.781 138.55 129.853 137.432 131.134C136.287 132.415 134.787 134.079 134.079 134.815C133.37 135.578 132.47 136.641 132.034 137.186C131.625 137.732 131.08 138.277 130.862 138.359C130.643 138.441 130.344 138.359 130.18 138.141C130.044 137.923 127.944 135.442 125.545 132.606C123.146 129.798 120.065 126.172 118.73 124.591C117.366 123.01 116.167 121.565 116.058 121.347C115.949 121.129 116.385 121.292 117.012 121.701ZM207.879 126.772H210.878L210.796 129.853C210.742 131.516 210.414 134.76 210.06 136.996C209.706 139.258 209.024 142.694 208.561 144.629C208.097 146.565 207.034 150.245 206.189 152.808C205.371 155.371 204.58 157.579 204.471 157.715C204.362 157.852 204.062 158.533 203.326 160.442L198.228 155.534C195.447 152.835 192.23 149.727 189.068 146.701L189.886 146.401C190.349 146.238 191.249 145.829 191.903 145.502C192.557 145.174 193.648 144.411 194.329 143.811C195.011 143.212 196.728 141.221 198.173 139.422C199.618 137.595 202.372 133.997 204.335 131.434L207.879 126.772ZM87.5954 135.251C87.7045 135.251 88.0862 135.687 88.4678 136.26C88.8223 136.805 89.5584 138.304 90.1036 139.586C90.6216 140.867 91.2759 143.075 91.5758 144.493C92.012 146.51 92.0393 147.165 91.7939 147.437C91.6031 147.628 91.1669 147.846 90.7852 147.928C90.4035 148.01 88.7677 148.473 87.1047 148.991C85.4689 149.482 80.3708 151.063 75.7906 152.481C69.3293 154.498 66.9575 155.125 65.1581 155.262C63.6859 155.398 62.2955 155.344 61.3413 155.153C60.5235 154.962 57.6881 153.871 55.0709 152.699C52.4537 151.527 48.7459 149.864 46.8375 149.019C44.9019 148.173 43.2661 147.492 43.1571 147.492C43.0207 147.492 42.5027 147.246 41.9847 146.919C41.2214 146.456 41.1123 146.32 41.4395 146.101C41.7939 145.883 41.7939 145.802 41.385 145.583C40.9488 145.338 40.9488 145.256 41.3032 144.902C41.5485 144.657 41.6576 144.275 41.5485 143.893C41.385 143.321 41.4122 143.293 41.8212 143.675C42.1483 143.975 42.2846 143.975 42.2846 143.757C42.2574 143.566 42.421 143.484 42.6118 143.593C42.8026 143.675 42.8572 143.648 42.7208 143.511C42.5845 143.375 42.3937 143.266 42.3119 143.239C42.2029 143.239 41.7666 143.13 41.3032 143.021C40.867 142.912 40.5398 142.775 40.6216 142.721C40.7034 142.639 41.494 142.721 42.3937 142.857C43.2934 143.021 45.747 143.13 47.8463 143.157C50.6271 143.157 52.5082 142.993 54.7983 142.585C56.5158 142.257 58.6969 141.767 59.6511 141.467C60.578 141.194 61.6412 140.731 62.0229 140.485C62.4046 140.213 62.8135 140.104 62.9226 140.213C63.0316 140.322 62.9499 140.403 62.7863 140.403C62.5954 140.403 62.4319 140.485 62.4319 140.622C62.4319 140.731 63.1407 141.167 65.5671 142.394L68.157 141.658C69.5747 141.221 74.482 139.64 79.0622 138.086C83.6423 136.559 87.4591 135.278 87.5954 135.251ZM34.2148 140.812C34.5147 140.921 35.1963 141.194 35.7143 141.385C36.2323 141.576 36.9684 141.739 37.3501 141.767C37.7863 141.767 37.8953 141.848 37.7045 141.985C37.4591 142.121 37.3228 143.075 37.2955 144.956C37.2138 147.383 37.2955 147.819 37.7863 148.501C38.0862 148.91 38.8768 149.537 39.5584 149.864C40.2127 150.191 42.7754 151.363 45.2563 152.426C47.7372 153.517 51.1178 155.016 52.7536 155.752C54.4166 156.489 56.7885 157.47 58.0698 157.933C59.7056 158.506 61.096 158.779 62.7045 158.888C63.9858 158.942 65.8942 158.888 66.9302 158.724C67.9935 158.561 68.8931 158.479 68.9749 158.561C69.0567 158.642 68.566 159.242 67.8844 159.896C66.8484 160.905 65.4853 161.641 59.2966 164.422C55.2617 166.221 50.3544 168.43 48.3915 169.329C46.4558 170.202 44.6565 170.938 44.4384 170.938C44.193 170.938 43.566 169.956 42.7754 168.293C42.0665 166.821 40.867 163.931 40.1036 161.887C39.3403 159.815 38.3043 156.734 37.7863 155.071C37.2683 153.381 36.614 151.009 36.3141 149.809C36.0142 148.61 35.4962 146.21 35.1418 144.493C34.7874 142.557 34.3784 141.221 34.1058 140.976C33.7241 140.649 33.7241 140.622 34.2148 140.812ZM181.161 161.26L178.571 161.341C177.154 161.369 175.9 161.314 175.791 161.205C175.682 161.069 176.854 161.041 181.161 161.26ZM162.623 161.232C166.985 161.232 168.811 161.287 166.712 161.314C164.613 161.369 161.069 161.369 158.806 161.341C156.57 161.287 158.288 161.232 162.623 161.232ZM187.159 161.232C189.422 161.232 190.404 161.287 189.34 161.314C188.304 161.369 186.45 161.369 185.251 161.314C184.051 161.287 184.924 161.232 187.159 161.232ZM68.4297 188.768C69.8473 188.768 70.4199 188.795 69.6565 188.85C68.9204 188.904 67.7481 188.904 67.0665 188.85C66.385 188.795 67.012 188.768 68.4297 188.768ZM193.157 188.768C194.656 188.768 195.338 188.795 194.656 188.85C193.975 188.904 192.748 188.904 191.93 188.85C191.112 188.795 191.658 188.768 193.157 188.768ZM175.164 207.47L175.382 208.751C175.491 209.487 175.573 210.333 175.573 211.287H85.6052L85.7688 209.733C85.8506 208.86 85.9597 207.988 86.0415 207.824C86.1232 207.552 95.2835 207.47 175.164 207.47Z" fill="#F57506"/>
<path fill-rule="evenodd" clip-rule="evenodd" d="M138.85 36.5594C139.995 36.5322 142.203 36.7775 143.73 37.1047C145.474 37.4318 147.383 38.0589 148.719 38.6859C149.918 39.2585 151.472 40.1581 152.181 40.6489C152.863 41.1669 154.962 43.0752 156.816 44.8746C158.642 46.7012 159.951 48.0916 159.678 47.9553C159.242 47.7372 159.215 48.1461 159.051 54.3348C158.969 57.9607 158.942 61.8866 159.079 65.2127L157.852 65.0491C157.17 64.9673 154.771 64.6947 152.535 64.4493C149.864 64.1494 146.101 64.0131 141.767 63.9858C138.086 63.9858 133.07 64.1494 130.589 64.313C128.108 64.4766 123.637 64.8582 120.638 65.1581C117.639 65.458 115.158 65.6761 115.104 65.6216C115.076 65.5943 115.022 63.904 114.995 61.8866C114.967 59.5965 115.076 57.5791 115.322 56.5703C115.54 55.5889 115.649 53.6532 115.622 51.663C115.594 49.8637 115.54 47.8735 115.513 47.2465C115.485 46.5922 115.403 46.0742 115.294 46.0742C115.213 46.0742 115.022 46.2377 114.831 46.4286C114.667 46.5922 114.449 46.7012 114.395 46.6194C114.313 46.5376 116.303 45.2017 118.811 43.6478C121.32 42.0938 124.4 40.3217 125.682 39.7492C126.963 39.1494 128.98 38.3588 130.18 37.9771C131.379 37.5954 133.342 37.132 134.542 36.9411C135.742 36.7503 137.677 36.5867 138.822 36.5594H138.85ZM48.2824 37.2683C52.3446 37.3228 56.1069 37.5136 56.8702 37.7045C57.6063 37.8681 58.9695 38.4406 59.8691 38.9313C60.7688 39.4493 62.1592 40.5671 62.9498 41.4122C63.7677 42.2574 64.5583 43.3206 64.7764 43.7568C64.9673 44.2203 65.2944 44.9836 65.4853 45.4744C65.7034 45.9378 65.8124 46.374 65.7306 46.4286C65.6489 46.4831 64.9673 46.9466 64.2312 47.4918C63.4678 48.0371 62.3773 49.0185 61.7775 49.6728C61.1778 50.3544 60.7143 51.0633 60.7688 51.2814C60.8506 51.5812 60.7961 51.5812 60.578 51.2541C60.4417 51.036 60.2508 50.8997 60.1418 50.9815C60.06 51.0633 60.06 51.3086 60.1418 51.5267C60.2508 51.7993 60.6052 51.9084 61.3141 51.8539C61.8593 51.8266 62.5682 51.5812 62.8408 51.3086C63.1134 51.0633 64.2857 50.4089 65.4308 49.8637C66.5758 49.3184 68.2388 48.6641 69.1385 48.4188C70.0382 48.2007 71.6194 47.9826 72.6827 47.9826C73.7459 47.9826 75.2726 48.1461 76.0905 48.3642C76.9084 48.5823 78.2715 49.0458 79.0894 49.4275C79.9891 49.8364 81.4613 50.9269 82.7426 52.0992C84.0785 53.3806 85.3326 54.88 86.096 56.1614C86.7775 57.2792 87.3501 58.2334 87.3773 58.2879C87.3773 58.3152 87.8135 58.3969 88.3315 58.4242C89.0131 58.4515 89.2857 58.3424 89.4493 57.9335C89.6129 57.4427 89.6674 57.4973 89.831 58.2061C89.9128 58.6423 90.1036 59.8146 90.2399 60.7961C90.3762 61.7775 90.4307 63.4133 90.349 64.4766C90.2672 65.5398 89.9673 67.2301 89.6674 68.2933C89.3402 69.3566 88.7132 70.8833 88.277 71.7012C87.6499 72.8462 87.4046 73.0916 87.241 72.7917C87.0229 72.4373 86.9956 72.4373 86.9956 72.7917C87.0229 73.0098 86.7503 73.5005 86.4231 73.8822C86.0414 74.3184 85.8779 74.4002 85.9869 74.1003C86.1141 73.7732 86.0414 73.6096 85.7688 73.6096C85.5507 73.6096 85.3599 73.5005 85.3599 73.337C85.3599 73.1734 85.5507 73.0643 85.7688 73.0643C85.9869 73.0643 86.1232 72.9553 86.0414 72.7917C85.9596 72.6281 85.7415 72.6554 85.4417 72.8735C85.1963 73.0371 84.5965 73.2279 84.0785 73.2824C83.5878 73.3097 83.1788 73.2279 83.1788 73.0643C83.1788 72.9008 82.6881 72.6827 82.0883 72.5191C81.4885 72.3555 80.9433 72.1374 80.8615 71.9738C80.7797 71.8102 80.2072 71.4558 79.5529 71.1559C78.9258 70.8833 76.3631 69.3021 73.855 67.6936C71.3468 66.0851 68.2388 64.0676 66.9302 63.2497C65.6216 62.4318 63.2225 60.9051 61.614 59.8419C60.0327 58.7786 58.1516 57.6063 57.4427 57.1974C56.5158 56.6249 56.2159 56.325 56.3522 55.9706C56.434 55.6979 57.3882 54.3075 60.3871 50.2999L60.2508 48.3915C60.1418 47.0011 59.9237 46.1287 59.3784 45.2017C58.9695 44.4657 58.1243 43.5115 57.47 43.0752C56.843 42.6118 55.6707 42.121 54.8255 41.9575C53.8986 41.7666 50.6543 41.6848 46.2377 41.7666C39.6674 41.8484 39.0676 41.9029 38.0589 42.4209C37.4591 42.7481 36.5594 43.4569 36.0687 44.0022C35.6052 44.5474 35.0055 45.638 34.7873 46.4286C34.5692 47.1919 34.3784 48.2552 34.3784 48.7459C34.3784 49.2094 34.3239 49.6183 34.2421 49.6183C34.1603 49.6183 33.4515 49.1276 32.6609 48.5551C31.8975 47.9553 30.3162 47.0284 29.1985 46.5104C28.0807 45.9651 26.9629 45.5289 26.7448 45.5289C26.4449 45.5289 26.4449 45.4744 26.663 45.3108C26.8266 45.2017 27.2356 44.3021 27.5354 43.2934C27.9444 41.9575 28.2443 41.4395 28.5714 41.4122C28.8441 41.385 29.1439 41.385 29.253 41.4122C29.3893 41.4122 29.4711 41.3304 29.4711 41.1669C29.4711 41.0033 29.7165 41.0305 30.0436 41.2486C30.5071 41.5213 30.6434 41.494 30.916 41.1669C31.1069 40.9487 31.7339 40.5125 32.3337 40.2127C32.9335 39.9128 33.4787 39.6129 33.5605 39.5311C33.6423 39.4493 34.3784 39.0676 35.1963 38.6587C36.0142 38.277 37.241 37.8135 37.9226 37.65C38.6041 37.4864 39.5856 37.3228 40.1036 37.241C40.6216 37.1865 44.3021 37.1865 48.2824 37.2683ZM22.2465 47.7099C22.9826 47.7099 24.2912 47.8462 25.1091 47.9826C25.9269 48.1461 27.2901 48.5551 28.108 48.8822C28.9258 49.2366 30.5344 50.1908 31.6521 51.0087C32.7699 51.8539 34.1876 52.6445 34.7873 52.8081C35.3871 52.9716 36.1232 53.1898 36.4231 53.3261C36.8593 53.5169 36.9139 53.4896 36.6957 53.1625C36.5049 52.8626 36.5049 52.8081 36.7775 52.9716C36.9411 53.0807 37.0502 53.2715 36.9684 53.4351C36.8866 53.5987 36.9411 53.7077 37.1047 53.7077C37.241 53.7077 37.6772 54.2257 38.0589 54.88C38.4133 55.5071 38.7405 56.1887 38.7405 56.3795C38.7405 56.5431 36.614 58.0971 34.024 59.7874C31.4613 61.5049 26.6358 64.6674 23.337 66.8484C20.0382 69.0022 16.3577 71.4013 15.1581 72.1919C13.9586 72.9553 12.8135 73.6096 12.6227 73.6096C12.4591 73.6096 12.241 73.446 12.1865 73.2824C12.1047 73.0916 12.0502 73.1461 12.0502 73.4188C12.0229 73.8277 11.8048 73.855 10.169 73.7459C9.16031 73.6641 8.15158 73.4188 7.93348 73.2279C7.71538 73.0098 7.19738 72.1374 6.78844 71.265C6.3795 70.3653 5.80698 68.675 5.47983 67.4755C5.15267 66.1668 4.93457 64.422 4.93457 63.1134C4.93457 61.9139 5.09815 60.1418 5.28899 59.1603C5.50709 58.1788 5.75245 57.2246 5.83424 57.0611C5.97056 56.8157 6.1614 56.7884 6.48855 56.952C6.76118 57.1156 7.30644 57.1429 7.68811 57.0065C8.06979 56.8975 8.86041 56.2159 9.43293 55.4526C9.97819 54.7165 10.8779 53.626 11.4504 53.0262C11.9956 52.4264 13.0316 51.4177 13.795 50.7906C14.5311 50.1908 15.5943 49.4547 16.1123 49.2094C16.6303 48.9368 17.9117 48.5005 18.9749 48.2279C20.0109 47.9553 21.4831 47.7372 22.2465 47.7099ZM47.6009 62.4591C50.6816 62.4318 53.0534 62.5682 54.6892 62.868C56.0251 63.0862 57.988 63.5224 59.0513 63.795C60.1145 64.0676 62.4318 65.0218 64.2312 65.9215C66.0305 66.7939 68.5387 68.2388 69.8201 69.1112C71.1014 69.9836 72.3555 70.9378 72.6281 71.265C72.9008 71.5649 73.0371 71.6467 72.9008 71.4286C72.7644 71.1287 72.7917 71.0742 73.0371 71.2377C73.2007 71.3468 73.3097 71.5376 73.2279 71.7012C73.1461 71.8648 74.1549 73.0371 75.4362 74.3729C76.7176 75.6816 78.4079 77.5354 79.1985 78.5169C79.9891 79.4984 81.0796 81.0251 81.6249 81.9248C82.1429 82.8244 83.0153 84.4057 83.5333 85.4689C84.0512 86.5322 84.7873 88.3588 85.169 89.5583C85.5507 90.7579 86.0414 92.4209 86.2868 93.2388C86.5049 94.0567 86.8593 95.2835 87.0229 95.9651C87.3228 97.0829 87.3773 97.1374 87.5409 96.5104C87.6499 96.0742 87.7863 96.783 87.8953 98.4188C88.0044 99.8364 88.0862 102.126 88.0862 103.462C88.0862 104.798 87.8135 107.443 87.5136 109.324C87.2137 111.205 86.4504 114.204 85.8506 116.003C85.2508 117.803 84.2693 120.202 83.6423 121.32C83.0425 122.437 81.9793 124.209 81.2977 125.273C80.6161 126.336 79.5256 127.863 78.8713 128.68C78.217 129.498 76.9629 130.834 76.1178 131.652C75.2726 132.443 73.7187 133.806 72.6827 134.651C71.6194 135.496 70.3926 136.45 69.9564 136.778C69.4929 137.077 67.7208 137.977 66.0033 138.74C64.2857 139.504 62.3773 140.376 61.7775 140.676C61.1778 140.949 60.06 141.385 59.3239 141.603C58.5605 141.821 56.5976 142.257 54.9618 142.557C52.8081 142.966 50.8451 143.13 48.0098 143.13C45.8288 143.13 43.6205 143.075 43.1025 142.966C42.5845 142.884 40.7306 142.503 39.0131 142.148C37.2955 141.767 34.8419 141.031 33.5605 140.513C32.2792 139.967 30.2345 138.986 28.9804 138.332C27.7535 137.677 26.0905 136.668 25.2999 136.123C24.5365 135.578 22.9008 134.269 21.7012 133.261C20.5016 132.225 19.2475 131.107 18.9477 130.78C18.6205 130.453 17.7754 129.444 17.0393 128.544C16.3304 127.644 15.1309 125.981 14.3948 124.864C13.6587 123.746 12.5682 121.783 11.9684 120.502C11.3413 119.22 10.4417 117.012 9.95093 115.594C9.4602 114.177 8.83315 111.723 8.53326 110.142C8.23337 108.561 7.90622 106.243 7.79717 104.962C7.71538 103.68 7.7699 101.227 7.93348 99.5093C8.09706 97.7917 8.42421 95.4471 8.64231 94.3293C8.86042 93.2116 9.48746 91.0033 10.0327 89.422C10.5507 87.8408 11.5867 85.3871 12.3501 83.9695C13.0862 82.5518 14.4766 80.3435 15.4308 79.0622C16.385 77.7808 18.4297 75.518 19.9836 74.0185C21.5376 72.5191 23.7732 70.6107 24.9727 69.7383C26.1723 68.8931 28.4351 67.53 30.0164 66.6848C31.5976 65.867 34.1603 64.7492 35.7416 64.2312C37.3228 63.7132 39.5856 63.0862 40.7852 62.868C42.0938 62.6499 44.8473 62.4591 47.6009 62.4591ZM211.178 70.3653C213.277 70.3381 215.131 70.4471 215.267 70.5834C215.403 70.7197 216.521 71.1832 217.721 71.5649C218.92 71.9738 220.393 72.5463 220.992 72.8462C221.592 73.1461 223.01 74.0731 224.128 74.9182C225.245 75.7634 226.854 77.2355 227.672 78.217C228.49 79.1712 229.526 80.4798 229.962 81.0796C230.398 81.7066 231.243 83.1788 231.816 84.3784C232.797 86.3959 232.933 86.5594 233.751 86.614C234.242 86.6412 235.033 86.7503 235.496 86.8321C235.987 86.9138 236.396 87.0774 236.396 87.241C236.396 87.4046 236.532 87.4591 236.668 87.3773C236.832 87.2955 236.968 87.6499 236.968 88.1407C236.996 88.6041 237.05 89.422 237.105 89.9128C237.186 90.458 237.077 90.8124 236.859 90.8397C236.696 90.8397 236.396 90.8942 236.26 90.8942C236.123 90.9215 235.823 91.0305 235.632 91.1396C235.469 91.2486 235.06 91.2759 234.76 91.1941C234.406 91.1123 234.242 91.1941 234.269 91.4122C234.324 91.5758 234.188 91.7121 233.997 91.6848C233.833 91.6303 233.67 91.6303 233.67 91.6848C233.67 91.7121 233.479 92.7753 233.233 94.0567C233.015 95.3381 232.579 97.2192 232.279 98.2824C231.979 99.3457 231.298 100.981 230.78 101.963C230.234 102.944 229.362 104.28 228.79 104.962C228.244 105.616 227.263 106.679 226.581 107.334C225.9 107.961 224.918 108.806 224.4 109.188C223.882 109.542 222.519 110.305 221.401 110.878C219.956 111.587 218.784 111.941 217.448 112.077C216.385 112.214 212.541 112.296 208.86 112.323C202.29 112.323 202.154 112.323 200.409 111.614C199.427 111.232 197.601 110.224 196.32 109.378C195.038 108.506 193.348 107.143 192.557 106.325C191.739 105.507 190.649 104.144 190.104 103.326C189.558 102.508 188.822 101.091 188.441 100.191C188.086 99.2912 187.568 97.4373 187.296 96.1014C187.023 94.7655 186.778 92.9117 186.778 92.012C186.778 91.1123 187.023 89.2039 187.323 87.7863C187.623 86.3686 188.277 84.3511 188.768 83.2879C189.258 82.2246 190.076 80.8342 190.567 80.1527C191.058 79.4711 192.148 78.217 192.993 77.3173C193.839 76.4449 195.284 75.1908 196.183 74.5638C197.083 73.9367 198.31 73.1461 198.909 72.8462C199.509 72.5463 201.036 72.0011 202.317 71.5921C203.599 71.2105 205.234 70.8015 205.998 70.6652C206.734 70.5016 209.079 70.3926 211.178 70.3653ZM77.1538 74.5638C77.6445 75 78.5987 76.1178 79.2803 77.0174C79.9618 77.9171 80.1799 78.2715 79.771 77.8353C79.3621 77.3991 78.4078 76.2813 77.6445 75.3817C76.7993 74.4002 76.6085 74.0731 77.1538 74.5638ZM169.875 143.402L170.284 144.493C170.502 145.093 171.156 146.347 171.728 147.301C172.328 148.228 173.8 150.654 175.055 152.672C176.309 154.689 177.917 157.334 178.626 158.533C179.362 159.733 179.962 160.796 179.962 160.932C179.962 161.041 179.008 161.096 175.763 160.987L174.4 158.806C173.664 157.606 172.246 155.344 171.292 153.762C170.311 152.181 168.566 149.291 167.366 147.355C166.194 145.42 165.24 143.73 165.24 143.62C165.24 143.484 166.276 143.402 169.875 143.402ZM192.857 150.218C192.966 150.218 194.084 151.254 195.311 152.535C196.538 153.817 197.492 154.853 197.41 154.853C197.328 154.853 196.238 153.817 194.956 152.535C193.675 151.254 192.748 150.218 192.857 150.218ZM143.157 169.602C191.794 169.575 218.075 169.684 218.757 169.847C219.302 170.011 220.256 170.583 220.856 171.156C221.483 171.701 221.974 172.383 221.947 172.655C221.947 172.901 222.083 173.119 222.219 173.119C222.355 173.119 222.437 173.255 222.355 173.391C222.274 173.528 222.437 173.719 222.683 173.8C222.955 173.855 223.255 174.182 223.364 174.537C223.473 174.891 223.582 175.436 223.582 175.791C223.582 176.118 223.664 176.39 223.773 176.39C223.909 176.39 224.019 176.663 224.046 176.99C224.073 177.345 224.237 177.644 224.4 177.699C224.537 177.726 224.755 178.19 224.864 178.708C225 179.253 225.245 179.744 225.409 179.798C225.6 179.88 225.763 180.125 225.763 180.344C225.763 180.562 225.9 180.752 226.036 180.752C226.172 180.752 226.363 180.998 226.445 181.298C226.527 181.625 226.799 181.843 227.126 181.843C227.426 181.843 227.672 181.925 227.672 182.061C227.644 182.17 228.244 182.525 228.953 182.852C229.662 183.179 230.289 183.342 230.316 183.179C230.371 183.043 230.616 183.015 230.862 183.097C231.216 183.206 231.598 182.961 232.17 182.225C232.606 181.625 233.124 181.107 233.261 181.025C233.397 180.971 233.697 180.752 233.86 180.562C234.16 180.289 234.215 181.543 234.215 193.702L205.589 193.566L204.417 192.612C203.79 192.067 202.481 191.221 201.499 190.703C200.518 190.185 198.746 189.531 197.546 189.204C196.238 188.877 194.493 188.659 193.184 188.659C191.876 188.659 190.131 188.877 188.822 189.204C187.623 189.531 185.796 190.213 184.733 190.785C183.506 191.412 182.088 192.503 180.752 193.839C179.635 194.956 178.272 196.619 177.781 197.519C177.263 198.419 176.581 199.945 175.627 202.699L130.834 202.726C92.7481 202.754 86.0142 202.808 85.9324 203.135C85.8779 203.353 85.6052 202.59 85.3053 201.472C85.0327 200.354 84.3511 198.637 83.8059 197.655C83.2334 196.647 81.9248 195.011 80.7525 193.839C79.4438 192.53 77.9716 191.412 76.7721 190.785C75.7088 190.24 73.8822 189.531 72.6827 189.204C71.4558 188.904 69.6292 188.659 68.5114 188.659C67.4482 188.659 65.7034 188.849 64.6401 189.068C63.5769 189.286 61.8321 189.885 60.7415 190.403C59.6783 190.921 58.1243 191.848 55.916 193.566H45.5562C39.8582 193.566 35.1418 193.484 35.0872 193.375C35.0327 193.239 35.3599 190.894 35.8506 188.168C36.6412 183.506 36.7503 183.124 37.3773 182.797C37.759 182.606 40.5671 181.379 43.6478 180.071C46.7285 178.762 49.5911 177.535 50.0545 177.345C50.4907 177.154 52.5354 176.281 54.5529 175.436C56.5703 174.564 58.3424 173.746 58.506 173.637C58.6423 173.501 58.9149 173.391 59.1058 173.391C59.2966 173.391 60.6052 172.846 61.9684 172.219C63.3588 171.565 64.8037 170.938 65.1854 170.802C65.5671 170.692 65.976 170.502 66.1396 170.365C66.2759 170.256 66.9029 170.038 67.5027 169.902C68.1843 169.738 96.8648 169.629 143.157 169.602Z" fill="#FBBD05"/>
<path fill-rule="evenodd" clip-rule="evenodd" d="M138.631 32.1974C139.531 32.1974 141.439 32.361 142.857 32.5518C144.275 32.7699 146.238 33.2061 147.219 33.5605C148.201 33.8877 149.836 34.5693 150.9 35.0872C151.963 35.6052 153.435 36.4504 154.171 36.9684C154.935 37.4591 156.379 38.7132 157.443 39.7219C158.506 40.7579 159.787 42.1211 160.305 42.7481C160.823 43.4024 161.859 44.3021 162.568 44.7928C163.386 45.3381 163.986 45.9651 164.149 46.4831C164.286 46.9466 164.395 47.3828 164.395 47.5191C164.395 47.6281 164.122 47.9553 163.768 48.2552C163.441 48.5551 162.841 48.8004 162.405 48.8004C161.996 48.8004 161.26 48.6096 160.769 48.3642C160.305 48.1189 158.37 46.4013 156.489 44.5747C154.607 42.7481 152.454 40.8397 151.718 40.349C150.954 39.831 149.509 39.0404 148.446 38.5496C147.383 38.0589 145.284 37.4046 143.73 37.1047C142.203 36.7775 140.158 36.5322 139.177 36.5322C138.195 36.5322 136.45 36.6685 135.278 36.8048C134.133 36.9684 132.007 37.4591 130.589 37.8953C129.171 38.3315 126.963 39.1494 125.682 39.7492C124.4 40.3217 121.292 42.0938 118.73 43.7023C116.167 45.2835 112.923 47.1374 111.505 47.819C110.087 48.5005 107.988 49.2639 106.87 49.5093C105.725 49.7546 104.226 49.891 103.462 49.8092C102.426 49.7001 101.963 49.5093 101.472 48.964C101.145 48.5823 100.872 48.0098 100.872 47.7099C100.872 47.41 101.145 46.8648 101.472 46.4831C102.017 45.8833 102.481 45.7197 104.825 45.4199C106.679 45.1745 108.124 44.7928 109.324 44.2476C110.305 43.8113 113.168 42.1211 115.731 40.5125C118.293 38.8768 121.401 37.0229 122.683 36.3959C123.964 35.7688 125.845 34.9237 126.908 34.542C127.972 34.1603 129.607 33.6151 130.589 33.3697C131.57 33.1243 133.397 32.7699 134.678 32.5791C135.96 32.3882 137.732 32.2247 138.631 32.1974ZM48.2552 33.0971C56.2704 33.1516 56.952 33.2061 58.4787 33.7514C59.3784 34.0785 60.7688 34.7874 61.5867 35.3599C62.4046 35.9324 63.6041 37.0229 64.2584 37.759C64.9127 38.5224 65.8669 39.9128 66.3577 40.8942C66.8484 41.8757 67.4209 43.3206 67.639 44.1112C67.9389 45.229 68.1025 45.5016 68.4296 45.3381C68.6477 45.229 70.7197 45.12 77.1537 45.12L77.7535 44.1658C78.0534 43.6478 78.5169 43.0753 78.7622 42.8844C79.0076 42.7208 79.6892 42.4755 80.289 42.3937C81.0523 42.2574 81.6794 42.3392 82.3337 42.6663C82.8517 42.9117 83.5332 43.4297 83.8059 43.8386C84.1058 44.2476 84.4056 45.0109 84.4602 45.5289C84.5692 46.2105 84.4329 46.7557 84.024 47.4373C83.6968 47.9553 83.4242 48.446 83.4242 48.5278C83.4242 48.6096 84.2693 49.5365 85.2781 50.5725C86.5867 51.9084 87.4863 53.1625 88.3042 54.7983C88.9313 56.1069 89.422 57.4155 89.3675 57.7699C89.313 58.2879 89.1221 58.4515 88.5223 58.4515C88.0861 58.4787 87.6499 58.4242 87.5136 58.3424C87.4046 58.2606 86.7503 57.2792 86.0687 56.1614C85.3053 54.88 84.0512 53.3806 82.7153 52.0992C81.434 50.9269 79.9618 49.8364 79.0621 49.4275C78.2442 49.0458 76.8811 48.5823 76.0632 48.3642C75.2453 48.1461 73.7186 47.9826 72.6554 47.9826C71.5921 47.9826 70.0109 48.2007 69.1112 48.4188C68.2115 48.6641 66.5485 49.3184 65.4035 49.8637C64.2584 50.4089 63.0861 51.0633 62.8135 51.3086C62.5409 51.5812 61.832 51.8266 61.2868 51.8539C60.578 51.9084 60.2235 51.7994 60.1145 51.5267C60.0054 51.3086 60.1145 51.0633 60.3053 51.0087C60.4962 50.9269 61.1505 50.3272 61.7503 49.6728C62.35 49.0185 63.4405 48.0371 64.2039 47.4918C64.94 46.9466 65.6216 46.4831 65.7034 46.4286C65.7851 46.3741 65.6761 45.9378 65.458 45.4744C65.2672 44.9836 64.94 44.2203 64.7492 43.7568C64.5311 43.2934 63.7404 42.2574 62.9226 41.4122C62.1319 40.5671 60.7415 39.4493 59.8419 38.9313C58.9422 38.4406 57.579 37.8681 56.8429 37.6772C55.9433 37.4591 52.6445 37.3228 47.301 37.2683C41.0578 37.241 38.8222 37.2955 37.8953 37.5682C37.2137 37.7863 35.9869 38.277 35.169 38.6587C34.3511 39.0676 33.615 39.4493 33.5332 39.5311C33.4515 39.6129 32.9062 39.9128 32.3064 40.2127C31.7066 40.5125 31.0796 40.9488 30.8887 41.1669C30.6161 41.494 30.4798 41.5213 30.0163 41.2486C29.6892 41.0578 29.4438 40.976 29.4438 41.1123C29.4438 41.2214 29.1985 41.3304 28.8986 41.385C28.5987 41.4122 28.3533 41.3577 28.3533 41.2486C28.326 41.1123 28.8168 40.2944 29.4166 39.3948C29.9891 38.4951 31.1069 37.1865 31.8702 36.4777C32.6336 35.7416 34.024 34.8146 34.9509 34.3512C35.9051 33.9149 37.35 33.4242 38.1679 33.2879C38.9858 33.1516 43.5387 33.0698 48.2552 33.0971ZM14.1766 42.4209C14.6946 42.53 15.4307 42.8026 15.7851 43.048C16.1396 43.2934 16.6576 43.9477 16.9302 44.4929C17.3119 45.2835 17.5572 45.4744 17.9116 45.3653C18.1843 45.2835 19.7655 45.1472 21.4013 45.0654C23.6641 44.9564 24.8091 45.0109 26.0905 45.3653C27.0447 45.6107 28.6259 46.2105 29.6347 46.7285C30.6706 47.2465 32.1701 48.1734 32.988 48.8004C33.8059 49.4275 35.0872 50.7906 35.8506 51.8539C37.1592 53.735 37.1865 53.7895 36.3958 53.3806C35.9324 53.1352 35.1417 52.8626 34.6238 52.7535C34.1058 52.6445 32.7426 51.8539 31.6248 51.036C30.5071 50.1908 28.8986 49.2366 28.0807 48.8822C27.2628 48.5551 25.8451 48.1461 24.9455 47.9553C24.0458 47.7917 22.5191 47.7099 21.5376 47.7917C20.5561 47.8735 18.9749 48.2007 17.9934 48.5005C17.012 48.8004 15.6761 49.4002 14.9945 49.8637C14.313 50.2999 13.0043 51.4449 12.0774 52.3991C11.1505 53.3261 9.97817 54.7165 9.48744 55.4526C8.88766 56.3522 8.31514 56.8702 7.76988 57.0065C7.30641 57.1156 6.7339 57.1156 6.46127 56.952C6.02506 56.7339 6.02506 56.6249 6.57032 55.398C6.87021 54.6892 7.52452 53.5714 7.96072 52.8899C8.42419 52.2083 9.40565 51.036 11.4776 48.9368L10.9324 47.9826C10.578 47.41 10.3598 46.5376 10.3598 45.8015C10.3326 45.0109 10.5234 44.3021 10.8778 43.7841C11.1777 43.3751 11.832 42.8299 12.3228 42.639C12.868 42.4209 13.6041 42.3392 14.1766 42.4209ZM217.912 50.4362C218.239 50.4362 218.73 50.6543 219.002 50.9269C219.357 51.2541 219.493 51.7994 219.466 54.5256H220.638C221.265 54.5256 222.056 54.7165 222.41 54.9346C222.737 55.1527 223.01 55.6161 223.01 55.9706C223.01 56.2977 222.873 56.7339 222.683 56.9248C222.492 57.0883 221.701 57.2519 219.466 57.2519V59.024C219.466 60.5507 219.384 60.8506 218.866 61.205C218.511 61.4231 218.157 61.614 218.048 61.614C217.912 61.614 217.584 61.3686 217.285 61.0687C216.848 60.6325 216.739 60.169 216.739 57.2519H215.322C214.286 57.2792 213.74 57.1156 213.386 56.7884C213.059 56.4613 212.95 56.0796 213.032 55.6979C213.113 55.3435 213.495 54.9618 213.877 54.7983C214.258 54.6347 215.049 54.5256 216.739 54.5256L216.712 52.9989C216.712 52.181 216.821 51.2541 216.985 50.9542C217.176 50.6816 217.584 50.4362 217.912 50.4362ZM234.542 61.8866C234.869 61.8866 235.305 62.0229 235.496 62.2137C235.687 62.4046 235.823 63.0316 235.823 63.6041C235.823 64.5856 235.851 64.6129 236.859 64.6129C237.405 64.6129 238.086 64.7765 238.331 64.9673C238.604 65.1581 238.822 65.5398 238.822 65.8397C238.849 66.1396 238.686 66.5213 238.495 66.7121C238.304 66.8757 237.65 67.0665 237.05 67.1211C235.987 67.2028 235.96 67.2301 235.878 68.2934C235.823 68.8931 235.632 69.5474 235.469 69.7383C235.278 69.9291 234.896 70.0927 234.596 70.0927C234.297 70.0654 233.888 69.9291 233.697 69.7383C233.506 69.5474 233.37 68.8659 233.37 67.0665H232.279C231.679 67.0665 230.998 67.012 230.78 66.9302C230.534 66.8484 230.371 66.4667 230.371 65.976C230.371 65.4308 230.552 65.0673 230.916 64.8855C231.216 64.7219 231.897 64.6129 232.415 64.6129C233.315 64.6129 233.37 64.5583 233.342 63.7677C233.342 63.3043 233.451 62.7045 233.615 62.4046C233.806 62.132 234.215 61.8866 234.542 61.8866ZM215.785 70.6107C216.085 70.6107 217.503 70.9106 218.92 71.265C220.338 71.6194 222.546 72.3828 223.828 72.9826C225.109 73.5823 226.936 74.5911 227.917 75.2454C228.899 75.8997 230.425 77.181 231.352 78.0807C232.252 79.0076 233.506 80.4798 234.106 81.3795C234.733 82.2792 235.469 83.6423 235.769 84.3784C236.069 85.1418 236.396 86.1778 236.478 86.6957C236.587 87.2137 236.587 87.5136 236.45 87.3501C236.341 87.1865 235.878 86.9684 235.414 86.8593C234.978 86.7503 234.215 86.6412 233.724 86.614C232.906 86.5594 232.77 86.3959 231.788 84.3784C231.216 83.1788 230.371 81.7067 229.935 81.0796C229.498 80.4798 228.462 79.1712 227.644 78.217C226.827 77.2355 225.218 75.7634 224.1 74.9182C222.983 74.0731 221.565 73.1461 220.965 72.8462C220.365 72.5464 218.893 71.9738 217.694 71.5649C216.494 71.1832 215.458 70.7743 215.376 70.7197C215.294 70.638 215.485 70.6107 215.785 70.6107ZM72.3828 71.1014L73.3369 71.6739C73.8549 72.0011 74.9182 72.7917 75.6543 73.4188C76.4176 74.0731 77.7535 75.518 78.6805 76.6358C79.6074 77.7535 80.916 79.4984 81.5703 80.5616C82.2519 81.6249 83.2879 83.4515 83.8877 84.651C84.4874 85.8506 85.3598 87.868 85.8233 89.1494C86.2868 90.4308 86.8593 92.5845 87.1047 93.9204C87.35 95.2563 87.5136 96.5649 87.4318 96.783C87.3773 97.0011 87.1865 96.6467 86.9956 95.9651C86.832 95.2835 86.4776 94.0567 86.2595 93.2388C86.0142 92.4209 85.5234 90.7579 85.1417 89.5583C84.7601 88.3588 84.024 86.5322 83.506 85.4689C82.988 84.4057 82.1156 82.8244 81.5976 81.9248C81.0523 81.0251 79.9618 79.4984 79.1712 78.5169C78.3806 77.5354 76.7993 75.7634 75.5998 74.5365C74.4275 73.3097 73.2279 72.0556 72.928 71.7012L72.3828 71.1014ZM127.29 102.236L142.912 102.399L143.43 103.081C143.784 103.517 143.975 104.144 143.948 104.853C143.948 105.48 143.675 106.325 143.321 106.87C142.993 107.388 142.176 108.288 141.494 108.86C140.812 109.433 139.586 110.169 138.768 110.469C137.759 110.851 136.587 111.041 135.087 111.069C133.806 111.069 132.279 110.905 131.407 110.632C130.589 110.414 129.362 109.787 128.68 109.297C127.999 108.779 127.045 107.77 126.554 107.007C125.954 106.116 125.663 105.362 125.682 104.744C125.718 104.144 125.991 103.571 126.499 103.026L127.29 102.236ZM152.426 143.43L160.414 143.566L162.813 147.383C164.149 149.482 166.521 153.299 168.13 155.834C169.711 158.397 171.074 160.633 171.129 160.823C171.183 161.096 169.193 161.15 152.399 161.15L152.426 143.43ZM170.829 143.457C171.347 143.457 172.846 143.839 174.155 144.302C175.463 144.766 177.644 145.529 179.008 145.992C181.216 146.756 181.816 146.838 189.095 147.001L190.867 148.691C191.821 149.591 195.065 152.699 198.01 155.562C200.981 158.424 203.408 160.851 203.408 160.96C203.408 161.069 198.146 161.178 180.098 161.178L179.716 160.442C179.526 160.005 178.544 158.397 177.563 156.816C176.581 155.234 174.809 152.345 173.582 150.409C172.383 148.446 171.047 146.183 170.638 145.365C170.202 144.547 169.875 143.757 169.875 143.648C169.875 143.539 170.283 143.457 170.829 143.457ZM91.9574 151.554C92.0938 151.609 92.2028 152.535 92.1756 153.626C92.1756 154.716 92.0938 156.38 92.012 157.361C91.8484 159.079 91.7939 159.215 89.6946 161.859C88.5223 163.359 87.5409 164.667 87.5409 164.776C87.5409 164.885 118.593 165.022 225.627 165.131L227.399 165.976C228.353 166.439 229.826 167.421 230.616 168.157C231.625 169.084 232.388 170.12 233.07 171.51C234.024 173.473 234.078 173.664 234.133 176.908C234.188 179.308 234.106 180.371 233.86 180.616C233.67 180.807 233.397 181.025 233.261 181.08C233.097 181.161 232.606 181.679 232.17 182.252C231.57 183.015 231.216 183.261 230.861 183.152C230.589 183.07 230.343 183.097 230.316 183.233C230.289 183.37 229.662 183.233 228.953 182.906C228.217 182.579 227.644 182.197 227.644 182.088C227.644 181.979 227.426 181.898 227.126 181.898C226.799 181.898 226.499 181.679 226.445 181.352C226.363 181.052 226.172 180.807 226.036 180.807C225.872 180.807 225.763 180.616 225.763 180.398C225.763 180.18 225.6 179.935 225.409 179.853C225.218 179.771 224.973 179.28 224.864 178.762C224.755 178.244 224.536 177.781 224.373 177.726C224.209 177.699 224.073 177.399 224.046 177.045C224.019 176.718 223.882 176.445 223.773 176.445C223.664 176.445 223.555 176.172 223.555 175.818C223.555 175.491 223.473 174.945 223.364 174.591C223.255 174.237 222.955 173.909 222.683 173.828C222.41 173.773 222.274 173.582 222.355 173.446C222.41 173.282 222.355 173.173 222.219 173.173C222.056 173.173 221.947 172.955 221.947 172.683C221.947 172.437 221.456 171.756 220.856 171.183C220.256 170.638 219.302 170.038 218.73 169.902C218.075 169.711 191.549 169.656 67.5027 169.766L66.1941 170.365C65.4853 170.72 64.831 170.992 64.7764 170.992C64.6946 170.992 63.4678 171.538 62.0501 172.219C60.6052 172.901 59.2966 173.446 59.1058 173.446C58.8877 173.446 58.615 173.555 58.4787 173.664C58.3424 173.8 56.5703 174.618 54.5529 175.491C52.5082 176.336 50.4907 177.208 50.0545 177.399C49.591 177.59 46.7012 178.817 43.6477 180.125C40.567 181.434 37.7317 182.661 37.3773 182.852C36.723 183.179 36.6139 183.561 35.8233 188.222C35.3598 190.949 35.0054 193.293 35.0872 193.402C35.1417 193.511 39.8582 193.621 45.5561 193.621C51.2541 193.621 55.916 193.675 55.916 193.757C55.916 193.839 55.3435 194.52 54.6619 195.311C53.9804 196.101 52.9444 197.737 52.3718 198.937C51.7993 200.136 51.0905 202.099 50.8451 203.299C50.518 204.853 50.4089 206.161 50.518 207.933C50.5998 209.269 50.7633 210.605 50.8997 210.878C51.1178 211.369 50.7906 211.396 32.8517 211.205L31.0796 210.333C29.9345 209.787 28.8713 208.997 27.9989 208.015C27.2901 207.225 26.4722 205.943 26.1723 205.125C25.8451 204.226 25.6543 202.999 25.6543 201.799C25.6543 200.627 25.8179 199.373 26.1178 198.582C26.3904 197.874 26.9902 196.81 27.4264 196.238C27.8626 195.665 28.8986 194.793 31.2432 193.457L31.434 191.685C31.5431 190.731 31.8429 188.332 32.0883 186.396C32.3337 184.433 32.6336 182.47 32.7971 182.034C32.9607 181.57 33.3697 180.807 33.7241 180.316C34.133 179.771 35.169 179.035 36.4776 178.381C37.6499 177.808 40.567 176.499 42.9662 175.491C45.3653 174.482 49.4002 172.737 51.9629 171.619C54.4983 170.502 57.988 168.92 59.7328 168.157C61.4504 167.366 64.2584 166.112 69.1112 164.04L71.4286 161.341C72.7099 159.842 74.2639 158.07 76.036 156.134L83.8877 153.79C88.1679 152.481 91.8211 151.499 91.9574 151.554ZM8.28788 181.352H26.4722L27.1537 182.034C27.5082 182.415 27.8353 182.988 27.8353 183.315C27.8353 183.67 27.5354 184.269 26.4722 185.442H17.53C8.96945 185.469 8.5605 185.442 7.85167 184.896C7.33368 184.515 7.08831 184.079 7.06105 183.479C7.00652 182.879 7.19736 182.415 7.63357 181.979L8.28788 181.352ZM26.5267 189.667L27.0447 190.349C27.3446 190.731 27.5899 191.439 27.5627 191.93C27.5627 192.557 27.3446 192.966 26.7993 193.348C26.0905 193.893 25.7088 193.92 17.2028 193.893C8.42419 193.893 8.3424 193.866 7.71536 193.266C7.30641 192.884 7.08831 192.339 7.08831 191.712C7.08831 191.14 7.30641 190.567 7.57904 190.294C7.85167 190.049 8.42419 189.804 8.88766 189.722C9.32386 189.64 13.4951 189.613 26.5267 189.667ZM219.82 193.621C232.879 193.621 233.888 193.675 234.896 194.138C235.496 194.411 236.45 195.12 236.996 195.692C237.541 196.292 238.277 197.383 238.631 198.119C239.122 199.182 239.258 199.973 239.258 201.799C239.258 203.708 239.149 204.362 238.55 205.616C238.168 206.434 237.323 207.661 236.641 208.342C235.987 208.997 234.651 209.924 231.897 211.205L210.769 211.341L210.932 208.424C211.041 206.543 210.987 204.798 210.796 203.571C210.605 202.535 210.087 200.818 209.651 199.755C209.215 198.719 208.179 196.947 207.361 195.883C206.543 194.793 205.861 193.839 205.861 193.757C205.861 193.675 212.159 193.621 219.82 193.621ZM68.8658 201.99C69.4656 202.072 70.3926 202.345 70.9106 202.617C71.4286 202.863 72.1919 203.462 72.6008 203.953C73.0371 204.417 73.4733 205.262 73.6368 205.834C73.7732 206.38 73.9095 207.143 73.9095 207.525C73.9095 207.906 73.7732 208.67 73.6368 209.242C73.4733 209.787 72.9553 210.687 72.4645 211.232C72.0011 211.778 71.2104 212.432 70.7742 212.65C70.2835 212.923 69.2475 213.086 68.1843 213.086C67.0938 213.086 66.1123 212.923 65.5943 212.65C65.1308 212.405 64.4493 211.859 64.0403 211.423C63.6314 211.014 63.1134 210.196 62.868 209.651C62.6499 209.079 62.4591 208.097 62.4591 207.47C62.4591 206.816 62.7045 205.807 62.9771 205.207C63.2497 204.607 63.8768 203.762 64.3675 203.299C64.831 202.863 65.8124 202.345 66.494 202.154C67.2028 201.963 68.2661 201.881 68.8658 201.99ZM193.866 201.963C194.547 202.045 195.583 202.372 196.183 202.699C196.81 203.053 197.574 203.844 198.092 204.635C198.746 205.752 198.909 206.27 198.882 207.497C198.855 208.451 198.637 209.433 198.31 210.115C198.01 210.714 197.383 211.532 196.892 211.968C196.429 212.377 195.529 212.841 194.875 213.004C194.248 213.168 193.239 213.25 192.639 213.195C192.039 213.141 191.058 212.841 190.458 212.514C189.858 212.214 188.986 211.45 188.55 210.823C187.895 209.896 187.704 209.297 187.623 207.988C187.541 206.679 187.65 206.025 188.086 205.071C188.386 204.389 189.095 203.517 189.695 203.081C190.267 202.672 191.167 202.208 191.685 202.072C192.203 201.936 193.184 201.881 193.866 201.963ZM139.204 202.863C159.133 202.917 175.491 202.972 175.518 202.999C175.572 202.999 175.518 204.035 175.191 207.525H86.314L86.1232 206.516C85.9869 205.943 85.9051 204.907 85.9051 202.89L94.4111 202.835C99.1003 202.781 119.248 202.808 139.204 202.863ZM203.299 212.432C203.353 212.432 203.271 212.65 203.135 212.923C202.999 213.168 202.972 213.495 203.081 213.604C203.19 213.713 203.353 213.795 203.462 213.795C203.599 213.795 203.735 213.577 203.79 213.332C203.844 213.059 203.899 213.304 203.926 213.877C203.953 214.504 203.817 214.886 203.599 214.886C203.353 214.886 203.381 214.94 203.653 215.104C203.926 215.24 203.953 215.431 203.708 215.84C203.544 216.14 203.408 216.221 203.408 216.058C203.408 215.867 203.271 215.703 203.135 215.703C202.953 215.703 202.953 215.885 203.135 216.249C203.271 216.549 203.326 216.821 203.19 216.821C203.081 216.848 202.917 216.848 202.781 216.821C202.672 216.821 202.59 217.012 202.59 217.285C202.59 217.53 202.263 217.884 201.827 218.075C201.418 218.266 200.818 218.648 200.463 218.975C200.136 219.275 199.782 219.52 199.646 219.52C199.536 219.547 199.237 219.82 198.964 220.147C198.691 220.474 198.473 220.665 198.501 220.556C198.501 220.42 197.737 220.583 196.783 220.883C195.692 221.238 194.329 221.429 192.966 221.429C191.821 221.429 190.812 221.32 190.731 221.156C190.649 221.02 190.267 220.965 189.831 221.047C189.367 221.156 189.04 221.101 188.959 220.883C188.877 220.72 188.495 220.583 188.059 220.583C187.568 220.611 187.323 220.474 187.323 220.202C187.323 219.984 187.159 219.793 186.968 219.793C186.805 219.82 186.478 219.629 186.287 219.384C186.123 219.166 185.796 219.029 185.605 219.111C185.414 219.193 185.087 218.92 184.869 218.511C184.651 218.103 184.297 217.585 184.106 217.421C183.942 217.23 183.56 217.148 183.288 217.257C182.879 217.421 182.852 217.394 183.233 216.957C183.56 216.576 183.561 216.494 183.261 216.549C183.043 216.63 182.879 216.412 182.852 216.031C182.824 215.703 182.634 215.294 182.415 215.158C182.143 214.976 182.116 214.886 182.334 214.886C182.525 214.886 182.715 214.558 182.743 214.149C182.797 213.768 182.988 213.386 183.152 213.332C183.397 213.277 183.451 213.468 183.206 214.749L183.615 214.013C183.942 213.413 184.133 213.304 184.46 213.522C184.678 213.686 184.951 213.74 185.06 213.686C185.196 213.604 185.714 213.931 186.232 214.395C186.75 214.858 187.95 215.594 188.877 216.003C189.858 216.467 191.33 216.876 192.285 216.957C193.484 217.094 194.52 216.985 195.774 216.685C196.756 216.412 198.037 215.921 198.637 215.567C199.237 215.213 199.891 214.749 200.054 214.504C200.273 214.258 200.545 214.149 200.736 214.258C200.972 214.404 201.018 214.358 200.872 214.122C200.763 213.931 200.872 213.659 201.145 213.468C201.418 213.277 201.881 213.086 202.181 213.059C202.481 213.004 202.835 212.841 202.972 212.704C203.135 212.541 203.272 212.432 203.299 212.432ZM59.8691 212.704C59.9236 212.704 59.9236 212.841 59.8691 212.977C59.7873 213.141 59.9236 213.441 60.1417 213.659C60.3599 213.877 60.5507 214.013 60.5507 213.931C60.5507 213.85 61.205 214.286 61.9684 214.858C62.759 215.458 63.8768 216.14 64.422 216.358C64.9945 216.603 66.4122 216.876 67.5572 216.985C69.3838 217.148 69.9291 217.067 71.4558 216.521C72.4373 216.194 73.555 215.676 73.964 215.403C74.4002 215.104 74.9182 214.886 75.1363 214.886C75.3817 214.886 75.4907 214.722 75.4089 214.477C75.3271 214.231 75.518 213.959 75.8179 213.795C76.1178 213.659 76.5812 213.604 76.8266 213.74C77.2083 213.904 77.2628 213.822 77.0992 213.332C76.9902 212.95 77.0174 212.704 77.181 212.704C77.3173 212.704 77.5899 213.113 77.7535 213.604C77.9444 214.068 78.1352 214.558 78.1625 214.695C78.217 214.804 78.2715 214.967 78.2715 215.104C78.2715 215.213 78.4624 215.076 78.6805 214.831C78.9803 214.449 79.1439 214.422 79.253 214.695C79.362 214.885 79.1439 215.213 78.7895 215.485C78.4351 215.731 78.217 216.031 78.326 216.167C78.4351 216.276 78.4078 216.603 78.2715 216.876C78.0807 217.176 77.8626 217.257 77.5899 217.148C77.2355 216.957 77.2083 217.039 77.3718 217.557C77.5354 218.075 77.5082 218.184 77.181 218.048C76.9356 217.939 76.4449 218.184 75.9542 218.702C75.4907 219.166 74.9727 219.52 74.7819 219.52C74.6183 219.52 74.5092 219.656 74.591 219.793C74.6728 219.956 74.3457 220.12 73.9095 220.202C73.446 220.284 73.0916 220.474 73.0916 220.611C73.0916 220.774 72.6826 220.965 72.1919 221.047C71.7284 221.129 70.9378 221.183 70.5016 221.183C70.0382 221.183 69.82 221.265 69.9836 221.374C70.1745 221.483 69.4384 221.538 68.3479 221.51C67.2846 221.483 65.8397 221.292 65.1036 221.101C64.3947 220.911 63.8222 220.665 63.8222 220.556C63.8222 220.42 63.6314 220.393 63.4133 220.474C63.1952 220.556 63.0043 220.447 63.0043 220.284C63.0316 220.038 62.8953 220.038 62.5681 220.338C62.1865 220.72 62.1592 220.692 62.3773 220.229C62.5409 219.847 62.4864 219.738 62.1865 219.82C61.9684 219.875 61.5049 219.657 61.1505 219.302C60.7143 218.866 60.3871 218.757 59.9236 218.893C59.4874 219.029 59.3784 218.975 59.5147 218.757C59.651 218.566 59.4874 218.212 59.1058 217.884C58.7786 217.585 58.4242 217.339 58.2879 217.339C58.1788 217.339 58.1516 217.148 58.2334 216.93C58.3151 216.712 58.2334 216.521 58.097 216.521C57.9335 216.521 57.8244 216.33 57.8244 216.112C57.8244 215.894 57.6336 215.649 57.4155 215.567C57.0611 215.458 57.061 215.294 57.3064 214.558C57.4973 214.068 57.7426 213.522 57.8789 213.359C57.988 213.195 58.3697 213.113 58.7241 213.195C59.0512 213.25 59.4329 213.168 59.542 213.004C59.651 212.841 59.8146 212.704 59.8691 212.704Z" fill="#F6F4EC"/>
<path d="M122.683 81.5158C122.274 81.8702 122.056 82.361 122.083 82.8244C122.11 83.2334 122.355 83.8604 122.655 84.2421C123.146 84.8964 123.31 84.9237 126.472 85.0055L129.771 85.06C131.025 83.8059 131.407 83.1788 131.407 82.879C131.407 82.5791 131.107 82.0338 130.725 81.6521C130.071 80.9978 129.907 80.9706 126.69 80.9706C123.719 80.9706 123.255 81.0251 122.683 81.5158ZM141.085 81.6521C140.731 82.0065 140.431 82.5518 140.403 82.879C140.403 83.1788 140.703 83.7514 141.058 84.1876L141.712 84.9237C148.528 84.7601 148.746 84.7328 149.318 84.1058C149.673 83.7241 149.945 83.1516 149.945 82.7972C149.945 82.47 149.673 81.9248 149.346 81.5976C148.773 81.0251 148.473 80.9706 145.229 80.9706C141.876 80.9706 141.712 80.9978 141.085 81.6521ZM122.71 87.2137C122.028 87.4864 121.265 88.0589 120.992 88.4951C120.72 88.9313 120.474 89.6947 120.502 90.1854C120.502 90.8124 120.665 91.1396 121.129 91.3577C121.647 91.6303 121.892 91.5485 122.819 90.8124C123.582 90.1854 124.237 89.9128 125.027 89.8855C125.927 89.831 126.309 89.9945 127.126 90.7306C127.699 91.1941 128.217 91.6031 128.353 91.6031C128.462 91.6031 128.817 91.4122 129.171 91.1941C129.498 90.976 129.771 90.5125 129.771 90.1854C129.771 89.831 129.553 89.1767 129.28 88.7405C129.008 88.3043 128.244 87.6499 127.59 87.3228C126.854 86.9411 125.872 86.6957 125.136 86.6957C124.455 86.6957 123.364 86.9411 122.71 87.2137ZM143.811 87.2955C143.212 87.5954 142.448 88.2497 142.094 88.7132C141.767 89.1767 141.494 89.8037 141.494 90.1036C141.494 90.4035 141.63 90.8124 141.821 91.0033C142.012 91.1941 142.448 91.3304 142.803 91.3304C143.13 91.3304 143.784 91.0305 144.22 90.6489C144.82 90.1309 145.365 89.9673 146.265 89.9673C147.165 89.9673 147.71 90.1309 148.31 90.6489C148.746 91.0305 149.427 91.3304 149.809 91.3304C150.218 91.3304 150.6 91.1123 150.763 90.7852C150.9 90.4853 150.954 90.0218 150.872 89.7764C150.763 89.5038 150.382 88.8768 150.055 88.4133C149.7 87.9226 148.937 87.3228 148.391 87.1047C147.819 86.8593 146.81 86.6957 146.129 86.6957C145.393 86.6957 144.466 86.9411 143.811 87.2955ZM227.835 108.533C227.399 108.751 227.399 108.806 227.863 109.324C228.108 109.624 228.408 109.76 228.544 109.651C228.653 109.542 228.653 109.188 228.517 108.86C228.326 108.397 228.162 108.342 227.835 108.533ZM112.405 178.762L109.324 178.844V181.843L113.004 181.979L113.277 194.793H116.821L117.094 181.979L121.047 181.843C121.047 179.144 120.965 178.817 120.556 178.735C120.311 178.68 119.057 178.626 117.775 178.653C116.494 178.68 114.068 178.735 112.377 178.762H112.405ZM126.036 178.762C125.3 178.817 124.809 179.008 124.646 179.308C124.509 179.58 123.173 182.852 121.674 186.614C120.174 190.349 118.866 193.702 118.784 194.029C118.62 194.602 118.73 194.656 120.038 194.82C120.829 194.902 121.756 194.902 122.083 194.82C122.519 194.711 122.846 194.248 123.173 193.293L123.664 191.93H129.798C130.889 194.384 131.161 194.684 131.707 194.711C132.088 194.738 132.906 194.793 133.533 194.847C134.188 194.902 134.76 194.847 134.815 194.711C134.896 194.602 134.051 192.067 132.933 189.068C131.843 186.069 130.534 182.525 130.044 181.161C129.117 178.735 129.117 178.708 128.162 178.68C127.644 178.653 126.69 178.708 126.036 178.762ZM147.328 178.844L145.338 178.98C143.239 182.47 142.53 183.479 142.394 183.479C142.285 183.479 141.576 182.415 140.84 181.161L139.477 178.844H135.251C135.851 180.016 136.887 181.761 137.95 183.479C139.013 185.196 139.885 186.696 139.885 186.805C139.885 186.941 139.231 188.086 138.413 189.395C137.623 190.731 136.641 192.448 136.232 193.212C135.605 194.493 135.578 194.656 135.987 194.684C136.26 194.684 136.914 194.738 137.432 194.766C137.95 194.82 138.686 194.766 139.04 194.684C139.504 194.575 140.076 193.866 140.949 192.366C141.63 191.194 142.285 190.185 142.394 190.131C142.53 190.076 143.212 191.031 143.948 192.257C144.684 193.511 145.474 194.602 145.72 194.711C145.965 194.847 146.947 194.929 147.928 194.929C149.318 194.929 149.7 194.847 149.7 194.52C149.7 194.302 148.61 192.448 147.246 190.431L144.793 186.75C148.364 181.352 149.455 179.58 149.537 179.308C149.618 179.062 149.618 178.817 149.482 178.762C149.373 178.735 148.391 178.762 147.328 178.844ZM150.845 186.805L150.927 194.793C154.335 194.793 154.471 194.738 154.635 194.111C154.744 193.73 154.825 190.158 154.853 186.123L154.88 178.844H150.791L150.845 186.805Z" fill="#1C1B1F"/>
<path d="M207.007 74.9182C206.679 75 205.562 75.2999 204.553 75.5998C203.544 75.8724 202.017 76.4449 201.2 76.8811C200.382 77.2901 198.855 78.3533 197.819 79.2257C196.592 80.2617 195.42 81.5976 194.493 83.0153C193.73 84.2148 192.884 85.8779 192.639 86.6958C192.394 87.5136 192.121 89.1221 192.039 90.2399C191.958 91.3577 192.012 92.7754 192.148 93.3751L192.421 94.4657C192.448 92.3392 192.585 91.3577 192.721 90.9215C192.857 90.4853 193.266 89.2039 193.621 88.1134C193.975 87.0229 194.302 86.1505 194.384 86.1505C194.466 86.1505 194.711 85.7688 194.929 85.2781C195.147 84.7874 196.074 83.6696 196.974 82.7972C197.874 81.9248 199.291 80.807 200.109 80.289C200.927 79.7983 202.59 79.0076 203.79 78.5714C204.989 78.1352 206.952 77.6172 208.152 77.4537C209.351 77.2628 211.123 77.2083 212.105 77.2901C213.086 77.3991 214.804 77.7263 215.922 78.0262C217.039 78.3261 218.893 79.0622 220.011 79.6347C221.129 80.2072 222.846 81.4068 223.8 82.2519C224.755 83.1243 225.954 84.4329 226.472 85.1963C226.963 85.9324 227.372 86.3686 227.372 86.1505C227.372 85.9324 226.99 85.0055 226.554 84.1058C226.118 83.2061 225.164 81.7884 224.428 80.9706C223.691 80.1527 222.492 79.0349 221.756 78.4624C221.02 77.9171 219.575 77.0447 218.511 76.5267C217.475 76.0087 215.703 75.3817 214.64 75.1363C213.468 74.891 211.587 74.7274 210.142 74.7274C208.751 74.7546 207.334 74.8364 207.007 74.9182ZM109.133 178.953C109.024 179.144 108.997 179.907 109.079 180.643L109.215 181.979L109.324 178.844L115.458 178.68C110.005 178.571 109.269 178.653 109.133 178.953ZM120.693 178.79C120.856 178.899 121.047 179.662 121.101 180.48L121.211 181.979C121.32 178.817 121.265 178.571 120.856 178.571C120.529 178.571 120.474 178.644 120.693 178.79ZM136.314 178.762C136.996 178.817 137.977 178.817 138.495 178.762C139.013 178.708 138.468 178.653 137.268 178.653C136.069 178.653 135.633 178.708 136.314 178.762ZM146.129 178.762C146.647 178.817 147.574 178.817 148.173 178.762C148.773 178.708 148.337 178.653 147.219 178.653C146.101 178.653 145.611 178.708 146.129 178.762ZM151.718 178.762C152.181 178.817 153.026 178.817 153.626 178.762C154.226 178.708 153.871 178.653 152.808 178.653C151.772 178.653 151.281 178.708 151.718 178.762ZM117.094 182.17C117.012 182.361 116.93 185.305 116.903 188.713C116.848 192.094 116.903 194.82 117.039 194.766C117.148 194.711 117.23 191.821 117.23 188.386V182.116L120.911 181.952C117.803 181.87 117.176 181.952 117.094 182.17Z" fill="#F57506"/>
<path d="M140.322 44.1112C140.076 44.3566 139.449 45.638 138.931 46.9466C138.086 49.0458 137.868 49.373 137.187 49.4547C136.778 49.5365 135.769 49.6729 134.951 49.7546C134.133 49.8637 133.043 50.0545 132.552 50.1908C131.952 50.3544 131.679 50.5998 131.679 50.9815C131.679 51.3086 132.197 51.9357 132.961 52.5354C133.67 53.108 134.597 53.8986 135.006 54.3075C135.633 54.9346 135.742 55.2345 135.633 55.9433C135.551 56.434 135.387 57.6609 135.278 58.6696C135.115 60.3326 135.142 60.5235 135.633 60.687C136.014 60.8506 136.778 60.578 138.277 59.7601C139.449 59.133 140.622 58.6151 140.867 58.6151C141.14 58.6151 142.203 59.1603 143.266 59.8419C144.302 60.5234 145.229 61.0687 145.311 61.0687C145.393 61.096 145.638 60.8779 145.856 60.6325C146.156 60.2781 146.211 59.8419 146.074 58.7786C145.965 58.0153 145.802 56.843 145.693 56.1614L145.529 54.9346C148.8 52.3991 149.836 51.4449 149.973 51.1723C150.136 50.8724 150.109 50.627 149.864 50.4362C149.7 50.2999 148.31 50 146.81 49.7546C145.311 49.5365 143.92 49.1821 143.73 48.9913C143.539 48.8277 143.075 47.7917 142.721 46.7557C142.339 45.6925 141.794 44.5747 141.494 44.2203C141.194 43.8931 140.894 43.6205 140.84 43.6205C140.812 43.6205 140.567 43.8386 140.322 44.084V44.1112ZM19.3567 49.7274C18.8114 49.9182 17.939 50.3817 17.3665 50.7906C16.8212 51.2268 16.276 51.7721 16.1942 52.0175C16.1124 52.2901 16.1942 52.8626 16.385 53.2988C16.7122 53.9804 16.8757 54.0622 17.7209 53.9258C18.2389 53.8713 19.6566 53.4624 20.8561 53.0534C22.0557 52.6172 23.2007 52.1538 23.3916 51.9902C23.5824 51.8266 23.746 51.3631 23.7187 50.9269C23.7187 50.518 23.5279 50 23.3098 49.7819C23.0644 49.5365 22.4101 49.373 21.5922 49.373C20.8834 49.4002 19.8747 49.5365 19.3567 49.7274ZM44.5748 70.9651C43.2116 71.1014 41.0033 71.5104 39.6675 71.8375C38.3043 72.1919 35.8507 73.1189 34.2149 73.8822C32.4973 74.7274 30.18 76.0905 28.7623 77.181C27.3992 78.1898 25.6816 79.6892 24.9183 80.5071C24.1822 81.2977 22.9554 82.7426 22.2193 83.7241C21.4832 84.7056 20.3654 86.4776 19.7111 87.6772C19.084 88.8768 18.2661 90.6489 17.9117 91.6303C17.5301 92.6118 16.9575 94.6292 16.6576 96.1287C16.1942 98.1734 16.0579 99.8092 16.0579 102.672C16.0579 105.371 16.1942 107.279 16.5759 109.215C16.8757 110.714 17.421 112.732 17.8027 113.713C18.1571 114.695 18.9205 116.412 19.493 117.53C20.0655 118.648 20.8834 120.12 21.3468 120.802C21.8103 121.483 22.819 122.819 23.6097 123.8C24.373 124.782 25.9815 126.39 27.1811 127.372C28.3534 128.353 29.9892 129.58 30.807 130.098C31.6249 130.616 33.1244 131.434 34.1331 131.925C35.1691 132.388 36.8866 133.097 37.9499 133.451C39.0404 133.833 41.1124 134.324 42.5301 134.542C43.9477 134.787 46.156 134.978 47.4374 134.978C48.7187 134.978 50.6816 134.842 51.7994 134.706C52.9172 134.542 54.6347 134.242 55.6162 133.997C56.5977 133.751 58.4788 133.152 59.8419 132.634C61.1778 132.116 63.3316 131.08 64.6129 130.289C65.8943 129.498 67.9663 127.863 69.2476 126.636C70.529 125.409 72.0829 123.773 72.71 122.955C73.337 122.137 74.4548 120.502 75.1636 119.302C75.8997 118.103 76.9357 115.949 77.481 114.531C78.0535 113.113 78.7623 110.66 79.0895 109.079C79.5802 106.625 79.6347 105.616 79.5257 101.99C79.4166 99.1276 79.1985 97.1101 78.8441 95.7197C78.5442 94.602 77.9717 92.8299 77.59 91.7666C77.1811 90.7034 76.2814 88.8222 75.5998 87.5409C74.9183 86.2595 73.5824 84.2421 72.6555 83.0425C71.7285 81.843 70.3109 80.2345 69.493 79.4984C68.6751 78.735 67.2029 77.5354 66.2487 76.7994C65.2672 76.0905 63.2498 74.8909 61.7503 74.1549C60.2509 73.446 58.2334 72.6009 57.252 72.2737C56.2705 71.9738 54.4439 71.5376 53.1626 71.3195C51.8812 71.1287 49.9728 70.8833 48.9368 70.8288C47.8736 70.747 45.9106 70.8288 44.5748 70.9651ZM209.406 81.434C209.269 81.8157 209.16 82.2792 209.133 82.4427C209.133 82.6336 208.588 82.988 207.961 83.2334C207.306 83.506 206.271 84.133 205.616 84.6783C204.853 85.3053 204.335 86.0687 204.008 86.9138C203.708 87.759 203.626 88.6587 203.708 89.4493C203.79 90.1309 204.062 91.0851 204.308 91.5485C204.553 92.0393 205.262 92.7481 205.889 93.1298C206.543 93.4842 208.233 94.0567 209.651 94.3839C211.069 94.6838 212.514 95.12 212.841 95.3381C213.195 95.5562 213.468 95.9924 213.468 96.3195C213.495 96.6739 213.332 97.1101 213.141 97.301C212.895 97.5463 212.187 97.6281 210.878 97.5736C209.406 97.4918 208.615 97.301 207.416 96.6739L205.834 95.8561C204.88 96.783 204.362 97.4918 204.062 98.0371C203.653 98.8004 203.599 99.1276 203.817 99.482C203.98 99.7274 204.526 100.164 205.044 100.409C205.562 100.682 206.679 101.091 207.552 101.363C208.86 101.772 209.133 101.963 209.106 102.454C209.106 102.808 209.351 103.326 209.651 103.626C209.951 103.926 210.496 104.171 210.878 104.171C211.26 104.171 211.75 104.117 211.968 104.035C212.187 103.953 212.459 103.408 212.568 102.781C212.732 101.908 212.923 101.663 213.468 101.527C213.85 101.445 214.504 101.2 214.967 100.954C215.404 100.736 216.14 100.245 216.549 99.8364C216.985 99.4547 217.503 98.6914 217.721 98.1734C217.939 97.6554 218.103 96.7012 218.103 96.0469C218.103 95.4198 217.884 94.4656 217.612 93.9204C217.366 93.3751 216.658 92.6118 216.058 92.2028C215.458 91.8212 213.686 91.1396 212.105 90.7034C210.523 90.2672 209.024 89.7219 208.751 89.4766C208.479 89.2312 208.261 88.795 208.261 88.4951C208.261 88.1952 208.479 87.759 208.724 87.5409C209.051 87.2683 209.733 87.132 210.851 87.1592C211.968 87.1592 212.895 87.3773 213.659 87.759C214.313 88.0861 214.995 88.3588 215.158 88.3588C215.349 88.3315 215.976 87.8135 216.521 87.1865C217.067 86.5594 217.53 85.8506 217.557 85.6325C217.557 85.4144 217.039 84.8964 216.385 84.5147C215.758 84.133 214.804 83.6423 214.286 83.4515C213.768 83.2606 213.168 82.9607 212.977 82.7972C212.786 82.6336 212.623 82.2246 212.65 81.8702C212.65 81.5431 212.405 81.1614 212.105 80.9978C211.805 80.8342 211.123 80.7252 210.605 80.7252C209.815 80.7252 209.597 80.8615 209.406 81.434ZM191.658 95.0927C191.658 95.3653 191.821 96.1832 192.012 96.9466C192.203 97.6827 192.803 99.0458 193.293 99.9455C193.811 100.845 194.956 102.317 195.856 103.217C196.783 104.144 198.255 105.371 199.155 105.971C200.109 106.598 201.99 107.443 203.653 107.988C206.38 108.888 206.707 108.942 210.333 108.942C213.55 108.915 214.477 108.833 216.194 108.288C217.312 107.933 218.784 107.361 219.466 107.034C220.147 106.679 221.429 105.861 222.328 105.207C223.228 104.553 224.618 103.162 225.382 102.126C226.172 101.063 226.827 100.055 226.827 99.8637C226.827 99.7001 226.772 99.5365 226.69 99.5365C226.609 99.5365 225.763 100.354 224.809 101.363C223.8 102.454 222.165 103.762 220.911 104.498C219.738 105.207 217.857 106.107 216.739 106.516C214.886 107.197 214.34 107.279 210.878 107.279C208.37 107.306 206.598 107.17 205.698 106.925C204.935 106.707 203.217 106.025 201.881 105.371C200.518 104.744 198.746 103.626 197.928 102.89C197.083 102.181 195.829 100.9 195.12 100.082C194.411 99.2639 193.402 97.6827 192.884 96.5921C192.366 95.5289 191.876 94.6292 191.794 94.6292C191.712 94.6292 191.658 94.8473 191.658 95.0927ZM81.6522 173.282C81.2978 173.637 80.9706 174.155 80.9434 174.427C80.9161 174.7 80.9434 175.109 80.9706 175.327C80.9979 175.545 81.2705 176.009 81.5977 176.363C82.1974 176.963 82.3338 176.99 87.7318 176.963H93.2662C94.3021 175.9 94.602 175.354 94.602 175.055C94.602 174.755 94.3839 174.155 94.1113 173.691C93.8114 173.201 93.3479 172.846 92.8299 172.737C92.3665 172.655 89.831 172.601 87.1593 172.601C82.361 172.601 82.3065 172.601 81.6522 173.282Z" fill="#F6F4EC"/>
<path d="M46.7012 74.8092C46.5649 75.0273 46.3468 75.5998 46.2377 76.1178C46.1014 76.6085 46.1014 78.0534 46.2105 79.3348L46.374 81.6521H49.0731C49.0731 75.9542 48.9913 75.1636 48.6641 74.8364C48.446 74.6183 47.9553 74.4275 47.6009 74.4275C47.2465 74.4275 46.8375 74.5911 46.7012 74.8092ZM20.0382 101.908C19.7655 102.181 19.5474 102.617 19.5747 102.863C19.602 103.108 19.8746 103.571 20.1745 103.871C20.6652 104.362 21.0741 104.417 23.6369 104.417C25.8179 104.417 26.7448 104.308 27.181 104.008C27.5627 103.762 27.8081 103.326 27.8081 102.917C27.8081 102.535 27.6172 102.045 27.3991 101.827C27.072 101.499 26.2541 101.418 23.7459 101.418C20.9924 101.418 20.4471 101.499 20.0382 101.908ZM68.2933 101.908C68.0207 102.181 67.8026 102.672 67.8299 102.999C67.8571 103.326 68.157 103.79 68.4842 104.008C68.9476 104.308 69.8746 104.417 71.9738 104.417C74.0731 104.417 75 104.308 75.4362 104.008C75.8179 103.762 76.0632 103.326 76.0632 102.917C76.0632 102.535 75.8724 102.045 75.6543 101.827C75.3271 101.499 74.5093 101.418 72.0011 101.418C69.2475 101.418 68.7023 101.499 68.2933 101.908ZM46.9466 122.546C46.5104 122.873 46.4013 123.419 46.2377 125.872C46.1559 127.481 46.1832 129.253 46.2923 129.771C46.4558 130.453 46.7285 130.807 47.2192 130.998C47.819 131.216 48.0643 131.161 48.5278 130.725C49.0458 130.234 49.1003 129.88 49.0731 126.772C49.0731 124.427 48.964 123.228 48.7459 122.928C48.5551 122.683 48.1734 122.41 47.928 122.328C47.6827 122.246 47.2192 122.355 46.9466 122.546Z" fill="#1C1B1F"/>
<path d="M49.8092 99.7274C49.7001 99.8909 49.7274 100.109 49.8909 100.191C50.0545 100.273 50.2999 100.981 50.4635 101.745C50.7361 102.972 50.7088 103.326 50.3272 104.062C50.0818 104.607 49.4547 105.18 48.8004 105.507C47.9008 105.943 47.5463 105.998 46.7557 105.78C46.1832 105.616 45.4744 105.098 44.9836 104.471C44.3293 103.68 44.1658 103.19 44.1658 102.154C44.1658 101.254 44.0567 100.9 43.8386 100.954C43.6478 101.009 43.3206 101.336 43.157 101.718C42.9662 102.072 42.8026 102.672 42.8026 103.053C42.8026 103.435 42.9389 104.198 43.0752 104.744C43.2388 105.316 43.675 106.161 44.1112 106.652C44.5202 107.116 45.2563 107.661 45.747 107.879C46.2105 108.07 47.0829 108.233 47.6554 108.233C48.2007 108.233 49.1548 107.933 49.7546 107.579C50.3544 107.225 51.0632 106.543 51.3086 106.025C51.554 105.507 51.8539 104.716 51.9629 104.28C52.0447 103.844 52.072 103.026 51.9629 102.508C51.8811 101.99 51.3904 101.063 50.8997 100.463C50.2726 99.7274 49.9182 99.482 49.8092 99.7001V99.7274Z" fill="#F57506"/>
<path d="M46.8648 81.7067C46.6194 81.7612 46.2378 82.2246 45.9924 82.6881C45.6925 83.3424 45.5289 84.8419 45.3926 88.4678L45.1745 93.3751C43.8659 91.8484 43.1025 90.9215 42.6391 90.349C41.903 89.422 41.6303 89.2857 40.6216 89.2857C39.7219 89.2857 39.3403 89.4493 38.8223 90.0491C38.3861 90.5125 38.168 91.1123 38.168 91.7394C38.168 92.3755 38.4679 93.1298 39.0676 94.0022C39.5584 94.711 40.7307 96.4013 41.6849 97.7372C42.9662 99.6183 43.3479 100.354 43.2389 100.872C43.1298 101.39 43.1571 101.472 43.4024 101.227C43.5933 101.036 43.8386 100.872 43.9477 100.872C44.0567 100.872 44.1658 101.445 44.1658 102.181C44.1658 103.19 44.3294 103.68 44.9837 104.498C45.4744 105.098 46.1832 105.616 46.7558 105.78C47.5464 105.998 47.9008 105.943 48.8005 105.507C49.4548 105.18 50.0546 104.607 50.3272 104.089C50.5998 103.49 50.7089 102.863 50.5998 102.236C50.4908 101.718 50.2454 100.954 50.0273 100.545C49.7819 100.055 49.7274 99.7274 49.891 99.6456C50.0546 99.5638 50.5453 99.9727 50.9815 100.545C51.445 101.091 51.7994 101.472 51.7994 101.363C51.7994 101.227 51.3086 100.627 50.7361 100L49.6456 98.8277C49.5093 85.578 49.373 82.2519 49.2094 82.1156C49.0458 81.952 48.5824 81.7884 48.1189 81.7067C47.6554 81.6249 47.1102 81.6249 46.8648 81.7067ZM52.0447 103.599C51.9629 104.28 51.6903 105.262 51.4177 105.78C51.1178 106.379 51.0633 106.625 51.3086 106.434C51.4995 106.27 51.8266 105.589 52.0175 104.935C52.2356 104.28 52.3446 103.435 52.2901 103.053C52.2083 102.59 52.1538 102.754 52.0447 103.599ZM126.418 184.924C126.172 185.496 125.791 186.369 125.573 186.914C125.354 187.459 125.164 188.004 125.164 188.141C125.136 188.277 125.872 188.386 126.772 188.386C127.672 188.386 128.408 188.277 128.408 188.113C128.408 187.977 128.081 187.023 127.699 186.014C127.317 184.978 126.99 184.106 126.936 184.051C126.908 183.997 126.663 184.378 126.418 184.924Z" fill="#FBBD05"/>
</svg>
